<?xml version="1.0" encoding="UTF-8" ?>
<!DOCTYPE svg PUBLIC "-//W3C//DTD SVG 1.1//EN" "http://www.w3.org/Graphics/SVG/1.1/DTD/svg11.dtd">
<svg width="1262pt" height="1262pt" viewBox="0 0 1262 1262" version="1.1" xmlns="http://www.w3.org/2000/svg">
<g id="#d26464ff">
<path fill="#d26464" opacity="1.00" d=" M 968.37 0.00 L 968.79 0.00 C 1001.93 34.56 1035.69 68.54 1069.09 102.87 C 1132.54 167.75 1196.00 232.63 1259.45 297.52 C 1260.16 298.31 1261.01 298.95 1262.00 299.44 L 1262.00 299.74 C 1252.00 300.51 1241.95 299.91 1231.93 300.10 C 1191.32 300.10 1150.70 300.10 1110.09 300.10 C 1110.09 410.40 1110.09 520.70 1110.09 630.99 C 1015.70 631.00 921.30 631.00 826.91 630.99 C 826.90 520.70 826.92 410.40 826.91 300.10 C 776.29 300.09 725.67 300.12 675.05 300.09 C 772.78 200.02 870.74 100.17 968.37 0.00 Z" />
<path fill="#d26464" opacity="1.00" d=" M 55.96 714.89 C 72.34 705.41 91.16 700.56 110.03 699.99 C 217.68 700.00 325.33 700.01 432.99 699.99 C 460.12 699.84 487.62 708.86 508.16 726.86 C 532.61 747.40 546.95 779.06 547.01 810.92 C 546.98 922.63 547.01 1034.33 547.00 1146.04 C 547.72 1175.21 537.25 1204.83 517.13 1226.16 C 503.68 1241.04 485.83 1251.74 466.64 1257.41 C 457.52 1260.27 447.96 1260.99 438.51 1262.00 L 107.90 1262.00 C 98.74 1261.02 89.46 1260.33 80.62 1257.56 C 61.91 1252.20 44.69 1241.83 31.14 1227.87 C 17.40 1213.85 7.81 1195.93 3.14 1176.89 C 1.51 1169.87 0.70 1162.71 0.00 1155.55 L 0.00 804.59 C 0.67 799.95 1.19 795.29 2.02 790.67 C 7.71 759.14 27.93 730.50 55.96 714.89 M 194.03 756.64 C 176.33 756.96 158.61 757.44 141.00 759.43 C 128.09 760.01 115.40 762.71 102.96 766.06 C 96.85 767.73 91.02 770.31 85.65 773.64 C 71.74 781.07 63.02 795.70 59.53 810.72 C 55.88 824.17 55.10 838.12 54.64 851.98 C 54.67 894.77 54.67 937.56 54.63 980.35 C 59.38 980.96 64.18 980.48 68.95 980.62 C 111.27 980.78 153.61 980.36 195.92 980.81 C 171.72 1005.95 147.20 1030.79 122.94 1055.87 C 114.47 1063.95 107.65 1073.97 104.18 1085.22 C 102.06 1092.25 102.36 1099.69 102.66 1106.94 C 104.11 1120.42 111.57 1132.56 120.81 1142.17 C 128.79 1149.02 138.59 1154.21 149.13 1155.50 C 161.24 1157.42 174.10 1155.12 184.58 1148.66 C 192.97 1144.35 198.73 1136.72 205.29 1130.21 C 227.95 1106.95 250.67 1083.75 273.24 1060.41 C 286.07 1072.99 298.34 1086.14 310.96 1098.94 C 323.77 1111.86 336.31 1125.03 349.05 1138.02 C 360.79 1151.26 379.32 1158.35 396.89 1155.60 C 407.30 1154.55 416.91 1149.51 424.99 1143.07 C 432.16 1136.19 437.85 1127.69 441.41 1118.40 C 444.55 1110.67 444.66 1102.17 444.20 1093.97 C 442.81 1078.99 434.08 1065.73 423.51 1055.48 C 399.45 1030.86 375.47 1006.15 351.42 981.53 C 353.32 980.10 355.77 980.70 357.98 980.60 C 394.99 980.65 432.00 980.62 469.01 980.62 C 476.79 980.48 484.61 980.96 492.37 980.34 C 492.31 948.53 492.39 916.73 492.34 884.93 C 492.35 864.63 492.79 844.22 490.00 824.06 C 487.89 812.14 485.33 799.77 478.25 789.69 C 475.43 785.62 472.43 781.56 468.47 778.52 C 460.30 772.32 450.91 767.74 440.96 765.26 C 433.02 763.36 425.08 761.36 416.95 760.44 C 372.49 755.37 327.65 756.44 282.98 756.28 C 253.33 756.45 223.68 755.93 194.03 756.64 Z" />
</g>
<g id="#000000ff">
<path fill="#000000" opacity="1.00" d=" M 46.22 4.21 C 56.24 -1.54 69.51 -0.71 78.75 6.20 C 86.31 11.66 90.90 20.76 91.07 30.05 C 91.14 45.56 85.02 61.06 74.15 72.17 C 63.31 83.51 47.82 90.31 32.12 90.46 C 22.88 90.60 13.56 86.67 7.72 79.42 C -0.06 70.18 -1.34 56.16 4.66 45.68 C 9.76 36.32 20.10 30.30 30.73 30.20 C 30.93 19.60 36.86 9.29 46.22 4.21 Z" />
<path fill="#000000" opacity="1.00" d=" M 232.44 1.61 C 245.01 -2.18 259.57 3.51 266.25 14.80 C 269.70 20.21 270.71 26.69 270.97 32.99 C 270.65 74.13 259.37 115.11 238.74 150.70 C 221.12 181.20 196.69 207.72 167.72 227.76 C 129.81 254.12 84.14 269.15 37.97 270.40 C 27.98 270.80 16.99 268.72 9.83 261.17 C -0.16 251.72 -1.80 235.13 5.72 223.70 C 10.56 216.10 18.98 210.89 27.98 210.07 C 31.65 209.51 35.32 210.44 39.00 210.32 C 73.12 208.88 106.73 197.38 134.62 177.68 C 162.38 158.21 184.41 130.70 197.32 99.34 C 205.59 79.28 210.36 57.70 210.85 35.99 C 210.29 29.24 210.87 22.20 214.28 16.20 C 218.05 9.17 224.76 3.78 232.44 1.61 Z" />
<path fill="#000000" opacity="1.00" d=" M 412.43 1.64 C 424.99 -2.34 439.66 3.14 446.55 14.36 C 449.12 18.45 450.71 23.15 451.10 27.97 C 451.32 90.55 437.65 153.20 410.82 209.78 C 386.11 262.26 350.33 309.48 306.52 347.50 C 267.13 381.80 221.24 408.59 172.04 426.12 C 128.14 441.81 81.60 450.05 34.99 450.51 C 25.96 450.07 16.28 447.96 9.84 441.09 C -0.69 431.18 -1.89 413.37 6.88 401.95 C 12.62 394.11 22.35 389.45 32.05 389.87 C 34.37 390.00 36.69 390.38 39.02 390.39 C 110.57 388.99 181.46 365.42 239.70 323.84 C 294.40 285.05 337.81 230.60 363.46 168.63 C 380.12 128.54 389.46 85.41 390.82 42.01 C 391.12 36.29 390.59 30.52 391.56 24.85 C 393.47 14.01 401.87 4.72 412.43 1.64 Z" />
<path fill="#000000" opacity="1.00" d=" M 594.14 1.22 C 602.52 -0.72 611.72 1.16 618.63 6.32 C 624.61 10.66 628.78 17.35 630.22 24.58 C 631.28 30.33 630.98 36.20 630.89 42.02 C 629.30 129.38 608.24 216.31 569.70 294.73 C 539.94 355.47 499.79 411.11 451.52 458.49 C 400.23 508.93 339.78 550.01 273.99 579.10 C 200.80 611.58 121.02 629.16 40.95 630.42 C 31.97 630.78 22.25 630.83 14.55 625.49 C 3.10 618.34 -1.89 603.01 2.68 590.38 C 6.42 579.31 17.21 571.10 28.89 570.45 C 116.25 571.00 203.63 549.65 281.02 509.14 C 340.96 477.88 394.90 435.21 439.13 384.10 C 487.32 328.58 523.92 263.06 546.00 192.94 C 562.77 139.70 571.35 83.85 570.94 28.04 C 571.75 15.29 581.66 3.89 594.14 1.22 Z" />
<path fill="#000000" opacity="1.00" d=" M 731.97 841.10 C 735.19 836.85 739.30 833.37 743.01 829.56 C 759.03 829.61 775.05 829.39 791.06 829.65 C 795.61 832.64 799.07 837.19 802.86 841.12 C 802.86 851.79 802.91 862.45 802.84 873.11 C 802.95 874.70 801.72 875.85 800.96 877.11 C 800.81 894.89 800.94 912.69 800.90 930.48 C 812.93 931.18 825.00 930.66 837.04 930.82 C 853.00 930.65 868.97 931.21 884.92 930.43 C 888.20 926.60 891.77 923.03 895.45 919.60 C 899.37 915.82 905.16 917.38 910.03 917.08 C 915.65 917.39 921.41 916.43 926.94 917.61 C 932.63 920.57 936.41 926.11 940.95 930.51 C 951.63 930.98 962.31 930.78 973.00 930.82 C 997.39 930.82 1021.78 930.81 1046.18 930.82 C 1046.17 929.22 1046.17 927.63 1046.19 926.05 C 1049.73 921.95 1053.69 918.25 1057.43 914.34 C 1070.82 914.22 1084.21 914.26 1097.60 914.33 C 1101.36 918.23 1105.34 921.95 1108.88 926.08 C 1108.86 927.64 1108.87 929.22 1108.88 930.81 C 1133.93 930.83 1158.98 930.83 1184.03 930.80 C 1200.92 930.52 1218.28 934.93 1231.99 945.06 C 1237.49 949.16 1242.04 954.35 1246.92 959.15 C 1254.17 966.60 1259.34 975.97 1262.00 986.02 L 1262.00 1027.36 C 1259.53 1037.40 1253.86 1046.38 1247.10 1054.09 C 1241.56 1059.57 1236.35 1065.49 1229.87 1069.89 C 1220.97 1076.04 1210.61 1080.04 1199.91 1081.51 C 1190.36 1083.10 1180.67 1082.24 1171.05 1082.45 C 1088.03 1082.43 1005.00 1082.50 921.98 1082.42 C 917.50 1080.86 912.55 1078.85 907.81 1080.93 C 904.77 1082.56 901.29 1082.19 897.98 1082.18 C 854.65 1082.10 811.32 1082.27 767.99 1082.10 C 762.93 1079.78 757.33 1080.49 751.92 1080.49 C 749.43 1080.54 747.56 1082.85 744.99 1082.48 C 728.93 1082.13 712.65 1083.59 696.80 1080.27 C 678.71 1076.61 661.43 1069.15 646.10 1058.92 C 633.00 1050.35 622.33 1038.73 612.25 1026.90 C 608.49 1022.50 606.31 1016.82 606.74 1010.99 C 607.08 1003.90 605.46 996.00 609.79 989.78 C 615.07 981.88 621.92 975.18 628.62 968.50 C 635.50 961.59 643.41 955.79 651.69 950.67 C 654.59 948.86 657.81 947.47 660.22 944.97 C 660.48 943.67 660.13 942.10 661.11 941.07 C 664.01 937.66 667.40 934.71 670.45 931.44 C 679.62 931.63 688.91 930.57 697.98 932.27 C 701.86 932.85 705.14 930.08 708.95 929.99 C 717.20 929.70 725.47 930.04 733.73 929.97 C 733.67 912.43 733.77 894.88 733.68 877.34 C 732.41 875.82 731.41 874.09 731.72 872.05 C 731.91 861.74 731.42 851.38 731.97 841.10 M 715.19 962.03 C 692.06 966.08 669.98 976.08 651.61 990.71 C 646.17 995.43 640.37 1000.23 637.13 1006.82 C 644.37 1018.20 655.70 1026.18 667.00 1033.15 C 686.59 1044.87 709.08 1052.27 732.02 1052.60 C 733.54 1052.66 734.62 1051.33 735.90 1050.68 C 749.63 1050.63 763.36 1050.66 777.09 1050.66 C 779.23 1050.48 780.80 1052.62 782.98 1052.31 C 818.33 1052.29 853.69 1052.30 889.04 1052.31 C 891.30 1052.48 893.17 1050.99 895.12 1050.06 C 905.78 1044.24 919.36 1044.15 930.07 1049.90 C 932.51 1051.36 935.17 1052.61 938.10 1052.55 C 976.35 1052.66 1014.61 1052.51 1052.87 1052.62 C 1052.93 1022.04 1052.94 991.45 1052.87 960.87 C 1014.20 960.87 975.54 960.90 936.88 960.86 C 934.47 962.45 932.27 964.35 929.77 965.80 C 919.91 970.87 907.69 971.19 897.62 966.53 C 893.38 964.67 890.06 960.07 885.00 960.86 C 829.28 960.88 773.56 960.92 717.84 960.84 C 716.98 961.30 716.10 961.70 715.19 962.03 M 1061.92 960.69 C 1062.02 991.35 1061.68 1022.02 1062.09 1052.67 C 1102.07 1052.53 1142.04 1052.67 1182.02 1052.60 C 1200.21 1052.55 1218.39 1042.13 1226.52 1025.66 C 1233.09 1012.60 1232.30 996.13 1224.26 983.87 C 1215.23 969.17 1197.98 960.78 1180.97 960.71 C 1141.29 960.64 1101.60 960.67 1061.92 960.69 Z" />
<path fill="#000000" opacity="1.00" d=" M 703.63 981.33 C 710.72 979.88 717.82 978.43 724.96 977.25 C 727.32 976.53 728.85 978.29 730.16 979.96 C 730.14 982.80 730.12 985.65 730.07 988.50 C 734.21 986.90 738.67 987.50 742.99 987.42 C 758.29 987.43 773.58 987.39 788.88 987.43 C 792.91 987.71 795.46 991.31 797.80 994.19 C 801.51 999.29 800.56 1005.92 800.48 1011.84 C 799.66 1017.76 795.49 1023.72 789.78 1025.70 C 772.18 1025.93 754.57 1025.70 736.97 1025.81 C 734.62 1025.90 732.28 1025.48 730.07 1024.74 C 729.74 1028.49 731.75 1034.13 727.18 1036.02 C 719.22 1035.58 711.42 1033.33 703.62 1031.73 C 703.67 1014.93 703.66 998.13 703.63 981.33 M 712.22 989.77 C 712.23 1001.01 712.21 1012.25 712.23 1023.49 C 715.28 1024.04 718.34 1024.57 721.37 1025.28 C 721.32 1012.86 721.49 1000.45 721.29 988.04 C 718.26 988.63 715.24 989.20 712.22 989.77 M 730.12 1000.06 C 730.09 1004.41 730.12 1008.76 730.09 1013.13 C 733.35 1015.19 737.12 1016.63 741.04 1016.40 C 755.70 1016.33 770.37 1016.46 785.03 1016.34 C 794.35 1015.04 794.40 998.46 785.18 996.87 C 772.43 996.76 759.68 996.86 746.93 996.83 C 741.17 996.62 735.02 996.53 730.12 1000.06 Z" />
</g>
<g id="#de9294ff">
<path fill="#de9294" opacity="1.00" d=" M 194.03 756.64 C 223.68 755.93 253.33 756.45 282.98 756.28 C 327.65 756.44 372.49 755.37 416.95 760.44 C 425.08 761.36 433.02 763.36 440.96 765.26 C 450.91 767.74 460.30 772.32 468.47 778.52 C 472.43 781.56 475.43 785.62 478.25 789.69 C 485.33 799.77 487.89 812.14 490.00 824.06 C 492.79 844.22 492.35 864.63 492.34 884.93 C 492.39 916.73 492.31 948.53 492.37 980.34 C 484.61 980.96 476.79 980.48 469.01 980.62 C 432.00 980.62 394.99 980.65 357.98 980.60 C 355.77 980.70 353.32 980.10 351.42 981.53 C 351.28 981.38 351.01 981.08 350.87 980.92 C 371.65 959.34 392.68 938.00 413.55 916.50 C 420.83 908.78 429.02 901.76 434.83 892.79 C 439.74 885.37 443.42 876.90 444.19 867.96 C 444.63 860.27 444.61 852.34 442.01 844.99 C 438.63 835.32 432.86 826.52 425.63 819.29 C 418.05 812.90 408.91 808.03 399.06 806.42 C 386.23 804.11 372.52 806.50 361.48 813.53 C 354.46 817.19 349.55 823.52 344.00 828.97 C 328.62 844.60 313.48 860.47 298.06 876.06 C 289.70 884.39 281.90 893.31 273.18 901.25 C 247.33 874.60 221.33 848.10 195.50 821.43 C 190.54 816.09 184.03 812.57 177.52 809.48 C 164.76 804.30 150.01 804.28 137.21 809.37 C 129.88 812.81 122.47 816.86 117.37 823.33 C 109.69 832.61 103.37 843.74 102.58 856.00 C 102.36 862.96 102.15 870.10 104.26 876.83 C 107.79 888.25 114.91 898.29 123.48 906.52 C 147.65 931.25 171.73 956.08 195.92 980.81 C 153.61 980.36 111.27 980.78 68.95 980.62 C 64.18 980.48 59.38 980.96 54.63 980.35 C 54.67 937.56 54.67 894.77 54.64 851.98 C 55.10 838.12 55.88 824.17 59.53 810.72 C 63.02 795.70 71.74 781.07 85.65 773.64 C 91.02 770.31 96.85 767.73 102.96 766.06 C 115.40 762.71 128.09 760.01 141.00 759.43 C 158.61 757.44 176.33 756.96 194.03 756.64 Z" />
</g>
<g id="#ffffffff">
<path fill="#ffffff" opacity="1.00" d=" M 137.21 809.37 C 150.01 804.28 164.76 804.30 177.52 809.48 C 184.03 812.57 190.54 816.09 195.50 821.43 C 221.33 848.10 247.33 874.60 273.18 901.25 C 281.90 893.31 289.70 884.39 298.06 876.06 C 313.48 860.47 328.62 844.60 344.00 828.97 C 349.55 823.52 354.46 817.19 361.48 813.53 C 372.52 806.50 386.23 804.11 399.06 806.42 C 408.91 808.03 418.05 812.90 425.63 819.29 C 432.86 826.52 438.63 835.32 442.01 844.99 C 444.61 852.34 444.63 860.27 444.19 867.96 C 443.42 876.90 439.74 885.37 434.83 892.79 C 429.02 901.76 420.83 908.78 413.55 916.50 C 392.68 938.00 371.65 959.34 350.87 980.92 C 351.01 981.08 351.28 981.38 351.42 981.53 C 375.47 1006.15 399.45 1030.86 423.51 1055.48 C 434.08 1065.73 442.81 1078.99 444.20 1093.97 C 444.66 1102.17 444.55 1110.67 441.41 1118.40 C 437.85 1127.69 432.16 1136.19 424.99 1143.07 C 416.91 1149.51 407.30 1154.55 396.89 1155.60 C 379.32 1158.35 360.79 1151.26 349.05 1138.02 C 336.31 1125.03 323.77 1111.86 310.96 1098.94 C 298.34 1086.14 286.07 1072.99 273.24 1060.41 C 250.67 1083.75 227.95 1106.95 205.29 1130.21 C 198.73 1136.72 192.97 1144.35 184.58 1148.66 C 174.10 1155.12 161.24 1157.42 149.13 1155.50 C 138.59 1154.21 128.79 1149.02 120.81 1142.17 C 111.57 1132.56 104.11 1120.42 102.66 1106.94 C 102.36 1099.69 102.06 1092.25 104.18 1085.22 C 107.65 1073.97 114.47 1063.95 122.94 1055.87 C 147.20 1030.79 171.72 1005.95 195.92 980.81 C 171.73 956.08 147.65 931.25 123.48 906.52 C 114.91 898.29 107.79 888.25 104.26 876.83 C 102.15 870.10 102.36 862.96 102.58 856.00 C 103.37 843.74 109.69 832.61 117.37 823.33 C 122.47 816.86 129.88 812.81 137.21 809.37 Z" />
<path fill="#ffffff" opacity="1.00" d=" M 715.19 962.03 C 716.10 961.70 716.98 961.30 717.84 960.84 C 773.56 960.92 829.28 960.88 885.00 960.86 C 890.06 960.07 893.38 964.67 897.62 966.53 C 907.69 971.19 919.91 970.87 929.77 965.80 C 932.27 964.35 934.47 962.45 936.88 960.86 C 975.54 960.90 1014.20 960.87 1052.87 960.87 C 1052.94 991.45 1052.93 1022.04 1052.87 1052.62 C 1014.61 1052.51 976.35 1052.66 938.10 1052.55 C 935.17 1052.61 932.51 1051.36 930.07 1049.90 C 919.36 1044.15 905.78 1044.24 895.12 1050.06 C 893.17 1050.99 891.30 1052.48 889.04 1052.31 C 853.69 1052.30 818.33 1052.29 782.98 1052.31 C 780.80 1052.62 779.23 1050.48 777.09 1050.66 C 763.36 1050.66 749.63 1050.63 735.90 1050.68 C 734.62 1051.33 733.54 1052.66 732.02 1052.60 C 709.08 1052.27 686.59 1044.87 667.00 1033.15 C 655.70 1026.18 644.37 1018.20 637.13 1006.82 C 640.37 1000.23 646.17 995.43 651.61 990.71 C 669.98 976.08 692.06 966.08 715.19 962.03 M 703.63 981.33 C 703.66 998.13 703.67 1014.93 703.62 1031.73 C 711.42 1033.33 719.22 1035.58 727.18 1036.02 C 731.75 1034.13 729.74 1028.49 730.07 1024.74 C 732.28 1025.48 734.62 1025.90 736.97 1025.81 C 754.57 1025.70 772.18 1025.93 789.78 1025.70 C 795.49 1023.72 799.66 1017.76 800.48 1011.84 C 800.56 1005.92 801.51 999.29 797.80 994.19 C 795.46 991.31 792.91 987.71 788.88 987.43 C 773.58 987.39 758.29 987.43 742.99 987.42 C 738.67 987.50 734.21 986.90 730.07 988.50 C 730.12 985.65 730.14 982.80 730.16 979.96 C 728.85 978.29 727.32 976.53 724.96 977.25 C 717.82 978.43 710.72 979.88 703.63 981.33 Z" />
<path fill="#ffffff" opacity="1.00" d=" M 712.22 989.77 C 715.24 989.20 718.26 988.63 721.29 988.04 C 721.49 1000.45 721.32 1012.86 721.37 1025.28 C 718.34 1024.57 715.28 1024.04 712.23 1023.49 C 712.21 1012.25 712.23 1001.01 712.22 989.77 Z" />
<path fill="#ffffff" opacity="1.00" d=" M 730.12 1000.06 C 735.02 996.53 741.17 996.62 746.93 996.83 C 759.68 996.86 772.43 996.76 785.18 996.87 C 794.40 998.46 794.35 1015.04 785.03 1016.34 C 770.37 1016.46 755.70 1016.33 741.04 1016.40 C 737.12 1016.63 733.35 1015.19 730.09 1013.13 C 730.12 1008.76 730.09 1004.41 730.12 1000.06 Z" />
</g>
<g id="#dea305ff">
<path fill="#dea305" opacity="1.00" d=" M 1061.92 960.69 C 1101.60 960.67 1141.29 960.64 1180.97 960.71 C 1197.98 960.78 1215.23 969.17 1224.26 983.87 C 1232.30 996.13 1233.09 1012.60 1226.52 1025.66 C 1218.39 1042.13 1200.21 1052.55 1182.02 1052.60 C 1142.04 1052.67 1102.07 1052.53 1062.09 1052.67 C 1061.68 1022.02 1062.02 991.35 1061.92 960.69 Z" />
</g>
</svg>
