<?xml version="1.0" encoding="UTF-8" ?>
<!DOCTYPE svg PUBLIC "-//W3C//DTD SVG 1.1//EN" "http://www.w3.org/Graphics/SVG/1.1/DTD/svg11.dtd">
<svg width="1262pt" height="1262pt" viewBox="0 0 1262 1262" version="1.1" xmlns="http://www.w3.org/2000/svg">
<g id="#d26464ff">
<path fill="#d26464" opacity="1.00" d=" M 968.20 0.00 L 968.76 0.00 C 987.75 20.06 1007.36 39.56 1026.59 59.41 C 1103.23 137.77 1179.87 216.14 1256.50 294.50 C 1258.31 296.12 1259.72 298.45 1262.00 299.41 L 1262.00 299.71 C 1256.36 300.44 1250.67 299.98 1245.01 300.10 C 1200.04 300.10 1155.07 300.10 1110.09 300.10 C 1110.08 410.40 1110.10 520.70 1110.09 630.99 C 1015.69 631.00 921.30 631.01 826.91 630.99 C 826.90 520.70 826.92 410.40 826.91 300.10 C 776.29 300.09 725.67 300.12 675.05 300.09 C 765.35 207.71 855.69 115.38 946.00 23.02 C 953.34 15.29 961.14 7.97 968.20 0.00 Z" />
<path fill="#d26464" opacity="1.00" d=" M 264.46 703.04 C 292.01 696.11 322.14 701.25 346.27 716.11 C 362.57 725.86 375.92 739.99 385.93 756.04 C 445.80 865.16 505.70 974.27 565.57 1083.40 C 574.95 1103.87 579.85 1126.62 578.01 1149.17 C 575.48 1186.34 555.33 1222.64 523.36 1242.34 C 507.13 1252.71 488.12 1259.46 468.73 1259.49 C 477.14 1261.21 485.86 1259.81 494.40 1260.28 C 493.47 1260.85 492.53 1261.43 491.60 1262.00 L 447.62 1262.00 C 447.17 1260.71 446.33 1260.13 445.10 1260.24 C 341.73 1260.19 238.35 1260.31 134.98 1260.22 C 133.42 1260.06 131.88 1260.25 131.38 1262.00 L 87.53 1262.00 C 86.53 1261.44 85.53 1260.88 84.55 1260.32 C 93.11 1259.79 101.83 1261.23 110.26 1259.37 C 89.60 1259.88 69.41 1252.04 52.41 1240.70 C 21.75 1220.26 2.46 1184.60 0.50 1147.99 C 0.60 1136.76 0.75 1125.45 3.20 1114.43 C 6.06 1101.16 10.43 1088.06 17.32 1076.31 C 76.02 969.35 134.71 862.36 193.44 755.41 C 198.58 747.44 204.43 739.90 211.05 733.11 C 225.75 718.59 244.24 707.64 264.46 703.04 M 268.63 760.52 C 256.31 765.32 244.92 774.06 239.24 786.26 C 234.05 797.08 232.29 809.19 231.80 821.08 C 230.83 842.29 237.47 862.79 242.99 882.99 C 251.30 913.23 261.61 942.98 267.41 973.85 C 272.59 1006.37 276.23 1039.12 280.41 1071.78 L 280.90 1072.22 C 287.35 1072.31 293.81 1072.18 300.26 1072.28 C 304.07 1042.71 306.76 1012.97 311.35 983.50 C 316.86 951.84 326.86 921.22 334.78 890.13 C 339.79 870.27 345.85 850.51 347.96 830.07 C 348.68 813.82 347.09 796.61 338.59 782.37 C 334.28 775.16 327.70 769.62 320.63 765.25 C 305.25 755.78 285.49 754.35 268.63 760.52 M 279.08 1109.21 C 252.50 1113.60 231.02 1138.90 231.73 1165.97 C 230.93 1185.31 241.21 1204.09 257.07 1214.88 C 270.22 1224.23 287.38 1226.70 302.99 1223.48 C 318.83 1220.21 332.54 1209.40 340.69 1195.61 C 347.82 1183.53 349.57 1168.81 347.17 1155.13 C 344.23 1138.22 332.70 1123.49 317.87 1115.18 C 306.17 1108.65 292.18 1107.07 279.08 1109.21 Z" />
</g>
<g id="#000000ff">
<path fill="#000000" opacity="1.00" d=" M 45.50 4.62 C 55.38 -1.40 68.68 -0.93 78.12 5.74 C 86.00 11.13 90.88 20.43 91.07 29.96 C 91.17 45.46 85.06 60.98 74.22 72.10 C 63.36 83.49 47.82 90.32 32.08 90.46 C 22.83 90.59 13.51 86.63 7.68 79.36 C -0.24 69.93 -1.35 55.56 5.03 45.03 C 10.25 36.00 20.38 30.34 30.76 30.16 C 30.91 19.85 36.57 9.82 45.50 4.62 Z" />
<path fill="#000000" opacity="1.00" d=" M 232.46 1.61 C 245.01 -2.17 259.53 3.50 266.23 14.76 C 269.71 20.18 270.70 26.69 270.98 33.01 C 270.63 73.67 259.63 114.17 239.45 149.46 C 222.37 179.43 198.75 205.64 170.68 225.68 C 135.71 250.77 93.87 266.15 50.97 269.67 C 41.13 270.40 31.00 271.41 21.44 268.38 C 10.54 264.84 2.15 254.53 1.18 243.08 C -0.16 232.08 5.31 220.68 14.64 214.73 C 20.31 211.08 27.25 209.32 33.97 210.07 C 38.93 210.67 43.92 210.03 48.87 209.62 C 85.19 206.06 120.29 191.09 147.97 167.30 C 177.90 141.88 199.01 106.33 207.07 67.90 C 209.61 55.47 211.32 42.75 210.68 30.04 C 210.65 17.12 220.00 4.96 232.46 1.61 Z" />
<path fill="#000000" opacity="1.00" d=" M 412.40 1.65 C 424.75 -2.27 439.15 2.93 446.19 13.79 C 448.98 18.02 450.69 22.96 451.11 28.02 C 451.29 89.33 438.21 150.72 412.40 206.38 C 389.62 255.92 357.01 300.91 317.07 338.02 C 277.88 374.54 231.59 403.40 181.58 422.59 C 134.30 440.77 83.72 450.29 33.07 450.50 C 28.02 449.56 22.72 449.33 18.06 446.91 C 7.57 442.02 0.40 430.62 1.08 418.98 C 1.02 405.37 11.74 392.87 25.05 390.44 C 29.34 389.41 33.72 390.00 38.03 390.38 C 112.80 389.21 186.87 363.64 246.65 318.77 C 301.45 277.90 344.13 221.05 368.05 157.00 C 382.43 118.70 390.24 77.93 390.94 37.02 C 390.95 31.31 390.76 25.40 392.91 20.00 C 396.04 11.26 403.51 4.30 412.40 1.65 Z" />
<path fill="#000000" opacity="1.00" d=" M 594.06 1.24 C 602.46 -0.73 611.68 1.14 618.60 6.30 C 624.57 10.62 628.74 17.29 630.21 24.50 C 631.07 29.30 631.08 34.19 630.94 39.05 C 629.77 127.64 608.57 215.88 569.40 295.33 C 537.08 361.13 492.55 420.89 438.75 470.68 C 382.45 522.89 316.01 564.10 244.22 591.35 C 176.64 617.08 104.36 630.42 32.05 630.50 C 25.70 630.43 19.26 628.81 14.02 625.13 C 6.67 620.19 1.77 611.78 1.12 602.94 C 0.18 593.48 4.18 583.72 11.44 577.59 C 17.82 571.96 26.60 569.71 34.98 570.43 C 121.07 570.02 206.92 548.31 283.02 508.09 C 349.09 473.30 407.74 424.57 454.11 366.05 C 501.85 305.93 536.51 235.51 555.00 161.00 C 565.80 117.56 571.29 72.75 570.94 27.98 C 571.79 15.28 581.63 3.93 594.06 1.24 Z" />
<path fill="#000000" opacity="1.00" d=" M 731.80 841.06 C 735.35 837.05 739.18 833.31 743.00 829.57 C 759.01 829.58 775.04 829.43 791.04 829.62 C 795.56 832.63 799.09 837.17 802.85 841.14 C 802.89 851.77 802.88 862.42 802.86 873.06 C 803.04 874.67 801.77 875.80 800.95 877.03 C 800.83 894.84 800.92 912.65 800.91 930.47 C 813.58 931.20 826.29 930.64 838.97 930.82 C 854.29 930.67 869.61 931.18 884.92 930.44 C 887.87 926.88 891.24 923.69 894.52 920.43 C 896.46 918.42 899.09 916.95 901.96 917.09 C 909.31 917.06 916.67 917.06 924.03 917.11 C 926.89 917.03 929.41 918.71 931.38 920.66 C 934.64 923.86 937.86 927.11 940.92 930.51 C 945.30 930.54 949.67 930.92 954.05 930.83 C 984.75 930.81 1015.45 930.81 1046.14 930.83 C 1046.15 929.23 1046.16 927.63 1046.20 926.05 C 1049.70 921.93 1053.70 918.29 1057.40 914.36 C 1070.81 914.21 1084.23 914.25 1097.64 914.35 C 1101.35 918.28 1105.38 921.93 1108.86 926.10 C 1108.87 927.65 1108.88 929.22 1108.92 930.81 C 1132.26 930.83 1155.60 930.81 1178.95 930.82 C 1198.59 929.87 1219.34 934.34 1234.70 947.21 C 1239.01 950.93 1242.86 955.13 1246.91 959.14 C 1254.17 966.60 1259.36 975.97 1262.00 986.04 L 1262.00 1027.43 C 1258.00 1043.62 1246.15 1056.17 1233.95 1066.83 C 1224.48 1074.52 1212.90 1079.57 1200.83 1081.37 C 1191.98 1083.00 1182.96 1082.33 1174.02 1082.45 C 1090.02 1082.45 1006.02 1082.46 922.02 1082.45 C 918.92 1082.05 916.33 1079.53 913.01 1080.15 C 909.05 1079.36 905.93 1082.70 902.04 1082.20 C 857.35 1082.10 812.65 1082.25 767.97 1082.13 C 762.99 1079.71 757.41 1080.56 752.03 1080.47 C 749.76 1080.23 748.23 1082.54 746.02 1082.45 C 736.34 1082.44 726.66 1082.50 716.98 1082.44 C 699.81 1082.14 682.86 1077.79 667.30 1070.64 C 649.68 1062.96 633.92 1051.32 621.12 1037.00 C 616.85 1031.89 611.73 1027.36 608.66 1021.37 C 606.56 1017.26 606.68 1012.53 606.77 1008.05 C 606.90 1003.06 606.18 997.84 608.05 993.09 C 609.68 989.32 612.28 986.08 614.92 982.98 C 624.99 971.40 636.03 960.42 649.14 952.27 C 652.72 949.64 657.14 948.20 660.23 944.93 C 660.47 943.65 660.08 942.09 661.07 941.10 C 664.01 937.70 667.38 934.71 670.45 931.44 C 679.61 931.64 688.92 930.54 697.96 932.29 C 702.22 932.87 705.75 929.63 710.00 929.92 C 717.91 929.96 725.82 929.89 733.73 929.89 C 733.68 912.37 733.74 894.85 733.70 877.33 C 732.77 876.03 731.46 874.79 731.74 873.04 C 731.75 862.38 731.68 851.72 731.80 841.06 M 710.03 963.01 C 688.36 967.74 667.74 977.53 650.55 991.58 C 645.54 996.10 640.10 1000.60 637.14 1006.82 C 643.90 1017.55 654.44 1025.20 664.98 1031.92 C 685.07 1044.39 708.36 1052.27 732.12 1052.60 C 733.61 1052.62 734.65 1051.32 735.88 1050.67 C 749.61 1050.64 763.35 1050.68 777.08 1050.65 C 779.26 1050.40 780.80 1052.75 783.06 1052.32 C 818.35 1052.29 853.64 1052.30 888.94 1052.31 C 891.28 1052.56 893.19 1050.95 895.20 1050.02 C 906.28 1043.98 920.46 1044.21 931.35 1050.59 C 935.08 1053.11 939.74 1052.52 944.00 1052.59 C 980.29 1052.61 1016.57 1052.54 1052.86 1052.62 C 1052.93 1022.04 1052.94 991.45 1052.86 960.87 C 1014.21 960.87 975.55 960.90 936.90 960.86 C 934.49 962.41 932.32 964.31 929.85 965.76 C 919.78 970.96 907.19 971.24 897.02 966.21 C 893.07 964.33 889.85 960.08 885.07 960.86 C 829.33 960.86 773.59 960.96 717.85 960.81 C 715.54 962.40 712.67 962.41 710.03 963.01 M 1061.92 960.70 C 1062.02 991.35 1061.68 1022.02 1062.09 1052.66 C 1099.07 1052.55 1136.06 1052.64 1173.04 1052.61 C 1179.70 1052.55 1186.47 1053.00 1193.00 1051.31 C 1207.90 1047.96 1221.48 1037.71 1227.51 1023.51 C 1233.04 1010.78 1231.83 995.35 1224.18 983.75 C 1215.13 969.12 1197.93 960.78 1180.96 960.71 C 1141.28 960.65 1101.60 960.67 1061.92 960.70 Z" />
<path fill="#000000" opacity="1.00" d=" M 703.69 981.27 C 710.78 979.92 717.85 978.40 724.98 977.24 C 727.33 976.54 728.87 978.27 730.14 979.96 C 730.14 982.80 730.13 985.64 730.07 988.49 C 734.23 986.88 738.71 987.52 743.06 987.42 C 758.34 987.42 773.64 987.39 788.93 987.43 C 792.92 987.74 795.44 991.30 797.77 994.15 C 801.52 999.26 800.55 1005.92 800.49 1011.86 C 799.64 1017.78 795.48 1023.72 789.76 1025.71 C 772.18 1025.91 754.58 1025.71 736.99 1025.81 C 734.63 1025.89 732.27 1025.55 730.09 1024.70 C 729.71 1028.46 731.79 1034.16 727.15 1036.03 C 719.19 1035.45 711.26 1033.53 703.53 1031.54 C 703.83 1014.79 703.51 998.03 703.69 981.27 M 712.22 989.77 C 712.25 1001.02 712.19 1012.26 712.25 1023.51 C 715.29 1024.04 718.36 1024.55 721.37 1025.29 C 721.37 1012.87 721.40 1000.46 721.35 988.06 C 718.30 988.61 715.26 989.19 712.22 989.77 M 730.13 1000.06 C 730.08 1004.40 730.13 1008.75 730.09 1013.10 C 733.06 1014.99 736.46 1016.45 740.05 1016.39 C 755.05 1016.35 770.06 1016.44 785.06 1016.35 C 794.38 1014.98 794.37 998.42 785.13 996.85 C 770.06 996.79 754.99 996.85 739.92 996.82 C 736.40 996.85 733.08 998.24 730.13 1000.06 Z" />
</g>
<g id="#ffffffff">
<path fill="#ffffff" opacity="1.00" d=" M 268.63 760.52 C 285.49 754.35 305.25 755.78 320.63 765.25 C 327.70 769.62 334.28 775.16 338.59 782.37 C 347.09 796.61 348.68 813.82 347.96 830.07 C 345.85 850.51 339.79 870.27 334.78 890.13 C 326.86 921.22 316.86 951.84 311.35 983.50 C 306.76 1012.97 304.07 1042.71 300.26 1072.28 C 293.81 1072.18 287.35 1072.31 280.90 1072.22 L 280.41 1071.78 C 276.23 1039.12 272.59 1006.37 267.41 973.85 C 261.61 942.98 251.30 913.23 242.99 882.99 C 237.47 862.79 230.83 842.29 231.80 821.08 C 232.29 809.19 234.05 797.08 239.24 786.26 C 244.92 774.06 256.31 765.32 268.63 760.52 Z" />
<path fill="#ffffff" opacity="1.00" d=" M 710.03 963.01 C 712.67 962.41 715.54 962.40 717.85 960.81 C 773.59 960.96 829.33 960.86 885.07 960.86 C 889.85 960.08 893.07 964.33 897.02 966.21 C 907.19 971.24 919.78 970.96 929.85 965.76 C 932.32 964.31 934.49 962.41 936.90 960.86 C 975.55 960.90 1014.21 960.87 1052.86 960.87 C 1052.94 991.45 1052.93 1022.04 1052.86 1052.62 C 1016.57 1052.54 980.29 1052.61 944.00 1052.59 C 939.74 1052.52 935.08 1053.11 931.35 1050.59 C 920.46 1044.21 906.28 1043.98 895.20 1050.02 C 893.19 1050.95 891.28 1052.56 888.94 1052.31 C 853.64 1052.30 818.35 1052.29 783.06 1052.32 C 780.80 1052.75 779.26 1050.40 777.08 1050.65 C 763.35 1050.68 749.61 1050.64 735.88 1050.67 C 734.65 1051.32 733.61 1052.62 732.12 1052.60 C 708.36 1052.27 685.07 1044.39 664.98 1031.92 C 654.44 1025.20 643.90 1017.55 637.14 1006.82 C 640.10 1000.60 645.54 996.10 650.55 991.58 C 667.74 977.53 688.36 967.74 710.03 963.01 M 703.69 981.27 C 703.51 998.03 703.83 1014.79 703.53 1031.54 C 711.26 1033.53 719.19 1035.45 727.15 1036.03 C 731.79 1034.16 729.71 1028.46 730.09 1024.70 C 732.27 1025.55 734.63 1025.89 736.99 1025.81 C 754.58 1025.71 772.18 1025.91 789.76 1025.71 C 795.48 1023.72 799.64 1017.78 800.49 1011.86 C 800.55 1005.92 801.52 999.26 797.77 994.15 C 795.44 991.30 792.92 987.74 788.93 987.43 C 773.64 987.39 758.34 987.42 743.06 987.42 C 738.71 987.52 734.23 986.88 730.07 988.49 C 730.13 985.64 730.14 982.80 730.14 979.96 C 728.87 978.27 727.33 976.54 724.98 977.24 C 717.85 978.40 710.78 979.92 703.69 981.27 Z" />
<path fill="#ffffff" opacity="1.00" d=" M 712.22 989.77 C 715.26 989.19 718.30 988.61 721.35 988.06 C 721.40 1000.46 721.37 1012.87 721.37 1025.29 C 718.36 1024.55 715.29 1024.04 712.25 1023.51 C 712.19 1012.26 712.25 1001.02 712.22 989.77 Z" />
<path fill="#ffffff" opacity="1.00" d=" M 730.13 1000.06 C 733.08 998.24 736.40 996.85 739.92 996.82 C 754.99 996.85 770.06 996.79 785.13 996.85 C 794.37 998.42 794.38 1014.98 785.06 1016.35 C 770.06 1016.44 755.05 1016.35 740.05 1016.39 C 736.46 1016.45 733.06 1014.99 730.09 1013.10 C 730.13 1008.75 730.08 1004.40 730.13 1000.06 Z" />
<path fill="#ffffff" opacity="1.00" d=" M 279.08 1109.21 C 292.18 1107.07 306.17 1108.65 317.87 1115.18 C 332.70 1123.49 344.23 1138.22 347.17 1155.13 C 349.57 1168.81 347.82 1183.53 340.69 1195.61 C 332.54 1209.40 318.83 1220.21 302.99 1223.48 C 287.38 1226.70 270.22 1224.23 257.07 1214.88 C 241.21 1204.09 230.93 1185.31 231.73 1165.97 C 231.02 1138.90 252.50 1113.60 279.08 1109.21 Z" />
</g>
<g id="#dea305ff">
<path fill="#dea305" opacity="1.00" d=" M 1061.92 960.70 C 1101.60 960.67 1141.28 960.65 1180.96 960.71 C 1197.93 960.78 1215.13 969.12 1224.18 983.75 C 1231.83 995.35 1233.04 1010.78 1227.51 1023.51 C 1221.48 1037.71 1207.90 1047.96 1193.00 1051.31 C 1186.47 1053.00 1179.70 1052.55 1173.04 1052.61 C 1136.06 1052.64 1099.07 1052.55 1062.09 1052.66 C 1061.68 1022.02 1062.02 991.35 1061.92 960.70 Z" />
</g>
</svg>
