<?xml version="1.0" encoding="UTF-8" ?>
<!DOCTYPE svg PUBLIC "-//W3C//DTD SVG 1.1//EN" "http://www.w3.org/Graphics/SVG/1.1/DTD/svg11.dtd">
<svg width="1262pt" height="1262pt" viewBox="0 0 1262 1262" version="1.1" xmlns="http://www.w3.org/2000/svg">
<g id="#000000ff">
<path fill="#000000" opacity="1.00" d=" M 42.47 6.68 C 51.80 -0.71 65.58 -1.68 75.85 4.33 C 84.99 9.40 90.89 19.53 91.07 29.95 C 91.17 45.48 85.04 61.03 74.17 72.16 C 63.31 83.52 47.78 90.33 32.05 90.46 C 22.59 90.60 13.05 86.42 7.26 78.84 C -0.13 69.61 -1.20 55.94 4.67 45.67 C 9.76 36.31 20.09 30.34 30.71 30.18 C 31.01 21.12 35.19 12.20 42.47 6.68 Z" />
<path fill="#000000" opacity="1.00" d=" M 232.45 1.61 C 245.00 -2.17 259.53 3.49 266.23 14.76 C 269.86 20.47 270.86 27.36 270.97 34.01 C 270.45 74.56 259.35 114.90 239.12 150.04 C 222.06 179.77 198.55 205.78 170.65 225.70 C 131.09 254.10 82.70 269.99 33.99 270.47 C 25.23 270.07 15.99 267.78 9.80 261.15 C -0.52 251.35 -1.89 233.99 6.49 222.56 C 12.18 214.44 22.07 209.49 31.99 209.94 C 34.65 210.10 37.32 210.41 39.99 210.28 C 73.54 208.65 106.55 197.35 134.06 178.08 C 162.09 158.57 184.33 130.89 197.33 99.31 C 205.59 79.26 210.37 57.69 210.84 35.99 C 210.41 29.76 210.70 23.27 213.58 17.59 C 217.18 9.89 224.26 3.91 232.45 1.61 Z" />
<path fill="#000000" opacity="1.00" d=" M 412.41 1.65 C 424.29 -2.09 438.11 2.51 445.37 12.63 C 448.65 17.09 450.66 22.47 451.09 27.99 C 451.31 89.31 438.20 150.70 412.40 206.37 C 389.81 255.50 357.56 300.16 318.06 337.09 C 252.74 398.55 167.20 438.02 78.05 447.87 C 63.78 449.49 49.42 450.33 35.06 450.50 C 25.78 450.11 15.85 447.81 9.38 440.63 C -1.51 429.93 -1.74 410.80 8.71 399.72 C 15.90 391.45 27.53 388.47 38.09 390.35 C 104.71 389.33 170.83 368.92 226.70 332.67 C 277.78 299.67 320.22 253.46 348.74 199.75 C 376.33 148.06 391.01 89.55 390.99 30.96 C 390.65 17.84 399.76 5.24 412.41 1.65 Z" />
<path fill="#000000" opacity="1.00" d=" M 594.25 1.19 C 607.38 -1.97 622.05 5.01 627.74 17.27 C 631.33 24.27 631.09 32.37 630.93 40.03 C 629.69 122.04 611.34 203.74 577.40 278.40 C 548.46 342.29 508.17 401.01 459.00 451.01 C 413.02 497.86 359.26 537.04 300.62 566.53 C 217.38 608.45 124.26 630.65 31.06 630.46 C 20.72 630.38 10.54 624.85 5.28 615.88 C -1.27 605.22 -0.18 590.43 8.07 580.98 C 12.36 575.89 18.39 572.31 24.91 570.99 C 29.22 570.05 33.65 570.49 38.02 570.45 C 121.84 569.47 205.33 548.50 279.70 509.83 C 337.23 480.03 389.29 439.73 432.58 391.53 C 478.87 340.11 515.10 279.67 538.66 214.61 C 560.28 154.97 571.38 91.49 570.95 28.06 C 571.73 15.25 581.73 3.83 594.25 1.19 Z" />
<path fill="#000000" opacity="1.00" d=" M 252.02 664.21 C 254.68 661.28 257.22 658.23 260.08 655.49 C 282.04 655.59 304.00 655.47 325.95 655.55 C 328.57 655.29 330.07 657.72 331.67 659.36 C 333.48 661.62 336.41 663.64 336.01 666.92 C 335.97 677.66 336.02 688.41 335.98 699.15 C 336.26 702.18 333.87 704.28 332.04 706.32 C 332.02 757.00 332.04 807.69 332.03 858.37 C 340.68 858.50 349.36 857.98 357.98 858.92 C 414.99 858.92 472.01 858.92 529.02 858.91 C 535.07 858.24 541.15 858.32 547.23 858.38 C 552.56 852.61 556.88 845.99 562.32 840.30 C 566.08 835.44 571.59 831.55 577.90 831.29 C 582.93 831.17 587.97 831.29 593.01 831.24 C 599.19 831.04 605.05 834.39 608.98 839.00 C 614.60 845.13 619.70 851.72 624.71 858.36 C 630.81 858.34 636.92 858.23 643.00 858.92 C 716.99 858.92 790.98 858.91 864.98 858.92 C 871.30 859.22 877.57 857.97 883.91 858.38 C 883.70 850.49 884.33 842.57 883.55 834.72 C 886.22 831.68 888.93 828.68 891.63 825.67 C 908.55 825.71 925.47 825.71 942.39 825.67 C 944.85 828.52 947.48 831.23 949.91 834.12 C 950.94 835.16 950.44 836.73 950.62 838.04 C 950.56 844.82 950.59 851.60 950.58 858.38 C 956.73 857.98 962.81 859.18 968.96 858.93 C 1020.96 858.89 1072.96 858.96 1124.96 858.89 C 1146.00 859.82 1167.17 863.67 1186.35 872.64 C 1199.76 877.77 1211.72 886.18 1222.31 895.78 C 1235.62 908.01 1246.28 923.19 1252.97 940.00 C 1264.47 968.46 1263.56 1001.67 1250.50 1029.44 C 1242.32 1044.55 1232.67 1059.27 1219.44 1070.46 C 1192.85 1093.82 1157.00 1104.80 1121.96 1104.47 C 955.29 1104.49 788.62 1104.44 621.94 1104.50 C 615.07 1105.31 609.70 1100.14 603.86 1097.41 C 603.09 1098.21 602.32 1099.02 601.57 1099.85 C 591.32 1099.85 581.08 1099.83 570.83 1099.86 C 570.13 1099.04 569.44 1098.24 568.76 1097.45 C 563.16 1099.47 558.40 1104.52 552.06 1103.81 C 471.34 1103.75 390.63 1103.78 309.91 1103.79 C 306.14 1104.20 303.74 1100.11 300.01 1100.41 C 282.35 1100.44 264.69 1100.43 247.03 1100.42 C 243.89 1100.32 241.76 1103.08 239.21 1104.50 C 226.55 1104.15 213.83 1105.09 201.21 1104.00 C 174.93 1103.20 149.08 1096.88 124.52 1087.74 C 93.31 1075.63 63.56 1058.87 38.54 1036.41 C 30.48 1029.45 24.01 1020.95 16.81 1013.16 C 11.69 1007.79 7.42 1001.64 4.05 995.04 C 2.58 990.83 1.33 986.43 1.07 981.96 C 1.44 976.02 2.64 969.93 5.81 964.80 C 10.25 956.89 16.28 950.05 22.33 943.35 C 42.78 919.37 69.56 901.81 97.12 887.07 C 98.44 886.48 99.78 885.95 101.12 885.41 C 101.53 879.93 105.07 875.66 108.74 871.91 C 108.71 870.16 108.64 868.41 108.77 866.69 C 110.25 864.23 112.47 862.32 114.30 860.13 C 120.43 860.11 126.57 860.14 132.70 860.11 C 133.10 860.52 133.91 861.34 134.31 861.76 C 148.79 861.61 163.28 861.93 177.74 861.61 C 179.38 860.33 181.23 859.41 183.33 859.27 C 186.19 857.44 189.68 857.29 192.97 857.26 C 213.97 857.29 234.97 857.27 255.97 857.27 C 255.95 807.15 255.95 757.04 255.97 706.92 C 254.36 704.89 251.75 703.04 251.99 700.15 C 252.00 688.17 251.97 676.19 252.02 664.21 M 885.89 889.35 C 885.88 950.87 885.88 1012.38 885.89 1073.89 C 966.26 1073.83 1046.63 1073.90 1126.99 1073.86 C 1138.53 1073.94 1150.00 1071.62 1160.86 1067.82 C 1188.40 1058.14 1212.14 1036.11 1221.01 1007.94 C 1227.19 988.71 1226.27 967.27 1218.40 948.66 C 1212.24 934.52 1202.63 921.90 1190.54 912.32 C 1173.15 898.37 1151.12 890.55 1128.89 889.69 C 1120.59 889.12 1112.27 889.46 1103.97 889.37 C 1031.28 889.36 958.58 889.40 885.89 889.35 M 191.02 892.07 C 171.16 894.89 151.69 900.53 133.20 908.28 C 116.10 914.88 99.80 923.42 84.37 933.31 C 70.68 942.30 57.17 951.96 46.10 964.13 C 40.39 968.86 36.06 975.20 32.59 981.73 C 37.92 991.18 45.35 999.26 53.43 1006.43 C 62.08 1014.16 71.26 1021.35 81.04 1027.62 C 100.94 1040.89 122.46 1051.78 145.08 1059.59 C 168.02 1067.59 192.08 1073.00 216.43 1073.52 C 220.99 1074.12 226.43 1074.66 229.61 1070.56 C 231.06 1070.26 232.52 1070.07 234.01 1070.10 C 260.69 1070.12 287.37 1070.13 314.06 1070.10 C 317.13 1069.73 319.50 1071.97 322.02 1073.33 C 395.38 1073.33 468.73 1073.39 542.09 1073.30 C 549.76 1069.52 557.13 1064.91 565.53 1062.85 C 577.06 1059.18 589.43 1059.62 601.25 1061.41 C 609.02 1063.32 616.93 1065.76 623.63 1070.21 C 631.57 1075.08 641.13 1073.60 649.97 1073.83 C 722.51 1073.82 795.05 1073.83 867.59 1073.82 C 867.55 1012.50 867.64 951.17 867.55 889.84 C 789.77 889.86 711.98 889.83 634.20 889.86 C 629.82 892.99 625.54 896.29 621.05 899.28 C 608.77 905.57 594.73 908.91 580.92 907.38 C 574.35 907.20 567.85 905.89 561.71 903.57 C 552.63 900.94 545.71 894.04 537.37 889.92 C 422.60 889.73 307.81 889.92 193.03 889.83 C 192.36 890.57 191.69 891.31 191.02 892.07 Z" />
<path fill="#000000" opacity="1.00" d=" M 197.24 924.75 C 202.15 923.85 207.01 922.26 212.06 922.61 C 215.39 922.34 217.39 925.70 219.01 928.12 C 219.61 933.85 218.97 939.66 219.08 945.43 C 222.57 944.09 226.25 943.09 230.01 943.13 C 265.73 943.16 301.45 943.13 337.17 943.14 C 343.32 943.32 348.00 947.96 351.67 952.41 C 357.09 957.81 360.22 965.26 360.77 972.84 C 360.87 977.55 360.75 982.27 360.81 986.99 C 361.09 995.17 358.34 1003.62 352.73 1009.66 C 349.60 1013.15 346.63 1017.13 342.13 1018.93 C 338.69 1020.71 334.75 1020.12 331.04 1020.20 C 297.36 1020.19 263.67 1020.20 229.99 1020.20 C 226.25 1020.11 222.59 1019.12 219.09 1017.87 C 219.10 1022.91 219.29 1027.95 219.25 1033.00 C 219.55 1035.52 217.55 1037.32 216.00 1039.00 C 213.85 1041.61 210.13 1040.48 207.21 1040.48 C 193.46 1037.98 179.77 1035.18 166.12 1032.17 C 166.12 998.38 166.13 964.58 166.12 930.79 C 176.47 928.66 186.86 926.73 197.24 924.75 M 183.32 947.78 C 183.32 970.35 183.34 992.91 183.32 1015.48 C 189.46 1016.60 195.59 1017.81 201.73 1018.92 C 201.72 994.04 201.70 969.17 201.74 944.29 C 195.61 945.51 189.47 946.67 183.32 947.78 M 219.10 968.86 C 219.35 977.43 218.81 986.05 219.36 994.60 C 224.81 998.43 231.33 1000.92 238.00 1001.28 C 267.99 1001.28 297.97 1001.27 327.96 1001.29 C 330.29 1001.40 332.57 1000.69 334.61 999.61 C 340.98 996.74 342.51 988.99 343.79 982.83 C 343.84 976.99 341.68 971.14 338.48 966.30 C 335.12 963.26 330.57 961.54 326.03 961.91 C 298.33 961.94 270.64 961.92 242.95 961.92 C 234.49 961.37 225.95 963.89 219.10 968.86 Z" />
</g>
<g id="#dea305ff">
<path fill="#dea305" opacity="1.00" d=" M 885.89 889.35 C 958.58 889.40 1031.28 889.36 1103.97 889.37 C 1112.27 889.46 1120.59 889.12 1128.89 889.69 C 1151.12 890.55 1173.15 898.37 1190.54 912.32 C 1202.63 921.90 1212.24 934.52 1218.40 948.66 C 1226.27 967.27 1227.19 988.71 1221.01 1007.94 C 1212.14 1036.11 1188.40 1058.14 1160.86 1067.82 C 1150.00 1071.62 1138.53 1073.94 1126.99 1073.86 C 1046.63 1073.90 966.26 1073.83 885.89 1073.89 C 885.88 1012.38 885.88 950.87 885.89 889.35 Z" />
</g>
<g id="#ffffffff">
<path fill="#ffffff" opacity="1.00" d=" M 191.02 892.07 C 191.69 891.31 192.36 890.57 193.03 889.83 C 307.81 889.92 422.60 889.73 537.37 889.92 C 545.71 894.04 552.63 900.94 561.71 903.57 C 567.85 905.89 574.35 907.20 580.92 907.38 C 594.73 908.91 608.77 905.57 621.05 899.28 C 625.54 896.29 629.82 892.99 634.20 889.86 C 711.98 889.83 789.77 889.86 867.55 889.84 C 867.64 951.17 867.55 1012.50 867.59 1073.82 C 795.05 1073.83 722.51 1073.82 649.97 1073.83 C 641.13 1073.60 631.57 1075.08 623.63 1070.21 C 616.93 1065.76 609.02 1063.32 601.25 1061.41 C 589.43 1059.62 577.06 1059.18 565.53 1062.85 C 557.13 1064.91 549.76 1069.52 542.09 1073.30 C 468.73 1073.39 395.38 1073.33 322.02 1073.33 C 319.50 1071.97 317.13 1069.73 314.06 1070.10 C 287.37 1070.13 260.69 1070.12 234.01 1070.10 C 232.52 1070.07 231.06 1070.26 229.61 1070.56 C 226.43 1074.66 220.99 1074.12 216.43 1073.52 C 192.08 1073.00 168.02 1067.59 145.08 1059.59 C 122.46 1051.78 100.94 1040.89 81.04 1027.62 C 71.26 1021.35 62.08 1014.16 53.43 1006.43 C 45.35 999.26 37.92 991.18 32.59 981.73 C 36.06 975.20 40.39 968.86 46.10 964.13 C 57.17 951.96 70.68 942.30 84.37 933.31 C 99.80 923.42 116.10 914.88 133.20 908.28 C 151.69 900.53 171.16 894.89 191.02 892.07 M 197.24 924.75 C 186.86 926.73 176.47 928.66 166.12 930.79 C 166.13 964.58 166.12 998.38 166.12 1032.17 C 179.77 1035.18 193.46 1037.98 207.21 1040.48 C 210.13 1040.48 213.85 1041.61 216.00 1039.00 C 217.55 1037.32 219.55 1035.52 219.25 1033.00 C 219.29 1027.95 219.10 1022.91 219.09 1017.87 C 222.59 1019.12 226.25 1020.11 229.99 1020.20 C 263.67 1020.20 297.36 1020.19 331.04 1020.20 C 334.75 1020.12 338.69 1020.71 342.13 1018.93 C 346.63 1017.13 349.60 1013.15 352.73 1009.66 C 358.34 1003.62 361.09 995.17 360.81 986.99 C 360.75 982.27 360.87 977.55 360.77 972.84 C 360.22 965.26 357.09 957.81 351.67 952.41 C 348.00 947.96 343.32 943.32 337.17 943.14 C 301.45 943.13 265.73 943.16 230.01 943.13 C 226.25 943.09 222.57 944.09 219.08 945.43 C 218.97 939.66 219.61 933.85 219.01 928.12 C 217.39 925.70 215.39 922.34 212.06 922.61 C 207.01 922.26 202.15 923.85 197.24 924.75 Z" />
<path fill="#ffffff" opacity="1.00" d=" M 183.32 947.78 C 189.47 946.67 195.61 945.51 201.74 944.29 C 201.70 969.17 201.72 994.04 201.73 1018.92 C 195.59 1017.81 189.46 1016.60 183.32 1015.48 C 183.34 992.91 183.32 970.35 183.32 947.78 Z" />
<path fill="#ffffff" opacity="1.00" d=" M 219.10 968.86 C 225.95 963.89 234.49 961.37 242.95 961.92 C 270.64 961.92 298.33 961.94 326.03 961.91 C 330.57 961.54 335.12 963.26 338.48 966.30 C 341.68 971.14 343.84 976.99 343.79 982.83 C 342.51 988.99 340.98 996.74 334.61 999.61 C 332.57 1000.69 330.29 1001.40 327.96 1001.29 C 297.97 1001.27 267.99 1001.28 238.00 1001.28 C 231.33 1000.92 224.81 998.43 219.36 994.60 C 218.81 986.05 219.35 977.43 219.10 968.86 Z" />
</g>
</svg>
