<?xml version="1.0" encoding="UTF-8"?>
<!-- Svg Vector Icons : http://www.onlinewebfonts.com/icon -->
<!DOCTYPE svg PUBLIC "-//W3C//DTD SVG 1.1//EN" "http://www.w3.org/Graphics/SVG/1.1/DTD/svg11.dtd">
<svg version="1.1" xmlns="http://www.w3.org/2000/svg" xmlns:xlink="http://www.w3.org/1999/xlink" x="0px" y="0px" viewBox="0 0 1000 1000" enable-background="new 0 0 1000 1000" xml:space="preserve">
<metadata> Svg Vector Icons : http://www.onlinewebfonts.com/icon </metadata>
<g><g><path d="M944.7,611.8C925,810.3,764.1,969.9,565.4,988.2C330.5,1009.8,130.2,837.1,107,612.6H65.6c-25.2,0-40.9-27.2-28.3-49l92.6-160.3c12.6-21.8,44-21.8,56.6,0l92.6,160.3c12.6,21.8-3.1,49-28.3,49h-36C238.1,780.2,394.1,905.9,573,879.7c132.4-19.4,239.7-123.8,262.2-255.7C869,426.5,717.1,254.7,525.8,254.7c-62,0-121.9,18-173.3,52.1c-23.9,15.8-56.9,12.7-74.5-10c-19.1-24.7-13.1-59.9,12.3-77c55.2-37.3,117.7-60.6,183.2-68.7V90.4h-42.9c-14.8,0-26.7-12-26.7-26.7V36.7c0-14.8,12-26.7,26.7-26.7h198.9c14.8,0,26.7,12,26.7,26.7v26.9c0,14.8-12,26.7-26.7,26.7h-47.2v61.4C801.5,181.3,967.7,380,944.7,611.8z M958.6,207.4L878,132.9c-10.8-10-27.7-9.4-37.8,1.5l-21.3,23.1c-10,10.8-9.4,27.7,1.5,37.8l80.6,74.5c10.8,10,27.7,9.4,37.8-1.5l21.3-23.1C970.1,234.3,969.4,217.4,958.6,207.4z M524.5,309.7V571h258.7C783.2,411.8,662.5,309.7,524.5,309.7z"/></g><g/><g/><g/><g/><g/><g/><g/><g/><g/><g/><g/><g/><g/><g/><g/></g>
</svg>