<?xml version="1.0" encoding="UTF-8" ?>
<!DOCTYPE svg PUBLIC "-//W3C//DTD SVG 1.1//EN" "http://www.w3.org/Graphics/SVG/1.1/DTD/svg11.dtd">
<svg width="1213pt" height="1213pt" viewBox="0 0 1213 1213" version="1.1" xmlns="http://www.w3.org/2000/svg">
<g id="#020101ff">
<path fill="#020101" opacity="1.00" d=" M 112.01 0.00 L 135.74 0.00 C 164.79 2.78 192.73 16.02 213.05 36.99 C 237.30 61.55 250.38 96.55 248.33 131.00 C 324.23 131.01 400.13 130.98 476.03 131.01 C 499.39 130.35 523.01 128.60 545.47 121.67 C 554.63 118.74 564.02 115.69 571.77 109.78 C 586.00 100.49 599.04 89.46 613.68 80.76 C 646.14 60.91 682.85 48.22 720.54 43.19 C 742.22 40.10 764.16 40.49 785.99 40.72 C 857.34 42.41 927.43 70.89 980.31 118.69 C 1001.08 137.99 1021.08 158.42 1036.96 182.03 C 1049.52 199.95 1059.04 219.91 1065.41 240.82 C 1070.08 253.37 1072.23 266.64 1073.99 279.87 C 1076.44 294.78 1077.32 309.89 1078.08 324.97 C 1077.81 337.63 1077.51 350.34 1076.03 362.93 C 1073.87 375.46 1072.59 388.43 1067.05 400.06 C 1064.65 404.67 1060.10 407.85 1055.09 409.02 C 1085.04 435.55 1111.88 465.66 1134.11 498.97 C 1180.71 568.29 1208.02 650.56 1211.34 734.06 C 1212.97 756.35 1211.46 778.72 1209.51 800.94 C 1201.17 883.78 1169.60 964.11 1119.34 1030.48 C 1073.44 1091.57 1011.91 1140.70 942.37 1172.31 C 903.27 1190.14 861.66 1202.39 819.17 1208.80 C 808.23 1210.67 797.11 1211.11 786.18 1213.00 L 715.13 1213.00 C 706.44 1211.37 697.57 1211.11 688.85 1209.77 C 609.66 1199.17 533.38 1167.66 469.93 1119.09 C 445.57 1100.41 422.89 1079.44 402.83 1056.20 C 401.68 1059.03 400.41 1061.93 398.11 1064.04 C 394.47 1067.79 389.22 1069.06 384.43 1070.66 C 378.13 1072.74 371.53 1073.59 365.01 1074.69 C 350.53 1077.58 335.69 1077.48 321.00 1078.11 C 308.14 1077.64 295.27 1076.81 282.50 1075.24 C 268.26 1073.06 253.77 1071.71 240.03 1067.14 C 228.52 1063.25 216.78 1059.84 205.97 1054.20 C 194.06 1048.97 183.09 1041.91 172.46 1034.48 C 158.92 1024.92 146.17 1014.24 134.40 1002.58 C 125.55 993.77 116.60 985.02 108.48 975.52 C 71.12 932.34 46.20 878.47 37.86 821.96 C 34.44 800.47 34.42 778.67 34.63 756.97 C 35.02 700.82 52.22 644.63 84.88 598.79 C 92.92 587.81 101.10 576.88 108.25 565.28 C 121.14 538.15 124.06 507.65 125.01 478.00 C 124.98 401.51 125.02 325.02 124.99 248.53 C 95.59 248.79 66.24 238.25 43.80 219.24 C 19.06 198.60 3.14 168.02 0.00 135.99 L 0.00 112.24 C 2.77 83.46 15.79 55.76 36.44 35.49 C 56.56 15.41 83.77 2.82 112.01 0.00 M 78.33 42.41 C 59.62 52.83 44.71 69.90 36.95 89.87 C 29.43 108.90 28.46 130.42 34.20 150.05 C 40.22 171.05 53.92 189.71 72.12 201.79 C 87.63 212.20 106.32 217.69 124.99 217.52 C 125.03 198.50 124.96 179.47 125.03 160.44 C 128.47 157.06 131.85 153.63 135.28 150.23 C 138.74 150.25 142.20 150.25 145.66 150.27 C 145.67 147.27 145.67 144.26 145.65 141.26 C 149.08 137.84 152.49 134.41 155.93 131.00 C 176.37 130.99 196.82 131.01 217.27 130.99 C 219.28 104.94 209.80 78.23 191.61 59.44 C 177.06 44.07 157.10 33.97 136.12 31.29 C 116.32 28.66 95.73 32.61 78.33 42.41 M 742.94 61.98 C 700.73 65.72 659.30 79.04 623.17 101.25 C 608.79 109.88 595.91 120.70 581.89 129.88 C 574.14 135.76 564.77 138.81 555.61 141.75 C 534.05 148.40 511.41 150.31 488.97 151.00 C 407.83 151.00 326.69 150.99 245.55 151.01 C 242.24 165.95 236.07 180.20 227.70 193.00 C 222.49 188.92 215.69 186.92 209.10 187.64 C 199.95 188.48 191.60 194.69 188.05 203.15 C 184.42 211.48 185.72 221.64 191.23 228.86 C 177.17 237.74 161.41 243.91 145.01 246.75 C 144.99 321.51 145.01 396.27 145.00 471.02 C 145.31 501.14 143.96 531.87 134.29 560.66 C 132.03 566.97 129.90 573.44 126.14 579.05 C 120.00 588.18 113.70 597.21 107.08 606.01 C 72.71 652.86 54.79 711.01 54.79 768.97 C 54.82 811.41 64.06 853.80 81.61 892.44 C 107.72 950.41 152.52 999.92 208.07 1030.98 C 262.73 1061.80 328.07 1074.23 390.01 1062.98 C 393.29 1062.20 396.22 1059.78 397.36 1056.58 C 400.04 1049.99 392.75 1042.22 386.01 1044.17 C 353.87 1050.54 320.26 1047.08 289.36 1036.63 C 257.93 1026.06 229.08 1008.53 204.13 986.81 C 154.94 943.77 120.26 884.45 106.78 820.50 C 97.74 777.25 98.63 731.30 113.47 689.42 C 118.22 676.32 123.96 663.44 131.99 651.99 C 137.98 643.37 144.08 634.81 150.68 626.65 C 163.03 611.38 172.10 593.77 179.71 575.75 C 193.85 540.85 202.16 503.57 204.45 465.99 C 204.56 389.99 204.47 313.98 204.50 237.98 C 209.44 239.40 214.83 239.34 219.73 237.74 C 231.06 234.26 238.84 222.23 237.37 210.46 C 312.93 210.55 388.48 210.49 464.04 210.48 C 481.91 209.69 499.67 207.09 517.17 203.42 C 552.43 195.77 587.30 183.68 617.33 163.30 C 635.29 150.07 652.35 135.03 672.95 125.94 C 706.02 110.80 742.99 105.30 779.14 107.36 C 820.35 109.69 860.81 121.55 897.37 140.57 C 950.38 168.14 996.09 211.17 1023.28 264.69 C 1043.02 303.59 1052.24 348.87 1043.64 392.06 C 1041.99 398.15 1047.77 404.73 1054.04 403.86 C 1058.51 403.35 1062.04 399.44 1062.71 395.08 C 1069.88 353.70 1066.89 310.69 1054.60 270.56 C 1037.79 214.99 1003.42 165.15 958.37 128.66 C 898.68 79.92 819.83 54.87 742.94 61.98 M 680.99 147.03 C 665.55 154.05 652.18 164.69 638.70 174.81 C 625.12 186.28 609.46 194.95 593.36 202.33 C 572.76 211.65 551.03 218.29 528.96 223.14 C 509.90 227.19 490.55 230.24 471.04 230.71 C 399.56 230.28 328.07 230.61 256.58 230.49 C 253.96 239.31 246.21 244.79 240.20 251.21 C 236.06 255.55 230.39 258.10 224.50 258.96 C 224.51 321.98 224.49 385.00 224.51 448.02 C 225.01 464.02 224.95 480.08 222.89 495.99 C 218.77 527.72 211.12 559.13 198.63 588.65 C 191.19 605.65 182.54 622.33 170.75 636.76 C 165.20 643.61 160.08 650.80 154.96 657.97 C 147.66 667.83 141.87 678.72 137.24 690.06 C 128.47 711.34 123.29 734.04 121.74 757.00 C 120.82 766.18 121.92 775.40 122.83 784.54 C 130.33 849.01 159.96 910.43 204.60 957.39 C 215.03 967.34 226.27 976.39 237.01 985.99 C 243.35 991.11 250.22 995.54 257.15 999.83 C 296.14 1024.32 342.04 1036.24 387.80 1038.25 C 370.49 1016.24 355.12 992.70 342.10 967.91 C 309.36 905.89 291.16 836.24 289.43 766.14 C 288.63 753.43 289.60 740.72 290.00 728.02 C 293.24 671.89 306.85 616.34 330.13 565.14 C 358.80 501.76 402.13 445.05 455.81 400.81 C 519.34 348.05 597.36 313.06 678.94 300.37 C 703.79 296.54 728.88 294.77 754.00 294.51 C 764.33 295.28 774.74 295.02 785.04 296.17 C 876.83 302.71 966.33 337.76 1038.27 395.13 C 1037.24 369.23 1033.11 343.39 1025.30 318.64 C 1016.88 291.81 1003.69 266.51 986.84 244.02 C 977.14 233.07 967.88 221.72 957.85 211.06 C 935.68 189.81 910.20 172.03 882.73 158.33 C 846.13 140.15 805.85 128.91 764.94 127.37 C 736.05 128.34 707.19 134.70 680.99 147.03 M 165.63 151.01 C 174.67 163.14 183.91 175.12 192.84 187.32 C 202.33 176.95 209.44 164.47 213.54 151.02 C 197.57 150.98 181.60 150.99 165.63 151.01 M 145.00 170.22 C 145.01 185.20 144.96 200.17 145.03 215.15 C 159.60 211.74 173.28 204.81 184.72 195.18 C 171.47 186.87 158.25 178.52 145.00 170.22 M 723.10 375.94 C 639.84 381.67 558.84 415.89 496.73 471.64 C 604.67 535.28 712.78 598.62 820.78 662.17 C 824.30 664.30 828.19 666.01 830.95 669.18 C 833.76 672.31 837.25 674.86 839.56 678.43 C 904.43 787.98 969.50 897.42 1034.43 1006.94 C 1082.70 953.57 1114.97 885.97 1126.44 814.94 C 1132.92 774.98 1132.95 733.98 1126.51 694.01 C 1116.34 630.52 1089.54 569.80 1049.57 519.44 C 1018.89 480.61 980.50 447.90 937.33 423.72 C 872.65 387.25 797.14 370.44 723.10 375.94 M 481.34 488.69 C 548.34 599.73 615.01 710.99 681.86 822.13 L 682.73 821.18 C 682.50 821.59 682.02 822.40 681.78 822.81 C 687.92 826.87 694.40 830.37 700.69 834.20 C 806.20 896.60 911.65 959.10 1017.15 1021.51 C 977.24 954.19 937.31 886.87 897.41 819.55 C 876.68 784.81 856.34 749.81 835.37 715.23 C 829.88 705.89 824.41 696.53 818.78 687.28 C 815.86 684.66 812.08 683.17 808.82 681.02 C 699.65 616.92 590.57 552.66 481.34 488.69 M 389.56 633.81 C 368.81 695.07 364.37 761.67 376.52 825.17 C 388.39 887.43 416.21 946.56 456.66 995.35 C 471.00 1012.90 487.25 1028.79 504.23 1043.75 C 511.40 1049.25 518.31 1055.10 525.70 1060.33 C 559.91 1085.34 598.36 1104.51 638.88 1116.91 C 684.39 1130.90 732.52 1136.11 779.99 1132.48 C 823.05 1129.17 865.56 1118.48 905.05 1100.97 C 940.47 1085.36 973.37 1064.17 1002.52 1038.74 C 893.30 974.23 784.22 909.48 675.02 844.95 C 671.11 842.63 668.41 838.86 665.07 835.87 C 662.00 833.14 660.25 829.38 658.13 825.96 C 593.58 718.63 529.16 611.22 464.52 503.94 C 431.27 541.70 405.52 586.08 389.56 633.81 Z" />
</g>
<g id="#817878ff">
<path fill="#817878" opacity="1.00" d=" M 742.94 61.98 C 819.83 54.87 898.68 79.92 958.37 128.66 C 1003.42 165.15 1037.79 214.99 1054.60 270.56 C 1066.89 310.69 1069.88 353.70 1062.71 395.08 C 1062.04 399.44 1058.51 403.35 1054.04 403.86 C 1047.77 404.73 1041.99 398.15 1043.64 392.06 C 1052.24 348.87 1043.02 303.59 1023.28 264.69 C 996.09 211.17 950.38 168.14 897.37 140.57 C 860.81 121.55 820.35 109.69 779.14 107.36 C 742.99 105.30 706.02 110.80 672.95 125.94 C 652.35 135.03 635.29 150.07 617.33 163.30 C 587.30 183.68 552.43 195.77 517.17 203.42 C 499.67 207.09 481.91 209.69 464.04 210.48 C 388.48 210.49 312.93 210.55 237.37 210.46 C 236.60 203.65 233.08 197.25 227.70 193.00 C 236.07 180.20 242.24 165.95 245.55 151.01 C 326.69 150.99 407.83 151.00 488.97 151.00 C 511.41 150.31 534.05 148.40 555.61 141.75 C 564.77 138.81 574.14 135.76 581.89 129.88 C 595.91 120.70 608.79 109.88 623.17 101.25 C 659.30 79.04 700.73 65.72 742.94 61.98 Z" />
<path fill="#817878" opacity="1.00" d=" M 165.63 151.01 C 181.60 150.99 197.57 150.98 213.54 151.02 C 209.44 164.47 202.33 176.95 192.84 187.32 C 183.91 175.12 174.67 163.14 165.63 151.01 Z" />
<path fill="#817878" opacity="1.00" d=" M 145.00 170.22 C 158.25 178.52 171.47 186.87 184.72 195.18 C 173.28 204.81 159.60 211.74 145.03 215.15 C 144.96 200.17 145.01 185.20 145.00 170.22 Z" />
<path fill="#817878" opacity="1.00" d=" M 145.01 246.75 C 161.41 243.91 177.17 237.74 191.23 228.86 C 194.55 233.21 199.27 236.37 204.50 237.98 C 204.47 313.98 204.56 389.99 204.45 465.99 C 202.16 503.57 193.85 540.85 179.71 575.75 C 172.10 593.77 163.03 611.38 150.68 626.65 C 144.08 634.81 137.98 643.37 131.99 651.99 C 123.96 663.44 118.22 676.32 113.47 689.42 C 98.63 731.30 97.74 777.25 106.78 820.50 C 120.26 884.45 154.94 943.77 204.13 986.81 C 229.08 1008.53 257.93 1026.06 289.36 1036.63 C 320.26 1047.08 353.87 1050.54 386.01 1044.17 C 392.75 1042.22 400.04 1049.99 397.36 1056.58 C 396.22 1059.78 393.29 1062.20 390.01 1062.98 C 328.07 1074.23 262.73 1061.80 208.07 1030.98 C 152.52 999.92 107.72 950.41 81.61 892.44 C 64.06 853.80 54.82 811.41 54.79 768.97 C 54.79 711.01 72.71 652.86 107.08 606.01 C 113.70 597.21 120.00 588.18 126.14 579.05 C 129.90 573.44 132.03 566.97 134.29 560.66 C 143.96 531.87 145.31 501.14 145.00 471.02 C 145.01 396.27 144.99 321.51 145.01 246.75 Z" />
</g>
<g id="#f7b618ff">
<path fill="#f7b618" opacity="1.00" d=" M 188.05 203.15 C 191.60 194.69 199.95 188.48 209.10 187.64 C 215.69 186.92 222.49 188.92 227.70 193.00 C 233.08 197.25 236.60 203.65 237.37 210.46 C 238.84 222.23 231.06 234.26 219.73 237.74 C 214.83 239.34 209.44 239.40 204.50 237.98 C 199.27 236.37 194.55 233.21 191.23 228.86 C 185.72 221.64 184.42 211.48 188.05 203.15 Z" />
</g>
<g id="#a5cde7ff">
<path fill="#a5cde7" opacity="1.00" d=" M 723.10 375.94 C 797.14 370.44 872.65 387.25 937.33 423.72 C 980.50 447.90 1018.89 480.61 1049.57 519.44 C 1089.54 569.80 1116.34 630.52 1126.51 694.01 C 1132.95 733.98 1132.92 774.98 1126.44 814.94 C 1114.97 885.97 1082.70 953.57 1034.43 1006.94 C 969.50 897.42 904.43 787.98 839.56 678.43 C 837.25 674.86 833.76 672.31 830.95 669.18 C 828.19 666.01 824.30 664.30 820.78 662.17 C 712.78 598.62 604.67 535.28 496.73 471.64 C 558.84 415.89 639.84 381.67 723.10 375.94 Z" />
<path fill="#a5cde7" opacity="1.00" d=" M 389.56 633.81 C 405.52 586.08 431.27 541.70 464.52 503.94 C 529.16 611.22 593.58 718.63 658.13 825.96 C 660.25 829.38 662.00 833.14 665.07 835.87 C 668.41 838.86 671.11 842.63 675.02 844.95 C 784.22 909.48 893.30 974.23 1002.52 1038.74 C 973.37 1064.17 940.47 1085.36 905.05 1100.97 C 865.56 1118.48 823.05 1129.17 779.99 1132.48 C 732.52 1136.11 684.39 1130.90 638.88 1116.91 C 598.36 1104.51 559.91 1085.34 525.70 1060.33 C 518.31 1055.10 511.40 1049.25 504.23 1043.75 C 487.25 1028.79 471.00 1012.90 456.66 995.35 C 416.21 946.56 388.39 887.43 376.52 825.17 C 364.37 761.67 368.81 695.07 389.56 633.81 Z" />
</g>
<g id="#ffffffff">
<path fill="#ffffff" opacity="1.00" d=" M 481.34 488.69 C 590.57 552.66 699.65 616.92 808.82 681.02 C 812.08 683.17 815.86 684.66 818.78 687.28 C 824.41 696.53 829.88 705.89 835.37 715.23 C 832.31 711.66 830.24 707.43 827.82 703.45 C 824.53 697.85 821.12 692.31 817.79 686.73 C 811.30 692.24 805.67 698.65 799.52 704.53 C 760.63 743.45 721.55 782.19 682.73 821.18 L 681.86 822.13 C 615.01 710.99 548.34 599.73 481.34 488.69 Z" />
</g>
<g id="#e65f5aff">
<path fill="#e65f5a" opacity="1.00" d=" M 799.52 704.53 C 805.67 698.65 811.30 692.24 817.79 686.73 C 821.12 692.31 824.53 697.85 827.82 703.45 C 830.24 707.43 832.31 711.66 835.37 715.23 C 856.34 749.81 876.68 784.81 897.41 819.55 C 937.31 886.87 977.24 954.19 1017.15 1021.51 C 911.65 959.10 806.20 896.60 700.69 834.20 C 694.40 830.37 687.92 826.87 681.78 822.81 C 682.02 822.40 682.50 821.59 682.73 821.18 C 721.55 782.19 760.63 743.45 799.52 704.53 Z" />
</g>
</svg>
