<?xml version="1.0" standalone="no"?>
<!DOCTYPE svg PUBLIC "-//W3C//DTD SVG 20010904//EN"
 "http://www.w3.org/TR/2001/REC-SVG-20010904/DTD/svg10.dtd">
<svg version="1.0" xmlns="http://www.w3.org/2000/svg"
 width="300.000000pt" height="300.000000pt" viewBox="0 0 300.000000 300.000000"
 preserveAspectRatio="xMidYMid meet">
<metadata>
Created by potrace 1.14, written by Peter Selinger 2001-2017
</metadata>
<g transform="translate(0.000000,300.000000) scale(0.100000,-0.100000)"
fill="#000000" stroke="none">
<path d="M1360 2874 c-328 -42 -605 -175 -831 -400 -195 -194 -321 -428 -381
-707 -30 -145 -30 -389 0 -534 41 -189 105 -342 211 -503 69 -106 259 -297
361 -365 164 -109 346 -184 535 -221 122 -24 367 -24 489 0 273 53 508 174
704 360 124 119 210 235 282 381 109 221 144 372 144 615 0 243 -32 383 -138
605 -184 383 -555 668 -979 750 -80 16 -328 28 -397 19z m-360 -569 l0 -135
435 0 435 0 -2 -227 -3 -228 -430 0 -430 0 -5 -133 -5 -134 -245 246 c-135
136 -247 249 -250 252 -5 6 481 494 492 494 5 0 8 -61 8 -135z m1255 -1004
c135 -134 245 -246 245 -249 0 -9 -484 -492 -492 -492 -5 0 -8 61 -8 135 l0
135 -435 0 -435 0 0 230 0 230 435 0 435 0 0 132 c0 72 2 129 5 127 2 -2 115
-114 250 -248z"/>
</g>
</svg>
