<?xml version="1.0" encoding="UTF-8" standalone="no"?>
<svg
   xmlns:dc="http://purl.org/dc/elements/1.1/"
   xmlns:cc="http://creativecommons.org/ns#"
   xmlns:rdf="http://www.w3.org/1999/02/22-rdf-syntax-ns#"
   xmlns:svg="http://www.w3.org/2000/svg"
   xmlns="http://www.w3.org/2000/svg"
   xmlns:xlink="http://www.w3.org/1999/xlink"
   xmlns:sodipodi="http://sodipodi.sourceforge.net/DTD/sodipodi-0.dtd"
   xmlns:inkscape="http://www.inkscape.org/namespaces/inkscape"
   version="1.0"
   width="512.000000pt"
   height="512.000000pt"
   viewBox="0 0 512.000000 512.000000"
   preserveAspectRatio="xMidYMid meet"
   id="svg3452"
   inkscape:version="0.91 r13725"
   sodipodi:docname="goto.svg">
  <defs
     id="defs3484">
    <linearGradient
       y2="21"
       x2="23"
       y1="15"
       x1="23"
       gradientTransform="matrix(18.443801,0,0,18.443801,-829.31257,206.99918)"
       gradientUnits="userSpaceOnUse"
       id="linearGradient3882"
       xlink:href="#linearGradient4137-8-4"
       inkscape:collect="always" />
    <linearGradient
       id="linearGradient4137-8-4">
      <stop
         id="stop4139-56-5"
         style="stop-color:#555753;stop-opacity:1"
         offset="0" />
      <stop
         id="stop4141-3-2"
         style="stop-color:#555753;stop-opacity:0"
         offset="1" />
    </linearGradient>
  </defs>
  <sodipodi:namedview
     pagecolor="#ffffff"
     bordercolor="#666666"
     borderopacity="1"
     objecttolerance="10"
     gridtolerance="10"
     guidetolerance="10"
     inkscape:pageopacity="0"
     inkscape:pageshadow="2"
     inkscape:window-width="1855"
     inkscape:window-height="1056"
     id="namedview3482"
     showgrid="false"
     inkscape:zoom="0.39056601"
     inkscape:cx="-507.47408"
     inkscape:cy="360.6845"
     inkscape:window-x="65"
     inkscape:window-y="24"
     inkscape:window-maximized="1"
     inkscape:current-layer="svg3452" />
  <metadata
     id="metadata3454">
Created by potrace 1.14, written by Peter Selinger 2001-2017
<rdf:RDF>
  <cc:Work
     rdf:about="">
    <dc:format>image/svg+xml</dc:format>
    <dc:type
       rdf:resource="http://purl.org/dc/dcmitype/StillImage" />
    <dc:title />
  </cc:Work>
</rdf:RDF>
</metadata>
  <path
     style="fill:#000000;stroke:none"
     inkscape:connector-curvature="0"
     id="path3458"
     d="M 140.3,1.4 C 90,11 50.6,58 48.3,111 c -0.9,21.1 3.3,37.2 16.7,64.5 20.9,42.5 63.2,93.9 85.7,104.2 4.3,2 5.8,2.2 8.7,1.5 5.7,-1.6 14.4,-8.1 26,-19.2 36.9,-35.5 70.1,-89.3 78.2,-126.7 2.2,-10.3 2.2,-28.2 0,-39.6 -8.7,-45 -42.1,-82 -83.9,-92.8 -10.5,-2.7 -29.3,-3.4 -39.4,-1.5 z m 34.1,38.1 c 23.5,6.2 42.9,25.6 49.3,49.6 2.6,9.8 2.4,26.4 -0.6,35.9 -3.8,12.5 -8.7,20.6 -17.6,29.5 -13.9,13.8 -26.2,19.3 -45.1,20.2 -13.7,0.7 -23.1,-1.2 -34.2,-6.7 C 111.6,160.6 101.4,150.2 94.4,135.6 89.4,125.2 87.7,116 88.3,102.7 89.1,83.8 94.7,71.3 108.5,57.5 119,47 131,40.7 145.8,38 c 6.4,-1.2 21.4,-0.4 28.6,1.5 z" />
  <path
     style="fill:#000000;stroke:none"
     inkscape:connector-curvature="0"
     id="path3460"
     d="m 48.8,202.6 c -1.8,0.9 -3.1,2.7 -3.7,5.2 -1.3,4.9 -43.3,290.6 -43.4,295.5 -0.1,3.1 0.4,4.4 2.6,6.3 l 2.8,2.4 248.9,0 248.9,0 2.8,-2.4 c 2.4,-2 2.8,-3.1 2.6,-6.8 -0.3,-5.7 -42.9,-294.8 -43.8,-297.1 -1.9,-4.8 1,-4.7 -113.9,-4.7 l -107.5,0 -5.1,7.5 c -2.8,4.1 -5.3,8.2 -5.6,9 -0.5,1.3 12,1.5 108.2,1.5 l 108.9,0 19.9,135.5 c 10.9,74.6 20.1,136.7 20.4,138 l 0.4,2.5 -236.2,0 -236.2,0 0.4,-2.3 c 0.2,-1.2 9.4,-63.3 20.4,-137.9 L 60.5,219 l 9.8,0 c 5.4,0 9.7,-0.3 9.5,-0.8 -0.2,-0.4 -2.7,-4.4 -5.7,-9 l -5.3,-8.2 -8.7,0 c -5.6,0.1 -9.5,0.6 -11.3,1.6 z" />
  <path
     style="fill:#000000;stroke:none"
     inkscape:connector-curvature="0"
     id="path3462"
     d="m 153,299.5 c -1.9,2.3 -0.7,14.9 2.1,22 2.1,5.1 2.8,6 5.2,6.3 5.6,0.7 7,-3 4.2,-10.8 -0.8,-2.4 -1.8,-6.8 -2.1,-9.9 -0.4,-3.1 -1.4,-6.4 -2.2,-7.4 -1.9,-2.1 -5.5,-2.2 -7.2,-0.2 z" />
  <path
     style="fill:#000000;stroke:none"
     inkscape:connector-curvature="0"
     id="path3464"
     d="m 332.3,321.7 c -3.2,0.4 -6.3,3.4 -6.3,6 0,0.6 0.7,1.9 1.6,2.7 1.2,1.3 3.7,1.5 13.9,1.2 13.2,-0.4 15.5,-1.1 15.5,-5.1 0,-4.3 -2.8,-5.5 -12.6,-5.3 -4.9,0 -10.4,0.3 -12.1,0.5 z" />
  <path
     style="fill:#000000;stroke:none"
     inkscape:connector-curvature="0"
     id="path3466"
     d="m 395.03619,317.69342 c 0.68069,-2.79762 -2.15734,-6.2798 -4.84894,-6.04466 -1.05466,0.13301 -4.16854,1.53078 -6.92381,3.29103 -2.78226,1.62143 -7.37114,3.95427 -10.31727,5.10332 -4.3363,1.77949 -5.33892,2.55069 -5.98874,4.76603 -0.48208,1.96662 -0.10035,3.18903 1.69464,4.64092 1.9878,1.70255 3.23526,1.8202 7.01432,0.50921 4.41726,-1.36302 12.73317,-5.64503 16.90947,-8.61801 1.08552,-0.71528 2.20385,-2.37339 2.46033,-3.64784 z" />
  <path
     style="fill:#000000;stroke:none"
     inkscape:connector-curvature="0"
     id="path3468"
     d="m 308.5,326.7 c -1.1,0.3 -6.2,1.8 -11.2,3.4 -9.6,3.1 -12,5.1 -10.8,8.9 1.3,4.2 3.8,4.3 15.6,0.5 6.2,-1.9 11.8,-4 12.5,-4.6 1.9,-1.5 1.8,-5.4 -0.2,-7.3 -1.6,-1.6 -2.4,-1.7 -5.9,-0.9 z" />
  <path
     style="fill:#000000;stroke:none"
     inkscape:connector-curvature="0"
     id="path3470"
     d="m 171.3,335.1 c -2.9,1.1 -3.8,4.5 -2,7.3 1.8,2.7 10.9,8.9 17.3,11.7 4.2,1.9 4.7,1.9 7,0.5 4.7,-3.1 2.6,-7.9 -4.8,-11 -1.9,-0.8 -5.5,-3 -7.9,-4.9 -5.5,-4.1 -6.8,-4.6 -9.6,-3.6 z" />
  <path
     style="fill:#000000;stroke:none"
     inkscape:connector-curvature="0"
     id="path3472"
     d="m 260.5,342.5 c -5.5,1.8 -10.8,3.8 -11.7,4.4 -2.4,1.5 -2.3,5.4 0.2,7.6 2,1.8 2.3,1.8 12.8,-1.4 12.6,-3.8 15.2,-5.3 15.2,-8.6 0,-2.3 -3.3,-5.6 -5.5,-5.4 -0.5,0 -5.5,1.6 -11,3.4 z" />
  <path
     style="fill:#000000;stroke:none"
     inkscape:connector-curvature="0"
     id="path3474"
     d="m 219.2,349.9 c -8.5,0.5 -11.5,1 -12.2,2.1 -1.4,2.1 -1.2,4.3 0.4,6.5 1.3,1.8 2.7,2 13,1.9 12.8,-0.1 16.6,-1.4 16.6,-5.9 0,-2.3 -3.4,-5.7 -5.5,-5.3 -0.5,0.1 -6.1,0.4 -12.3,0.7 z" />
  <path
     style="fill:#000000;stroke:none"
     inkscape:connector-curvature="0"
     id="path3478"
     d="m 400.01301,279.22687 c -0.9,1.2 -1.6,3.9 -1.6,5.8 0,2 -0.8,6.8 -1.9,10.8 -1.6,6.2 -1.7,7.4 -0.4,9.2 0.9,1.2 2.5,2 4.4,2 2.5,0 3.3,-0.6 4.6,-3.8 0.8,-2 2.2,-7.6 3.1,-12.4 1.4,-8 1.4,-8.8 -0.2,-11.2 -2.1,-3.3 -5.9,-3.4 -8,-0.4 z" />
  <path
     style="fill:#000000;stroke:none"
     inkscape:connector-curvature="0"
     id="path3480"
     d="m 388.24187,240.81796 c -5,1.4 -3.5,4.2 5,10 4.4,3 7.8,5.7 7.5,6 -0.3,0.3 -4.7,3.2 -9.8,6.6 -9.5,6.2 -11.4,8.8 -8.1,11.2 3.2,2.3 6.1,1.4 16.7,-5.6 l 10.5,-6.9 10.2,6.9 c 6.5,4.4 11.2,6.9 12.9,6.9 3.2,0 6.4,-3 5.6,-5.2 -0.3,-0.9 -5.1,-4.4 -10.5,-7.8 -11.3,-7.2 -11.4,-5.7 0.8,-13.9 6.6,-4.4 7.1,-5.1 4.8,-7 -3,-2.5 -7.3,-1.5 -15.5,3.8 -4.4,2.8 -8.2,5.1 -8.4,5.1 -0.3,0 -4.4,-2.5 -9.2,-5.5 -4.9,-3 -9.1,-5.5 -9.4,-5.4 -0.3,0.1 -1.7,0.4 -3.1,0.8 z" />
  <g
     style="display:inline"
     id="g4410"
     transform="matrix(22.235906,0,0,22.815254,-922.89525,-235.81384)">
    <rect
       style="display:inline;fill:#d26464;fill-opacity:1;stroke:#555753;stroke-width:0;stroke-linejoin:round;stroke-miterlimit:4;stroke-dasharray:none;stroke-opacity:1"
       id="rect2758"
       y="22"
       x="14.000001"
       ry="2.0114901"
       rx="2.0114901"
       height="10.000001"
       width="9.999999" />
    <path
       inkscape:connector-curvature="0"
       style="display:inline;opacity:0.3;fill:#fcffff;fill-rule:evenodd;stroke:none;enable-background:new"
       id="path6994"
       d="M 15.000001,27 23,27 c 0,0 0,0 0,-2 0,-2 -0.5,-2 -4,-2 -3.499999,0 -3.999999,0 -3.999999,2 0,2 0,2 0,2 z" />
    <path
       inkscape:connector-curvature="0"
       style="display:inline;overflow:visible;visibility:visible;fill:#ffffff;fill-opacity:1;fill-rule:evenodd;stroke:#ffffff;stroke-width:2;stroke-linecap:round;stroke-linejoin:round;stroke-miterlimit:4;stroke-dasharray:none;stroke-dashoffset:0;stroke-opacity:1;marker:none;enable-background:accumulate"
       id="path4073"
       d="m 16.87868,29.12132 4.24264,-4.24264" />
    <path
       inkscape:connector-curvature="0"
       style="display:inline;overflow:visible;visibility:visible;fill:#ffffff;fill-opacity:1;fill-rule:evenodd;stroke:#ffffff;stroke-width:2;stroke-linecap:round;stroke-linejoin:round;stroke-miterlimit:4;stroke-dasharray:none;stroke-dashoffset:0;stroke-opacity:1;marker:none;enable-background:accumulate"
       id="path4073-5"
       d="m 16.87868,24.87868 4.24264,4.24264" />
  </g>
  <g
     id="g5893"
     transform="matrix(1.1211528,0,0,1.1211528,947.20455,-212.7437)">
    <rect
       style="display:inline;fill:#008000;fill-opacity:1;stroke:url(#linearGradient3882);stroke-width:0;stroke-linejoin:round;stroke-miterlimit:4;stroke-dasharray:none;stroke-opacity:1;enable-background:new"
       id="rect2730"
       y="446.76843"
       x="-589.54272"
       ry="37.099525"
       rx="37.099525"
       height="202.88182"
       width="202.88182" />
    <path
       style="display:inline;opacity:0.3;fill:#ccff00;fill-rule:evenodd;stroke:none;enable-background:new"
       id="path4133"
       d="m -571.09917,557.43159 165.99421,-0.18444 c 0,0 0,0 0,-36.8876 0,-55.15434 -18.4438,-55.15434 -82.9971,-55.15434 -64.55331,0 -82.99711,0 -82.99711,55.3314 0,36.8876 0,36.8876 0,36.8876 z"
       inkscape:connector-curvature="0" />
    <path
       style="display:inline;fill:#ffffff;fill-opacity:1;fill-rule:evenodd;stroke:none"
       id="path4638"
       d="m -515.76777,474.43449 0,49.18339 c 0,57.38074 0,-31.61083 0,98.36701 l 92.21901,-65.57808 z"
       inkscape:connector-curvature="0" />
  </g>
</svg>
