<?xml version="1.0" encoding="utf-8"?>
<!-- Generator: Adobe Illustrator 22.1.0, SVG Export Plug-In . SVG Version: 6.00 Build 0)  -->
<svg version="1.1" id="Layer_1" xmlns="http://www.w3.org/2000/svg" xmlns:xlink="http://www.w3.org/1999/xlink" x="0px" y="0px"
	 viewBox="0 0 256 256" style="enable-background:new 0 0 256 256;" xml:space="preserve">
<style type="text/css">
	.st0{fill:#104962;}
	.st1{fill:#A5C5C0;}
</style>
<g id="_x23_104962ff">
	<path class="st0" d="M0,0h256v256H0V0 M25.7,104.4c0,3.3,1.4,6.5,3.7,8.8c2.7,2.7,6.8,4,10.6,3.3c2.9-0.5,5.6-2,7.5-4.2
		c2.3,2.8,6,4.5,9.6,4.4c3.5,0,7-1.7,9.3-4.4c2.3,2.7,5.9,4.4,9.5,4.4c3.6,0,7.1-1.7,9.4-4.4c1.7,1.9,3.9,3.4,6.4,4
		c2.2,0.6,4.5,0.3,6.7,0.4c12.1,0,24.3,0,36.5,0c0.8,0,1.5-0.1,2.3,0.1c0.7,0.1,1.2,0.7,1.1,1.4c-0.4,1.8-0.9,3.5-1.3,5.2
		c-6.7,0-13.5,0-20.2,0c-2.7-0.1-5.4,1.5-6.3,4.1c-0.8,2.9-1.5,5.8-2.2,8.8c-0.3,1.1-0.2,2.3,0.6,3.2c0.8,1,2.1,1.4,3.3,1.4
		c10.6,0,21.2,0,31.8,0c2.1-8.4,4.2-16.9,6.3-25.3c0.3-1.1,0.1-2.3-0.6-3.1c-0.8-1-2.1-1.4-3.4-1.3c-16.9,0-33.9,0-50.8,0
		c-1.4,0.1-2.8-0.2-3.9-0.9c-2.1-1.1-3.3-3.4-3.4-5.7c-1.9,0-3.8,0-5.7,0c-0.1,1.1-0.3,2.2-0.8,3.2c-1.1,2-3.3,3.4-5.6,3.4
		c-2.1,0.1-4.2-0.9-5.5-2.7c-0.9-1.1-1.3-2.5-1.3-3.9c-1.9,0-3.8,0-5.7,0c-0.1,2.1-1,4.1-2.7,5.3c-2.2,1.6-5.4,1.7-7.6,0.1
		c-1.8-1.2-2.9-3.3-2.9-5.5c-1.9,0-3.8,0-5.7,0c-0.1,1.2-0.3,2.4-1,3.4c-1.1,1.9-3.3,3.2-5.6,3.2c-2.1,0-4.1-1-5.3-2.6
		c-0.9-1.1-1.3-2.6-1.4-4C29.5,104.4,27.6,104.4,25.7,104.4 M175.8,113.7c-2,0.5-3.3,2.7-2.8,4.7c0.4,2.1,2.7,3.6,4.7,3.1
		c2.1-0.4,3.6-2.6,3.2-4.7C180.5,114.5,178,112.9,175.8,113.7 M21.9,119c-1.8,7.3-3.6,14.5-5.5,21.8c3.8,0,7.5,0,11.3,0
		c1.8-7.3,3.6-14.5,5.4-21.8C29.4,119,25.7,119,21.9,119 M34.6,122c-0.5,0.8-0.7,1.7-0.9,2.5c-1,3.9-2,7.9-2.9,11.8
		c-0.4,1.3,0.1,2.8,1.2,3.6c1,0.8,2.4,0.8,3.6,0.8c6.5,0,13,0,19.6,0c-0.7,2.7-1.3,5.3-2,8c3.8,0,7.5,0,11.3,0
		c2.1-8.4,4.2-16.9,6.3-25.3c0.3-1.1,0.1-2.3-0.6-3.2c-0.8-0.9-2-1.3-3.2-1.3c-8.9,0-17.8,0-26.8,0C38,118.9,35.8,120.1,34.6,122
		 M69.5,136.3c-0.3,1.1-0.1,2.5,0.8,3.3c0.8,0.9,2.1,1.2,3.3,1.2c8.9,0,17.7,0,26.6,0c2.8,0,5.6-1.9,6.3-4.7
		c1.4-5.7,2.9-11.4,4.3-17.1c-3.8,0-7.5,0-11.3,0c-1.1,4.5-2.3,9-3.4,13.5c-0.2,0.7-0.3,1.4-0.8,1.9c-0.5,0.5-1.3,0.7-2,0.7
		c-3.3,0-6.6,0-9.9,0c-0.6,0-1.3-0.1-1.6-0.7c-0.3-0.4-0.1-0.9,0-1.3c1.2-4.7,2.3-9.4,3.5-14.1c-3.8,0-7.5,0-11.3,0
		C72.4,124.7,70.9,130.5,69.5,136.3 M150.1,123.4c-1.5,5.8-2.9,11.6-4.4,17.4c4.5,0,8.9,0,13.4,0c0.9,0,1.8,0.1,2.7-0.2
		c1.7-0.4,3.2-1.5,4.1-2.9c0.5-0.9,0.7-1.9,0.9-2.8c1-3.8,1.9-7.6,2.9-11.5c-1.9,0-3.8,0-5.7,0c-0.8,3.3-1.7,6.6-2.5,9.9
		c-0.2,1-1.2,1.7-2.2,1.7c-1.3,0-2.5,0-3.8,0c1-3.9,2-7.8,2.9-11.6C155.7,123.4,152.9,123.4,150.1,123.4 M167.3,140.7
		c2.8,0,5.6,0,8.3,0c1.5-5.8,2.9-11.6,4.4-17.4c-2.8,0-5.6,0-8.3,0C170.2,129.2,168.7,135,167.3,140.7 M181.9,123.4
		c-1.1,4.3-2.2,8.6-3.3,12.9c-0.4,1.3,0,2.8,1.1,3.6c0.9,0.8,2.2,0.9,3.4,0.9c6.8,0,13.6,0,20.4,0c0.3-1.3,0.7-2.6,1-3.9
		c-5.2,0-10.4,0-15.5,0c-0.6,0-1.2-0.1-1.6-0.6c-0.3-0.4-0.1-0.8-0.1-1.2c3.7,0,7.5,0,11.2,0c1.2,0,2.3,0.1,3.5-0.3
		c1.9-0.6,3.7-2.2,4.2-4.2c0.2-1,0.5-2,0.8-3.1c0.2-1.2-0.2-2.5-1.2-3.2c-0.8-0.6-1.8-0.9-2.8-0.9
		C195.9,123.4,188.9,123.4,181.9,123.4 M209.9,123.4c-1.5,5.8-2.9,11.6-4.4,17.4c7.9,0,15.8,0,23.8,0c1.4,0,2.9,0.2,4.3-0.4
		c1.9-0.7,3.6-2.2,4-4.2c1.1-4.3,2.2-8.5,3.2-12.8c-1.9,0-3.8,0-5.7,0c-0.8,3.3-1.7,6.6-2.5,10c-0.2,1-1.2,1.6-2.2,1.7
		c-1.3,0-2.5,0-3.8,0c1-3.9,2-7.8,2.9-11.6c-1.9,0-3.8,0-5.7,0c-0.8,3.3-1.7,6.7-2.5,10c-0.2,1-1.3,1.7-2.3,1.7c-1.2,0-2.5,0-3.7,0
		c1-3.9,2-7.8,2.9-11.6C215.4,123.4,212.6,123.4,209.9,123.4z"/>
	<path class="st0" d="M46,124.8c0.5-0.2,1.1-0.2,1.6-0.2c3.2,0,6.5,0,9.7,0c0.8-0.1,1.7,0.6,1.5,1.5c-0.5,2.3-1.1,4.5-1.7,6.8
		c-0.1,0.6-0.4,1.2-0.9,1.6c-0.7,0.5-1.6,0.5-2.4,0.5c-3.1,0-6.2,0-9.3,0c-0.6,0-1.2-0.2-1.5-0.7c-0.3-0.4-0.1-1,0-1.4
		c0.6-2.2,1.1-4.4,1.7-6.6C44.7,125.6,45.3,125.1,46,124.8z"/>
	<path class="st0" d="M190.6,127.4c1.2-0.2,2.3,0,3.5-0.1c1.1,0,2.2-0.1,3.2,0.1c0.7,0.2,1.1,1,0.9,1.6c-0.1,1.2-1.2,2.1-2.4,2
		c-1.7,0-3.4,0-5.1,0c-0.7,0-1.7-0.1-1.9-0.9C188.5,129,189.3,127.6,190.6,127.4z"/>
	<path class="st0" d="M122.3,129.3c0.5-0.2,1.1-0.2,1.6-0.2c3.2,0,6.5,0,9.7,0c0.7,0,1.6,0.5,1.5,1.3c-0.2,1-0.5,2-0.7,3
		c-0.3,1.1-1.4,1.7-2.5,1.6c-3.4,0-6.8,0-10.1,0c-0.7,0-1.6-0.4-1.6-1.2c0.1-1,0.5-2,0.7-3C121,130.1,121.6,129.5,122.3,129.3z"/>
</g>
<g id="_x23_a5c5c0ff">
	<path class="st1" d="M25.7,104.4c1.9,0,3.8,0,5.7,0c0.1,1.4,0.5,2.9,1.4,4c1.2,1.6,3.3,2.6,5.3,2.6c2.3,0,4.4-1.3,5.6-3.2
		c0.6-1,0.9-2.2,1-3.4c1.9,0,3.8,0,5.7,0c0.1,2.1,1.1,4.3,2.9,5.5c2.2,1.6,5.4,1.5,7.6-0.1c1.7-1.2,2.7-3.3,2.7-5.3
		c1.9,0,3.8,0,5.7,0c0.1,1.4,0.5,2.8,1.3,3.9c1.3,1.7,3.4,2.7,5.5,2.7c2.3,0,4.5-1.4,5.6-3.4c0.5-1,0.8-2.1,0.8-3.2
		c1.9,0,3.8,0,5.7,0c0,2.3,1.3,4.6,3.4,5.7c1.2,0.7,2.6,0.9,3.9,0.9c16.9,0,33.9,0,50.8,0c1.2,0,2.5,0.4,3.4,1.3
		c0.7,0.9,0.9,2.1,0.6,3.1c-2.1,8.4-4.2,16.9-6.3,25.3c-10.6,0-21.2,0-31.8,0c-1.2,0-2.5-0.4-3.3-1.4c-0.7-0.9-0.9-2.1-0.6-3.2
		c0.7-2.9,1.4-5.8,2.2-8.8c0.9-2.6,3.7-4.2,6.3-4.1c6.7,0,13.5,0,20.2,0c0.4-1.7,0.9-3.5,1.3-5.2c0.2-0.7-0.4-1.3-1.1-1.4
		c-0.8-0.1-1.5,0-2.3-0.1c-12.2,0-24.3,0-36.5,0c-2.2-0.1-4.5,0.2-6.7-0.4c-2.5-0.6-4.7-2.1-6.4-4c-2.3,2.7-5.8,4.4-9.4,4.4
		c-3.6,0-7.1-1.7-9.5-4.4c-2.3,2.7-5.7,4.4-9.3,4.4c-3.7,0.1-7.3-1.6-9.6-4.4c-1.9,2.2-4.6,3.8-7.5,4.2c-3.8,0.7-7.9-0.6-10.6-3.3
		C27.1,110.9,25.7,107.7,25.7,104.4 M122.3,129.3c-0.7,0.3-1.3,0.8-1.4,1.5c-0.2,1-0.6,2-0.7,3c0,0.8,0.9,1.3,1.6,1.2
		c3.4,0,6.8,0,10.1,0c1.1,0,2.2-0.6,2.5-1.6c0.2-1,0.5-2,0.7-3c0.1-0.8-0.8-1.4-1.5-1.3c-3.2,0-6.5,0-9.7,0
		C123.4,129.1,122.8,129.1,122.3,129.3z"/>
	<path class="st1" d="M175.8,113.7c2.2-0.7,4.7,0.8,5.1,3.1c0.5,2.1-1,4.3-3.2,4.7c-2.1,0.5-4.3-1-4.7-3.1
		C172.5,116.4,173.8,114.2,175.8,113.7z"/>
	<path class="st1" d="M21.9,119c3.8,0,7.5,0,11.3,0c-1.8,7.3-3.6,14.5-5.4,21.8c-3.8,0-7.5,0-11.3,0C18.3,133.5,20.1,126.2,21.9,119
		z"/>
	<path class="st1" d="M34.6,122c1.2-1.9,3.4-3.1,5.7-3.1c8.9,0,17.8,0,26.8,0c1.2,0,2.4,0.4,3.2,1.3c0.7,0.9,0.9,2.1,0.6,3.2
		c-2.1,8.4-4.2,16.9-6.3,25.3c-3.8,0-7.5,0-11.3,0c0.7-2.7,1.3-5.3,2-8c-6.5,0-13,0-19.6,0c-1.2,0-2.6,0-3.6-0.8
		c-1.1-0.8-1.6-2.3-1.2-3.6c1-3.9,2-7.9,2.9-11.8C33.9,123.7,34.1,122.8,34.6,122 M46,124.8c-0.7,0.2-1.3,0.8-1.4,1.5
		c-0.6,2.2-1.1,4.4-1.7,6.6c-0.1,0.5-0.3,1,0,1.4c0.3,0.5,1,0.7,1.5,0.7c3.1,0,6.2,0,9.3,0c0.8,0,1.7,0,2.4-0.5
		c0.5-0.3,0.8-1,0.9-1.6c0.5-2.3,1.2-4.5,1.7-6.8c0.2-0.9-0.7-1.6-1.5-1.5c-3.2,0-6.5,0-9.7,0C47.1,124.7,46.5,124.6,46,124.8z"/>
	<path class="st1" d="M69.5,136.3c1.4-5.8,2.9-11.5,4.3-17.3c3.8,0,7.5,0,11.3,0c-1.2,4.7-2.3,9.4-3.5,14.1c-0.1,0.4-0.2,0.9,0,1.3
		c0.3,0.6,1,0.7,1.6,0.7c3.3,0,6.6,0,9.9,0c0.7,0,1.5-0.2,2-0.7c0.5-0.5,0.6-1.2,0.8-1.9c1.1-4.5,2.3-9,3.4-13.5c3.8,0,7.5,0,11.3,0
		c-1.4,5.7-2.9,11.4-4.3,17.1c-0.6,2.8-3.5,4.7-6.3,4.7c-8.9,0-17.7,0-26.6,0c-1.2,0-2.4-0.3-3.3-1.2
		C69.4,138.7,69.2,137.4,69.5,136.3z"/>
	<path class="st1" d="M150.1,123.4c2.8,0,5.6,0,8.3,0c-1,3.9-2,7.8-2.9,11.6c1.3,0,2.5,0,3.8,0c1,0,2-0.7,2.2-1.7
		c0.8-3.3,1.7-6.6,2.5-9.9c1.9,0,3.8,0,5.7,0c-1,3.8-1.9,7.6-2.9,11.5c-0.3,1-0.4,2-0.9,2.8c-0.9,1.5-2.4,2.5-4.1,2.9
		c-0.9,0.2-1.8,0.2-2.7,0.2c-4.5,0-8.9,0-13.4,0C147.2,135,148.6,129.2,150.1,123.4z"/>
	<path class="st1" d="M167.3,140.7c1.5-5.8,2.9-11.6,4.4-17.4c2.8,0,5.6,0,8.3,0c-1.5,5.8-2.9,11.6-4.4,17.4
		C172.8,140.7,170,140.7,167.3,140.7z"/>
	<path class="st1" d="M181.9,123.4c7,0,14,0,21,0c1,0,2,0.2,2.8,0.9c1,0.7,1.4,2,1.2,3.2c-0.2,1-0.5,2-0.8,3.1
		c-0.5,2-2.3,3.6-4.2,4.2c-1.1,0.4-2.3,0.3-3.5,0.3c-3.7,0-7.5,0-11.2,0c0,0.4-0.1,0.9,0.1,1.2c0.3,0.5,1,0.6,1.6,0.6
		c5.2,0,10.4,0,15.5,0c-0.3,1.3-0.7,2.6-1,3.9c-6.8,0-13.6,0-20.4,0c-1.2,0-2.4-0.1-3.4-0.9c-1.1-0.8-1.5-2.3-1.1-3.6
		C179.7,132,180.8,127.7,181.9,123.4 M190.6,127.4c-1.2,0.2-2.1,1.6-1.8,2.8c0.3,0.8,1.2,0.9,1.9,0.9c1.7,0,3.4,0,5.1,0
		c1.2,0,2.3-0.9,2.4-2c0.2-0.7-0.1-1.5-0.9-1.6c-1.1-0.2-2.2-0.1-3.2-0.1C192.9,127.3,191.7,127.2,190.6,127.4z"/>
	<path class="st1" d="M209.9,123.4c2.8,0,5.6,0,8.3,0c-1,3.9-2,7.8-2.9,11.6c1.2,0,2.5,0,3.7,0c1,0,2.1-0.6,2.3-1.7
		c0.8-3.3,1.7-6.6,2.5-10c1.9,0,3.8,0,5.7,0c-1,3.9-2,7.8-2.9,11.6c1.3,0,2.5,0,3.8,0c1,0,2-0.7,2.2-1.7c0.8-3.3,1.7-6.6,2.5-10
		c1.9,0,3.8,0,5.7,0c-1.1,4.3-2.2,8.5-3.2,12.8c-0.5,2-2.1,3.5-4,4.2c-1.4,0.5-2.8,0.3-4.3,0.4c-7.9,0-15.8,0-23.8,0
		C206.9,135,208.4,129.2,209.9,123.4z"/>
</g>
</svg>
