<?xml version="1.0" encoding="UTF-8" standalone="no"?>
<svg
   xmlns:dc="http://purl.org/dc/elements/1.1/"
   xmlns:cc="http://creativecommons.org/ns#"
   xmlns:rdf="http://www.w3.org/1999/02/22-rdf-syntax-ns#"
   xmlns:svg="http://www.w3.org/2000/svg"
   xmlns="http://www.w3.org/2000/svg"
   xmlns:sodipodi="http://sodipodi.sourceforge.net/DTD/sodipodi-0.dtd"
   xmlns:inkscape="http://www.inkscape.org/namespaces/inkscape"
   height="24"
   viewBox="0 0 24 24"
   width="24"
   id="svg3590"
   version="1.1"
   inkscape:version="0.91 r13725"
   sodipodi:docname="mActionAddLandmarkPoint.svg">
  <metadata
     id="metadata3618">
    <rdf:RDF>
      <cc:Work
         rdf:about="">
        <dc:format>image/svg+xml</dc:format>
        <dc:type
           rdf:resource="http://purl.org/dc/dcmitype/StillImage" />
        <dc:title></dc:title>
      </cc:Work>
    </rdf:RDF>
  </metadata>
  <defs
     id="defs3616" />
  <sodipodi:namedview
     pagecolor="#ffffff"
     bordercolor="#666666"
     borderopacity="1"
     objecttolerance="10"
     gridtolerance="10"
     guidetolerance="10"
     inkscape:pageopacity="0"
     inkscape:pageshadow="2"
     inkscape:window-width="1615"
     inkscape:window-height="1026"
     id="namedview3614"
     showgrid="false"
     inkscape:zoom="6.9532167"
     inkscape:cx="0.96886432"
     inkscape:cy="19.399193"
     inkscape:window-x="65"
     inkscape:window-y="24"
     inkscape:window-maximized="1"
     inkscape:current-layer="svg3590" />
  <linearGradient
     gradientUnits="userSpaceOnUse"
     x1="-10"
     x2="-10"
     y1="15"
     y2="21"
     id="linearGradient3592">
    <stop
       offset="0"
       stop-color="#555753"
       id="stop3594" />
    <stop
       offset="1"
       stop-color="#555753"
       stop-opacity="0"
       id="stop3596" />
  </linearGradient>
  <g
     id="g3600"
     transform="translate(33,0)">
    <rect
       style="fill:#c4a000"
       id="rect3602"
       y="13"
       x="-20"
       width="11"
       rx="2.0114901"
       height="11" />
    <path
       style="fill:#fcffff"
       inkscape:connector-curvature="0"
       id="path3604"
       d="m -15,14 0,2.0625 c -0.537663,0.111041 -1.024662,0.383291 -1.375,0.78125 l -1.78125,-1.03125 -0.5,0.875 1.78125,1.03125 C -16.957063,17.966182 -17,18.225145 -17,18.5 c 0,0.274855 0.04294,0.533818 0.125,0.78125 l -1.78125,1.03125 0.5,0.875 1.78125,-1.03125 c 0.352503,0.40042 0.832682,0.670182 1.375,0.78125 l 0,2.0625 1,0 0,-2.0625 c 0.537663,-0.111041 1.024662,-0.383291 1.375,-0.78125 l 1.78125,1.03125 0.5,-0.875 -1.78125,-1.03125 C -12.042937,19.033818 -12,18.774855 -12,18.5 c 0,-0.274855 -0.04294,-0.533818 -0.125,-0.78125 l 1.78125,-1.03125 -0.5,-0.875 -1.78125,1.03125 C -12.977503,16.44333 -13.457682,16.173568 -14,16.0625 L -14,14 Z m 0.5,3.5 c 0.552,0 1,0.448 1,1 0,0.552 -0.448,1 -1,1 -0.552,0 -1,-0.448 -1,-1 0,-0.552 0.448,-1 1,-1 z" />
    <path
       style="opacity:0.3;fill:#fcffff;fill-rule:evenodd"
       inkscape:connector-curvature="0"
       id="path3606"
       d="m -19,19 9,-0.0096 c 0,0 0,0 0,-2 C -10,14 -11,14 -14.5,14 c -3.5,0 -4.5,0 -4.5,3 0,2 0,2 0,2 z" />
  </g>
  <rect
     style="fill:#8cbe8c;stroke:#4b4c4b;stroke-width:1.47457623;stroke-linecap:round;stroke-opacity:0.95686275"
     id="rect3610"
     y="3.2103677"
     x="3.2355418"
     width="7.3728814"
     rx="4.6080508"
     height="7.3728814" />
</svg>
