<?xml version="1.0" encoding="UTF-8" ?>
<!DOCTYPE svg PUBLIC "-//W3C//DTD SVG 1.1//EN" "http://www.w3.org/Graphics/SVG/1.1/DTD/svg11.dtd">
<svg width="1262pt" height="1262pt" viewBox="0 0 1262 1262" version="1.1" xmlns="http://www.w3.org/2000/svg">
<g id="#d26464ff">
<path fill="#d26464" opacity="1.00" d=" M 824.70 0.00 L 1156.65 0.00 C 1178.35 1.15 1200.05 7.63 1217.83 20.35 C 1234.73 32.19 1248.16 48.82 1256.17 67.83 C 1258.64 74.20 1261.38 80.70 1262.00 87.55 L 1262.00 473.82 C 1260.28 484.93 1255.74 495.51 1250.38 505.35 C 1239.26 524.94 1222.19 541.22 1201.75 550.81 C 1184.59 559.40 1165.13 562.38 1146.09 561.88 C 1041.06 561.97 936.03 561.90 831.00 561.91 C 814.11 561.87 797.09 558.63 781.85 551.21 C 767.71 544.60 755.07 534.93 744.81 523.19 C 729.67 505.57 720.28 483.10 718.48 459.93 C 717.61 451.65 718.14 443.32 718.00 435.01 C 718.01 325.32 717.97 215.62 718.02 105.92 C 718.94 95.49 720.56 85.05 724.09 75.15 C 734.79 43.06 761.15 16.77 793.29 6.20 C 803.36 2.45 814.07 1.08 824.70 0.00 M 844.01 60.92 C 832.98 63.06 821.74 65.01 811.38 69.53 C 803.84 73.19 796.25 77.38 790.84 83.94 C 786.81 88.78 783.29 94.12 780.95 99.99 C 774.67 116.23 773.26 133.78 772.64 151.02 C 772.60 194.09 772.70 237.17 772.60 280.24 C 774.31 280.89 776.19 280.52 777.99 280.61 C 805.97 280.58 833.95 280.61 861.94 280.60 C 879.27 280.78 896.63 280.22 913.95 280.88 C 887.98 307.61 861.89 334.23 835.96 361.01 C 828.05 370.36 821.56 381.64 820.58 394.08 C 820.48 400.41 820.08 406.86 821.70 413.06 C 824.20 422.97 829.70 431.89 836.34 439.57 C 839.75 443.62 844.21 446.62 848.81 449.16 C 862.51 457.33 879.91 458.12 894.73 452.65 C 901.88 449.29 909.12 445.47 914.40 439.43 C 939.96 412.99 965.72 386.73 991.37 360.37 C 1017.44 387.03 1043.44 413.75 1069.44 440.48 C 1074.20 445.72 1080.61 449.01 1086.87 452.12 C 1106.45 460.38 1130.64 455.69 1145.58 440.53 C 1153.94 431.16 1160.72 419.74 1162.15 407.07 C 1162.51 403.03 1162.27 398.96 1162.32 394.92 C 1161.62 385.16 1157.65 375.88 1152.10 367.91 C 1147.01 360.16 1139.91 354.11 1133.60 347.42 C 1112.11 325.18 1090.37 303.20 1068.93 280.91 C 1075.61 280.27 1082.33 280.72 1089.04 280.60 C 1129.49 280.51 1169.95 280.77 1210.39 280.48 C 1210.33 246.65 1210.37 212.82 1210.36 178.99 C 1210.25 167.34 1210.73 155.66 1209.70 144.03 C 1209.42 132.26 1207.92 120.50 1204.81 109.13 C 1202.02 97.64 1195.91 86.86 1187.02 79.01 C 1177.20 71.15 1165.27 66.22 1152.97 63.84 C 1137.61 59.77 1121.67 59.25 1105.93 57.89 C 1065.31 55.59 1024.62 56.40 983.96 56.24 C 937.29 56.42 890.43 55.24 844.01 60.92 Z" />
</g>
<g id="#000000ff">
<path fill="#000000" opacity="1.00" d=" M 39.43 9.42 C 45.43 3.15 54.31 -0.17 62.96 0.45 C 73.42 1.05 83.28 7.60 87.87 17.03 C 91.29 23.73 91.68 31.57 90.42 38.88 C 88.09 56.06 77.84 71.92 63.18 81.15 C 51.49 88.38 37.03 92.44 23.38 89.39 C 8.88 85.98 -1.36 70.57 1.23 55.88 C 2.99 41.57 16.38 30.10 30.75 30.23 C 30.97 22.54 33.92 14.86 39.43 9.42 Z" />
<path fill="#000000" opacity="1.00" d=" M 232.37 1.64 C 245.41 -2.37 260.58 3.95 266.95 16.01 C 269.91 21.14 270.65 27.11 271.00 32.92 C 270.65 69.41 261.83 105.79 245.39 138.37 C 227.94 173.16 201.86 203.56 170.11 226.08 C 130.03 254.68 80.94 270.54 31.68 270.45 C 29.13 269.46 26.32 269.85 23.72 269.05 C 12.41 266.37 3.22 256.51 1.42 245.02 C 0.72 239.63 0.96 233.99 3.06 228.91 C 6.87 219.01 16.31 211.50 26.87 210.22 C 30.87 209.35 34.88 210.44 38.90 210.33 C 73.32 208.89 107.21 197.22 135.26 177.23 C 165.71 155.70 189.11 124.42 201.19 89.13 C 207.70 69.85 211.48 49.42 210.70 29.02 C 211.14 16.50 220.28 4.94 232.37 1.64 Z" />
<path fill="#000000" opacity="1.00" d=" M 412.40 1.66 C 419.62 -0.52 427.68 0.10 434.44 3.49 C 442.90 7.59 449.18 15.91 450.73 25.20 C 451.65 29.75 450.91 34.39 450.91 38.98 C 449.61 109.77 429.86 180.09 394.28 241.30 C 368.65 285.50 334.87 324.96 295.12 357.06 C 221.37 417.02 126.71 450.70 31.64 450.46 C 30.21 449.59 28.51 449.71 26.91 449.53 C 16.63 448.27 7.36 441.15 3.37 431.61 C -1.44 420.45 1.27 406.46 10.23 398.16 C 17.22 391.33 27.58 388.58 37.12 390.35 C 108.84 389.50 180.01 366.06 238.54 324.66 C 294.01 285.67 337.98 230.60 363.76 167.89 C 380.62 127.10 389.89 83.19 390.90 39.07 C 391.05 32.73 390.50 26.13 392.87 20.09 C 395.99 11.32 403.48 4.30 412.40 1.66 Z" />
<path fill="#000000" opacity="1.00" d=" M 594.26 1.20 C 604.00 -1.06 614.73 2.00 621.83 9.03 C 627.98 14.94 630.98 23.49 630.98 31.93 C 630.90 122.41 609.84 212.79 570.03 294.04 C 537.55 360.58 492.59 421.00 438.17 471.21 C 381.85 523.32 315.39 564.42 243.63 591.57 C 177.44 616.70 106.78 629.92 35.99 630.49 C 27.63 630.95 18.78 629.28 12.21 623.79 C 1.94 615.88 -1.74 601.01 3.16 589.10 C 7.25 578.65 17.68 571.09 28.89 570.45 C 110.54 570.97 192.21 552.35 265.71 516.83 C 331.55 485.11 390.80 439.83 438.68 384.61 C 489.21 326.57 527.03 257.54 548.81 183.73 C 562.62 137.11 570.09 88.62 570.92 40.00 C 571.20 34.71 570.28 29.35 571.52 24.13 C 573.78 12.91 583.08 3.57 594.26 1.20 Z" />
</g>
<g id="#de9294ff">
<path fill="#de9294" opacity="1.00" d=" M 844.01 60.92 C 890.43 55.24 937.29 56.42 983.96 56.24 C 1024.62 56.40 1065.31 55.59 1105.93 57.89 C 1121.67 59.25 1137.61 59.77 1152.97 63.84 C 1165.27 66.22 1177.20 71.15 1187.02 79.01 C 1195.91 86.86 1202.02 97.64 1204.81 109.13 C 1207.92 120.50 1209.42 132.26 1209.70 144.03 C 1210.73 155.66 1210.25 167.34 1210.36 178.99 C 1210.37 212.82 1210.33 246.65 1210.39 280.48 C 1169.95 280.77 1129.49 280.51 1089.04 280.60 C 1082.33 280.72 1075.61 280.27 1068.93 280.91 C 1068.90 280.88 1068.82 280.82 1068.79 280.79 C 1092.13 257.13 1115.18 233.16 1138.48 209.44 C 1146.89 201.28 1154.76 192.13 1159.00 181.05 C 1162.55 172.87 1162.73 163.77 1162.17 155.02 C 1160.79 141.80 1153.58 129.90 1144.70 120.33 C 1133.62 110.00 1118.18 104.31 1103.02 105.76 C 1091.33 106.58 1080.21 111.75 1071.41 119.35 C 1045.35 146.01 1019.33 172.71 993.36 199.45 C 992.60 200.05 991.50 201.84 990.54 200.51 C 964.16 173.55 937.88 146.49 911.55 119.48 C 900.79 110.07 886.41 104.63 872.04 105.66 C 859.48 106.26 847.46 111.81 838.19 120.17 C 829.31 129.81 821.96 141.70 820.63 154.98 C 820.41 161.78 820.06 168.72 821.85 175.36 C 824.49 185.12 829.98 193.87 836.55 201.45 C 862.36 227.92 888.15 254.41 913.95 280.88 C 896.63 280.22 879.27 280.78 861.94 280.60 C 833.95 280.61 805.97 280.58 777.99 280.61 C 776.19 280.52 774.31 280.89 772.60 280.24 C 772.70 237.17 772.60 194.09 772.64 151.02 C 773.26 133.78 774.67 116.23 780.95 99.99 C 783.29 94.12 786.81 88.78 790.84 83.94 C 796.25 77.38 803.84 73.19 811.38 69.53 C 821.74 65.01 832.98 63.06 844.01 60.92 Z" />
</g>
<g id="#ffffffff">
<path fill="#ffffff" opacity="1.00" d=" M 838.19 120.17 C 847.46 111.81 859.48 106.26 872.04 105.66 C 886.41 104.63 900.79 110.07 911.55 119.48 C 937.88 146.49 964.16 173.55 990.54 200.51 C 991.50 201.84 992.60 200.05 993.36 199.45 C 1019.33 172.71 1045.35 146.01 1071.41 119.35 C 1080.21 111.75 1091.33 106.58 1103.02 105.76 C 1118.18 104.31 1133.62 110.00 1144.70 120.33 C 1153.58 129.90 1160.79 141.80 1162.17 155.02 C 1162.73 163.77 1162.55 172.87 1159.00 181.05 C 1154.76 192.13 1146.89 201.28 1138.48 209.44 C 1115.18 233.16 1092.13 257.13 1068.79 280.79 C 1068.82 280.82 1068.90 280.88 1068.93 280.91 C 1090.37 303.20 1112.11 325.18 1133.60 347.42 C 1139.91 354.11 1147.01 360.16 1152.10 367.91 C 1157.65 375.88 1161.62 385.16 1162.32 394.92 C 1162.27 398.96 1162.51 403.03 1162.15 407.07 C 1160.72 419.74 1153.94 431.16 1145.58 440.53 C 1130.64 455.69 1106.45 460.38 1086.87 452.12 C 1080.61 449.01 1074.20 445.72 1069.44 440.48 C 1043.44 413.75 1017.44 387.03 991.37 360.37 C 965.72 386.73 939.96 412.99 914.40 439.43 C 909.12 445.47 901.88 449.29 894.73 452.65 C 879.91 458.12 862.51 457.33 848.81 449.16 C 844.21 446.62 839.75 443.62 836.34 439.57 C 829.70 431.89 824.20 422.97 821.70 413.06 C 820.08 406.86 820.48 400.41 820.58 394.08 C 821.56 381.64 828.05 370.36 835.96 361.01 C 861.89 334.23 887.98 307.61 913.95 280.88 C 888.15 254.41 862.36 227.92 836.55 201.45 C 829.98 193.87 824.49 185.12 821.85 175.36 C 820.06 168.72 820.41 161.78 820.63 154.98 C 821.96 141.70 829.31 129.81 838.19 120.17 Z" />
</g>
<g id="#fc3334ff">
<path fill="#fc3334" opacity="1.00" d=" M 50.00 698.01 C 164.17 698.02 278.34 697.95 392.51 698.04 C 392.50 862.86 392.50 1027.67 392.51 1192.49 C 460.50 1192.50 528.50 1192.50 596.49 1192.49 C 596.50 1027.67 596.50 862.86 596.49 698.04 C 710.84 698.00 825.19 697.92 939.54 698.08 C 939.45 862.89 939.52 1027.69 939.51 1192.49 C 1007.34 1192.51 1075.16 1192.50 1142.99 1192.50 C 1143.03 1081.93 1142.95 971.36 1143.03 860.79 C 1131.74 855.58 1121.40 848.17 1113.30 838.70 C 1100.62 824.19 1093.17 805.23 1092.55 785.97 C 1091.90 768.52 1096.83 750.94 1106.43 736.36 C 1115.36 722.71 1128.32 711.74 1143.26 705.20 C 1160.38 697.60 1180.04 695.96 1198.20 700.55 C 1215.43 704.86 1231.24 714.71 1242.61 728.37 C 1253.43 741.20 1260.31 757.33 1262.00 774.03 L 1262.00 792.29 C 1259.03 821.65 1239.49 848.53 1212.51 860.47 C 1212.49 994.32 1212.50 1128.16 1212.50 1262.00 L 870.00 1262.00 C 869.99 1097.17 870.01 932.34 869.99 767.50 C 802.00 767.50 734.00 767.50 666.01 767.51 C 665.99 932.34 666.01 1097.17 666.00 1262.00 L 323.00 1262.00 C 322.99 1097.17 323.01 932.34 322.99 767.50 C 255.16 767.50 187.34 767.49 119.51 767.51 C 119.50 878.09 119.49 988.68 119.51 1099.27 C 143.21 1109.74 161.55 1131.50 167.55 1156.74 C 173.80 1181.54 167.96 1209.00 152.15 1229.11 C 137.18 1248.66 113.38 1260.85 88.82 1262.00 L 81.64 1262.00 C 61.45 1261.12 41.62 1252.97 26.93 1239.06 C 10.78 1224.14 1.09 1202.74 0.00 1180.83 L 0.00 1173.62 C 0.36 1167.96 1.05 1162.31 2.43 1156.81 C 8.38 1131.74 26.49 1110.03 49.99 1099.52 C 50.02 965.68 49.98 831.84 50.00 698.01 Z" />
</g>
</svg>
