<?xml version="1.0" encoding="UTF-8" ?>
<!DOCTYPE svg PUBLIC "-//W3C//DTD SVG 1.1//EN" "http://www.w3.org/Graphics/SVG/1.1/DTD/svg11.dtd">
<svg width="1262pt" height="1262pt" viewBox="0 0 1262 1262" version="1.1" xmlns="http://www.w3.org/2000/svg">
<g id="#008000ff">
<path fill="#008000" opacity="1.00" d=" M 807.54 0.00 L 1174.05 0.00 C 1195.16 2.22 1215.37 11.60 1230.82 26.15 C 1247.19 41.40 1258.26 62.15 1262.00 84.20 L 1262.00 476.17 C 1260.50 485.09 1257.81 493.81 1254.05 502.04 C 1241.86 529.03 1217.40 550.34 1188.64 557.79 C 1179.00 560.41 1168.98 561.24 1159.03 561.00 C 1048.35 561.00 937.67 561.00 826.99 561.00 C 820.96 560.96 814.92 561.18 808.91 560.62 C 795.90 559.46 783.16 555.60 771.65 549.43 C 744.82 535.14 725.41 508.14 719.87 478.30 C 717.31 466.02 718.13 453.44 718.00 441.00 C 718.00 328.33 718.02 215.66 718.00 102.99 C 717.81 84.50 722.58 65.95 731.85 49.93 C 747.31 22.59 776.15 3.08 807.54 0.00 M 878.95 53.23 C 858.79 55.16 838.29 58.17 819.75 66.73 C 807.12 72.54 795.98 81.72 788.41 93.42 C 779.30 107.38 774.70 123.73 771.90 140.01 C 767.88 163.78 767.54 187.97 767.61 212.03 C 767.60 243.19 767.63 274.36 767.60 305.53 C 817.17 305.81 866.76 305.53 916.34 305.56 C 916.34 365.17 916.35 424.78 916.34 484.39 C 989.01 424.78 1061.46 364.90 1134.06 305.21 C 1160.65 305.52 1187.26 305.26 1213.86 305.23 C 1213.93 279.82 1213.87 254.40 1213.89 228.99 C 1213.82 202.66 1214.47 176.22 1211.12 150.05 C 1208.82 132.09 1204.87 113.94 1195.97 97.99 C 1188.30 84.06 1175.88 73.02 1161.41 66.53 C 1144.04 58.59 1124.93 55.53 1106.07 53.55 C 1067.83 49.98 1029.37 50.71 991.01 50.50 C 953.65 50.69 916.21 50.04 878.95 53.23 Z" />
</g>
<g id="#000000ff">
<path fill="#000000" opacity="1.00" d=" M 45.62 4.55 C 55.50 -1.42 68.77 -0.90 78.18 5.79 C 86.02 11.18 90.88 20.44 91.07 29.93 C 91.17 45.48 85.05 61.03 74.16 72.16 C 63.31 83.52 47.79 90.32 32.07 90.46 C 22.58 90.60 13.02 86.40 7.23 78.80 C -0.13 69.57 -1.20 55.94 4.66 45.69 C 9.75 36.33 20.10 30.30 30.73 30.20 C 30.93 19.84 36.59 9.74 45.62 4.55 Z" />
<path fill="#000000" opacity="1.00" d=" M 232.40 1.63 C 244.97 -2.19 259.53 3.48 266.23 14.77 C 269.86 20.45 270.83 27.31 270.98 33.93 C 270.45 74.50 259.37 114.88 239.12 150.04 C 221.49 180.79 196.94 207.53 167.80 227.70 C 129.87 254.10 84.17 269.15 37.97 270.40 C 27.98 270.78 16.98 268.73 9.82 261.16 C -0.35 251.52 -1.87 234.53 6.12 223.09 C 11.75 214.67 21.84 209.50 31.96 209.92 C 34.28 210.05 36.60 210.39 38.93 210.32 C 75.24 208.82 110.95 195.88 139.85 173.86 C 183.15 141.31 210.48 88.24 210.80 33.98 C 209.02 19.81 218.57 5.30 232.40 1.63 Z" />
<path fill="#000000" opacity="1.00" d=" M 412.37 1.66 C 424.74 -2.28 439.19 2.93 446.21 13.83 C 448.98 18.04 450.69 22.94 451.10 27.97 C 451.12 62.85 447.11 97.78 438.65 131.65 C 423.96 191.01 396.09 247.07 357.59 294.58 C 323.03 337.38 279.95 373.26 231.61 399.51 C 172.72 431.58 106.05 449.25 38.99 450.42 C 33.14 450.86 27.29 449.85 21.66 448.34 C 11.32 445.09 3.18 435.76 1.44 425.06 C 0.67 419.40 0.98 413.44 3.34 408.17 C 7.28 398.55 16.60 391.43 26.91 390.14 C 30.93 389.37 34.97 390.32 39.00 390.39 C 109.13 389.01 178.65 366.37 236.21 326.29 C 291.11 288.33 335.01 234.73 361.41 173.43 C 380.99 128.30 391.09 79.12 391.03 29.93 C 391.07 17.18 400.12 5.19 412.37 1.66 Z" />
<path fill="#000000" opacity="1.00" d=" M 594.29 1.18 C 607.43 -1.97 622.11 5.05 627.78 17.34 C 631.33 24.32 631.09 32.38 630.92 40.00 C 629.63 127.28 608.90 214.20 570.69 292.69 C 540.83 354.23 500.32 410.59 451.50 458.51 C 400.25 508.91 339.84 549.97 274.10 579.05 C 198.44 612.67 115.75 630.27 32.96 630.52 C 24.80 630.67 16.46 628.01 10.49 622.31 C 1.09 613.81 -1.62 599.12 3.76 587.72 C 8.18 577.95 18.21 571.05 28.92 570.45 C 115.81 570.99 202.70 549.87 279.77 509.79 C 339.78 478.69 393.83 436.17 438.19 385.18 C 483.86 332.83 519.23 271.56 541.75 205.84 C 560.28 151.91 570.19 95.02 570.95 38.00 C 571.00 33.13 570.41 28.18 571.68 23.41 C 574.18 12.48 583.34 3.53 594.29 1.18 Z" />
</g>
<g id="#3ea600ff">
<path fill="#3ea600" opacity="1.00" d=" M 878.95 53.23 C 916.21 50.04 953.65 50.69 991.01 50.50 C 1029.37 50.71 1067.83 49.98 1106.07 53.55 C 1124.93 55.53 1144.04 58.59 1161.41 66.53 C 1175.88 73.02 1188.30 84.06 1195.97 97.99 C 1204.87 113.94 1208.82 132.09 1211.12 150.05 C 1214.47 176.22 1213.82 202.66 1213.89 228.99 C 1213.87 254.40 1213.93 279.82 1213.86 305.23 C 1187.26 305.26 1160.65 305.52 1134.06 305.21 C 1144.15 296.89 1154.23 288.56 1164.35 280.27 C 1081.70 212.17 999.02 144.11 916.35 76.04 C 916.34 152.55 916.34 229.05 916.34 305.56 C 866.76 305.53 817.17 305.81 767.60 305.53 C 767.63 274.36 767.60 243.19 767.61 212.03 C 767.54 187.97 767.88 163.78 771.90 140.01 C 774.70 123.73 779.30 107.38 788.41 93.42 C 795.98 81.72 807.12 72.54 819.75 66.73 C 838.29 58.17 858.79 55.16 878.95 53.23 Z" />
</g>
<g id="#ffffffff">
<path fill="#ffffff" opacity="1.00" d=" M 916.35 76.04 C 999.02 144.11 1081.70 212.17 1164.35 280.27 C 1154.23 288.56 1144.15 296.89 1134.06 305.21 C 1061.46 364.90 989.01 424.78 916.34 484.39 C 916.35 424.78 916.34 365.17 916.34 305.56 C 916.34 229.05 916.34 152.55 916.35 76.04 Z" />
</g>
<g id="#fc3334ff">
<path fill="#fc3334" opacity="1.00" d=" M 50.00 698.00 C 164.17 698.00 278.33 698.00 392.50 698.00 C 392.50 862.83 392.50 1027.66 392.50 1192.50 C 460.50 1192.50 528.50 1192.50 596.50 1192.50 C 596.50 1027.67 596.50 862.84 596.50 698.01 C 710.83 697.99 825.17 698.00 939.50 698.00 C 939.50 862.83 939.50 1027.66 939.50 1192.50 C 1007.34 1192.50 1075.17 1192.50 1143.00 1192.50 C 1143.00 1081.90 1143.01 971.31 1142.99 860.71 C 1131.21 855.41 1120.58 847.51 1112.32 837.55 C 1099.58 822.44 1092.43 802.75 1092.50 782.99 C 1092.44 763.66 1099.27 744.42 1111.49 729.45 C 1121.74 716.74 1135.78 707.14 1151.32 702.13 C 1167.44 696.88 1185.15 696.63 1201.42 701.43 C 1217.85 706.23 1232.76 716.12 1243.51 729.45 C 1253.72 741.96 1260.14 757.44 1262.00 773.47 L 1262.00 792.38 C 1258.99 821.73 1239.44 848.53 1212.49 860.51 C 1212.51 994.34 1212.50 1128.17 1212.50 1262.00 L 870.00 1262.00 C 870.00 1097.17 870.00 932.33 870.00 767.50 C 802.00 767.50 734.00 767.50 666.00 767.50 C 665.99 932.33 666.00 1097.17 666.00 1262.00 L 323.00 1262.00 C 323.00 1097.17 323.00 932.33 323.00 767.50 C 255.17 767.50 187.34 767.50 119.50 767.50 C 119.50 878.09 119.50 988.68 119.51 1099.26 C 144.55 1110.30 163.52 1134.00 168.47 1160.95 C 173.55 1186.49 165.95 1214.13 148.53 1233.48 C 133.50 1250.56 111.41 1260.94 88.72 1262.00 L 81.54 1262.00 C 61.87 1261.10 42.56 1253.35 28.00 1240.05 C 11.22 1225.05 1.06 1203.17 0.00 1180.72 L 0.00 1173.54 C 0.35 1168.15 1.00 1162.77 2.26 1157.52 C 8.04 1132.16 26.26 1110.13 49.99 1099.52 C 50.02 965.68 49.99 831.84 50.00 698.00 Z" />
</g>
</svg>
