<?xml version="1.0" encoding="UTF-8" standalone="no"?>
<svg
   xmlns:dc="http://purl.org/dc/elements/1.1/"
   xmlns:cc="http://creativecommons.org/ns#"
   xmlns:rdf="http://www.w3.org/1999/02/22-rdf-syntax-ns#"
   xmlns:svg="http://www.w3.org/2000/svg"
   xmlns="http://www.w3.org/2000/svg"
   xmlns:sodipodi="http://sodipodi.sourceforge.net/DTD/sodipodi-0.dtd"
   xmlns:inkscape="http://www.inkscape.org/namespaces/inkscape"
   width="1262pt"
   height="1262pt"
   viewBox="0 0 1262 1262"
   version="1.1"
   id="svg4348"
   inkscape:version="0.91 r13725"
   sodipodi:docname="mActionUSBLUpdatesOn.svg">
  <metadata
     id="metadata4385">
    <rdf:RDF>
      <cc:Work
         rdf:about="">
        <dc:format>image/svg+xml</dc:format>
        <dc:type
           rdf:resource="http://purl.org/dc/dcmitype/StillImage" />
        <dc:title></dc:title>
      </cc:Work>
    </rdf:RDF>
  </metadata>
  <defs
     id="defs4383" />
  <sodipodi:namedview
     pagecolor="#ffffff"
     bordercolor="#666666"
     borderopacity="1"
     objecttolerance="10"
     gridtolerance="10"
     guidetolerance="10"
     inkscape:pageopacity="0"
     inkscape:pageshadow="2"
     inkscape:window-width="1855"
     inkscape:window-height="1056"
     id="namedview4381"
     showgrid="false"
     inkscape:zoom="0.1496038"
     inkscape:cx="171.16969"
     inkscape:cy="1014.2947"
     inkscape:window-x="1985"
     inkscape:window-y="24"
     inkscape:window-maximized="1"
     inkscape:current-layer="svg4348" />
  <path
     style="opacity:1;fill:#000000"
     inkscape:connector-curvature="0"
     id="path4356"
     d="M 45.55,4.59 C 55.88,-1.7 69.96,-0.82 79.42,6.71 86.56,12.17 90.86,20.95 91.07,29.91 91.18,45.46 85.05,61.03 74.16,72.16 63.29,83.53 47.74,90.34 32,90.46 22.53,90.58 13,86.38 7.23,78.79 -0.47,69.18 -1.23,54.78 5.41,44.41 10.72,35.72 20.61,30.37 30.74,30.15 30.95,19.83 36.58,9.78 45.55,4.59 Z" />
  <path
     style="opacity:1;fill:#000000"
     inkscape:connector-curvature="0"
     id="path4358"
     d="m 232.47,1.6 c 12.31,-3.68 26.54,1.67 33.37,12.55 3.92,5.82 5.02,12.97 5.14,19.85 -0.54,41.04 -11.9,81.87 -32.6,117.32 -19.26,33.13 -46.6,61.51 -79.01,81.97 -34.19,21.7 -73.97,34.49 -114.4,36.81 -8.09,0.61 -16.4,0.67 -24.18,-1.94 -7.83,-2.79 -14.35,-9.02 -17.52,-16.7 -3.54,-8.45 -2.92,-18.53 1.67,-26.45 4.67,-8.28 13.48,-14.05 22.95,-14.94 3.72,-0.53 7.44,0.34 11.16,0.24 34.85,-1.46 69.15,-13.46 97.39,-33.92 44.97,-32.13 73.63,-86.03 74.39,-141.36 -0.56,-6.43 0.25,-13.09 3.43,-18.79 3.77,-7.06 10.5,-12.47 18.21,-14.64 z" />
  <path
     style="opacity:1;fill:#000000"
     inkscape:connector-curvature="0"
     id="path4360"
     d="m 412.48,1.63 c 11.88,-3.71 25.68,0.92 32.92,11.04 3.25,4.44 5.25,9.79 5.69,15.28 0.18,55.52 -10.48,111.11 -31.71,162.45 -19.81,48.17 -48.68,92.59 -84.68,130.22 -37.58,39.4 -82.93,71.35 -132.67,93.48 C 149.33,437.66 91.72,450.12 34,450.5 28.38,449.84 22.56,449.27 17.46,446.62 7.32,441.6 0.46,430.45 1.08,419.07 0.97,405.12 12.19,392.35 25.92,390.29 c 4.32,-0.96 8.69,-0.04 13.04,0.1 71.09,-1.37 141.53,-24.64 199.55,-65.71 56.15,-39.46 100.5,-95.39 126.17,-159.03 16.4,-40.48 25.38,-83.96 26.24,-127.63 0.08,-6.01 -0.28,-12.25 1.96,-17.95 3.13,-8.8 10.66,-15.81 19.6,-18.44 z" />
  <path
     style="opacity:1;fill:#000000"
     inkscape:connector-curvature="0"
     id="path4362"
     d="m 594.09,1.23 c 13.16,-3.26 27.95,3.73 33.66,16.05 3.57,6.98 3.34,15.05 3.18,22.68 -1.33,89.55 -23.11,178.71 -63.23,258.78 -33.02,66.18 -78.44,126.14 -133.21,175.83 -57.06,51.93 -124.28,92.64 -196.71,119.19 -65.75,24.16 -135.76,36.67 -205.8,36.74 -9.49,0.07 -19.04,-4.16 -24.78,-11.81 -7.41,-9.41 -8.21,-23.37 -2.05,-33.61 4.88,-8.37 14.05,-14.05 23.73,-14.62 87.65,0.54 175.3,-20.95 252.88,-61.71 64.47,-33.73 121.94,-80.72 167.87,-137.14 47.42,-58.11 82.49,-126.23 102.23,-198.59 12.27,-44.92 18.83,-91.43 19.07,-138 -0.51,-6.89 0.47,-14.07 4.19,-20.02 4.12,-6.91 11.13,-11.98 18.97,-13.77 z" />
  <text
     xml:space="preserve"
     style="font-style:normal;font-variant:normal;font-weight:normal;font-stretch:normal;font-size:464.4229126px;line-height:125%;font-family:Arial;-inkscape-font-specification:Arial;letter-spacing:0px;word-spacing:0px;fill:#000000;fill-opacity:1;stroke:none;stroke-width:1px;stroke-linecap:butt;stroke-linejoin:miter;stroke-opacity:1"
     x="697.05762"
     y="490.74307"
     id="text4946"
     sodipodi:linespacing="125%"
     transform="scale(0.88898381,1.1248799)"><tspan
       sodipodi:role="line"
       id="tspan4948"
       x="697.05762"
       y="490.74307"
       style="font-style:normal;font-variant:normal;font-weight:bold;font-stretch:normal;font-size:487.64950562px;font-family:Arial;-inkscape-font-specification:'Arial Bold';letter-spacing:-0.22540243px">UD</tspan></text>
  <path
     style="fill:#8cbe8c;fill-opacity:1;stroke:none;stroke-width:10.02648258;stroke-miterlimit:4;stroke-dasharray:none;stroke-opacity:1"
     d="m 1050.6373,1206.7543 c 54.8077,-11.511 106.253,-53.9555 136.6457,-112.7383 24.7768,-47.9209 34.6651,-115.13826 26.4769,-179.9809 -12.0387,-95.3342 -68.8945,-171.3628 -147.43,-197.1459 l -22.3094,-7.3241 -403.19441,-0.7498 c -272.46511,-0.5066 -409.31981,0.1637 -422.08641,2.0673 -39.5849,5.9025 -68.3289,19.9653 -100.2753,49.0589 -52.023622,47.3778 -78.104122,114.3796 -78.221822,200.95404 -0.1163,85.47356 25.4912,149.76346 79.580722,199.79586 25.3217,23.4224 56.5907,39.9416 87.4307,46.1889 28.0657,5.6854 816.27422,5.5676 843.38332,-0.1259 l 0,-10e-5 z"
     id="path4936-8"
     inkscape:connector-curvature="0" />
  <path
     style="fill:#8cbe8c;fill-opacity:1;stroke:none;stroke-width:3;stroke-miterlimit:4;stroke-dasharray:none;stroke-opacity:1"
     d="m 634.05647,886.54597 0,-0.70159 10.83779,-7.2e-4 c 24.47784,-0.002 137.8451,0.15081 144.15915,0.19383 l 6.81285,0.0464 0,0.58183 0,0.58184 -80.9049,0 -80.90489,0 0,-0.7016 z"
     id="path7875"
     inkscape:connector-curvature="0"
     transform="scale(0.8,0.8)" />
  <path
     style="fill:#8cbe8c;fill-opacity:1;stroke:none;stroke-width:3;stroke-miterlimit:4;stroke-dasharray:none;stroke-opacity:1"
     d="m 674.46589,887.26603 c 22.24549,-0.0102 58.66931,-0.0102 80.94181,0 22.27252,0.0102 4.07167,0.0186 -40.44634,0.0186 -44.518,0 -62.74096,-0.008 -40.49547,-0.0186 z"
     id="path7877"
     inkscape:connector-curvature="0"
     transform="scale(0.8,0.8)" />
  <path
     style="fill:#8cbe8c;fill-opacity:1;stroke:none;stroke-width:3;stroke-miterlimit:4;stroke-dasharray:none;stroke-opacity:1"
     d="m 552.77071,886.54536 0,-0.7016 40.61861,0 40.61862,0 0,0.7016 0,0.70159 -40.61862,0 -40.61861,0 0,-0.70159 z"
     id="path7879"
     inkscape:connector-curvature="0"
     transform="scale(0.8,0.8)" />
  <path
     style="fill:#8cbe8c;fill-opacity:1;stroke:none;stroke-width:3;stroke-miterlimit:4;stroke-dasharray:none;stroke-opacity:1"
     d="m 372.06032,1207.5793 c -136.32009,-1.1758 -159.24762,-1.8957 -174.83048,-5.4899 -31.90988,-7.3598 -63.88275,-26.9601 -91.92589,-56.3532 -17.416772,-18.2552 -29.344172,-35.1437 -39.919322,-56.5233 -9.77619,-19.7645 -15.12938,-34.9999 -20.00915,-56.9468 -5.85872,-26.3499 -6.85921,-37.23413 -6.80817,-74.06603 0.053,-38.2816 1.62767,-53.3161 8.54907,-81.6268 13.83005,-56.569 43.60549,-101.9235 88.713602,-135.1302 19.12755,-14.0809 35.87914,-21.9043 62.78346,-29.3213 l 17.67766,-4.8733 411.09808,-0.07 411.09802,-0.07 19.3169,5.6032 c 37.1692,10.7816 58.422,23.6093 87.6614,52.9106 26.0863,26.1416 40.61,48.6534 53.293,82.6041 12.2328,32.7461 17.3751,65.4817 17.38,110.6416 0,35.5109 -1.942,53.57493 -8.6365,80.17473 -11.2037,44.5168 -30.6037,78.8537 -62.7291,111.0268 -27.9598,28.0015 -57.3995,45.2077 -90.4742,52.8782 -6.2378,1.4467 -23.4579,2.3179 -63.65064,3.2202 -76.97832,1.7282 -476.22612,2.6388 -618.58774,1.4109 z m -14.1147,-50.7789 c 21.93846,-4.4591 39.08746,-10.3823 60.23653,-20.8055 60.09425,-29.6172 100.83009,-81.2404 114.4522,-145.04163 3.92534,-18.3848 4.27575,-53.0058 0.72833,-71.9604 -4.9936,-26.6818 -16.19231,-53.5994 -32.07644,-77.1 -11.60422,-17.1684 -39.24807,-44.5087 -56.61708,-55.9953 -31.60922,-20.9041 -66.1927,-33.6784 -103.7299,-38.3154 -16.45925,-2.0333 -53.5595,-0.9758 -69.43797,1.9792 -23.94923,4.457 -50.45039,13.56 -69.22275,23.7777 -57.48769,31.2903 -95.29128,80.7136 -108.570792,141.9422 -4.23332,19.5189 -4.22208,57.0096 0.023,76.5923 7.892202,36.40733 24.442272,68.65383 48.928762,95.33403 35.69528,38.893 82.34528,63.0418 138.44187,71.6657 16.83167,2.5876 59.58918,1.4342 76.84426,-2.0729 z"
     id="path7890"
     inkscape:connector-curvature="0" />
  <ellipse
     style="fill:#ffffff;fill-opacity:1;stroke:none;stroke-width:3;stroke-miterlimit:4;stroke-dasharray:none;stroke-opacity:1"
     id="path4942"
     cx="938.32184"
     cy="953.96729"
     rx="222.74632"
     ry="206.97572" />
</svg>
