<?xml version="1.0" encoding="UTF-8" standalone="no"?>
<svg
   xmlns:dc="http://purl.org/dc/elements/1.1/"
   xmlns:cc="http://creativecommons.org/ns#"
   xmlns:rdf="http://www.w3.org/1999/02/22-rdf-syntax-ns#"
   xmlns:svg="http://www.w3.org/2000/svg"
   xmlns="http://www.w3.org/2000/svg"
   xmlns:sodipodi="http://sodipodi.sourceforge.net/DTD/sodipodi-0.dtd"
   xmlns:inkscape="http://www.inkscape.org/namespaces/inkscape"
   height="24"
   width="24"
   version="1.1"
   id="svg23"
   sodipodi:docname="mActionConnectionSettings.svg"
   inkscape:version="0.91 r13725">
  <metadata
     id="metadata29">
    <rdf:RDF>
      <cc:Work
         rdf:about="">
        <dc:format>image/svg+xml</dc:format>
        <dc:type
           rdf:resource="http://purl.org/dc/dcmitype/StillImage" />
        <dc:title></dc:title>
      </cc:Work>
    </rdf:RDF>
  </metadata>
  <defs
     id="defs27">
    <linearGradient
       id="a-3"
       gradientTransform="matrix(-0.10786508,0.87849049,0.87408031,0.10732357,-1.811623,758.65836)"
       gradientUnits="userSpaceOnUse"
       x1="304.76001"
       x2="335.29999"
       y1="64.294998"
       y2="81.926003">
      <stop
         offset="0"
         stop-color="#d3d7cf"
         id="stop2-6" />
      <stop
         offset=".18304"
         stop-color="#babdb6"
         id="stop4-7" />
      <stop
         offset=".31893"
         stop-color="#fff"
         id="stop6" />
      <stop
         offset=".87644"
         stop-color="#babdb6"
         id="stop8" />
      <stop
         offset="1"
         stop-color="#eeeeec"
         id="stop10" />
    </linearGradient>
    <linearGradient
       id="b"
       gradientTransform="matrix(-0.34112292,0.26690344,0.34708506,0.44633485,7.3860378,1027.6433)"
       gradientUnits="userSpaceOnUse"
       x1="-6.3077998"
       x2="-9.7747002"
       y1="44.229"
       y2="44.139999">
      <stop
         offset="0"
         id="stop13" />
      <stop
         offset="1"
         stop-opacity="0"
         id="stop15" />
    </linearGradient>
    <linearGradient
       id="c"
       gradientTransform="matrix(-0.67481701,0.52736572,0.29432462,0.37835898,77.717559,981.12162)"
       gradientUnits="userSpaceOnUse"
       x1="97.442001"
       x2="90.221001"
       y1="35.152"
       y2="35.078999">
      <stop
         offset="0"
         stop-color="#f8e27e"
         id="stop18" />
      <stop
         offset="1"
         stop-color="#e3d189"
         id="stop20" />
    </linearGradient>
  </defs>
  <sodipodi:namedview
     pagecolor="#ffffff"
     bordercolor="#666666"
     borderopacity="1"
     objecttolerance="10"
     gridtolerance="10"
     guidetolerance="10"
     inkscape:pageopacity="0"
     inkscape:pageshadow="2"
     inkscape:window-width="1615"
     inkscape:window-height="1026"
     id="namedview25"
     showgrid="false"
     inkscape:zoom="13.906433"
     inkscape:cx="23.254249"
     inkscape:cy="14.695924"
     inkscape:window-x="65"
     inkscape:window-y="24"
     inkscape:window-maximized="1"
     inkscape:current-layer="svg23"
     showguides="false" />
  <linearGradient
     id="a"
     gradientUnits="userSpaceOnUse"
     x1="3.5"
     x2="11.5"
     y1="19.5"
     y2="19.5">
    <stop
       offset="0"
       stop-color="#b7b7b7"
       id="stop2" />
    <stop
       offset="1"
       stop-color="#e6e6e6"
       id="stop4" />
  </linearGradient>
  <path
     style="fill:#000000"
     d="M 8.5388014,23.832279 C 8.469503,23.818701 8.129329,23.761615 7.7828498,23.70542 7.4363722,23.649227 6.8316097,23.49143 6.4389341,23.354768 3.5405558,22.346044 1.3848276,20.009462 0.5817251,17.006169 0.38757469,16.280119 0.36372614,16.034722 0.36372614,14.763023 c 0,-1.271701 0.0238469,-1.517097 0.21799896,-2.24315 1.6994272,-6.3552028 9.192122,-8.9407259 14.3990609,-4.9687191 1.58367,1.2080712 2.744228,2.9602481 3.274669,4.9440091 0.201716,0.754387 0.224595,0.985401 0.224595,2.26786 0,1.277129 -0.02329,1.51463 -0.220665,2.249155 -0.960703,3.575454 -3.862686,6.201024 -7.452725,6.742854 -0.703802,0.106218 -1.9102336,0.147316 -2.2678586,0.07725 z M 11.446607,22.742011 C 12.897733,22.374061 14.01,21.7467 15.156833,20.649307 18.085212,17.847171 18.504015,13.305345 16.141084,9.9753178 15.692335,9.3429053 14.567785,8.2628809 13.939711,7.8611076 13.209991,7.3943118 12.297148,7.0003566 11.404611,6.7670362 10.299498,6.4781459 8.6800683,6.4615738 7.5890759,6.7279905 5.9851189,7.1196715 4.5910926,7.9158892 3.4946531,9.0665765 2.4318871,10.181927 1.8163803,11.285229 1.4234883,12.779157 1.132199,13.886755 1.1155532,15.503672 1.3842023,16.59469 c 0.9743357,3.956841 4.4685687,6.595414 8.456516,6.385703 0.4619697,-0.0243 1.1846187,-0.131564 1.6058847,-0.238382 z M 3.7221228,18.935145 c -0.1118905,-0.12363 -0.1390105,-0.33668 -0.1390105,-1.091932 0,-1.18337 0.062937,-1.274306 0.8819441,-1.274306 l 0.5459668,0 0,-0.839948 0,-0.839947 -1.7218932,0 -1.7218918,0 0,-0.251102 0,-0.251101 3.6747701,-0.02188 3.6747701,-0.02188 0.02415,-0.776953 0.02415,-0.776952 -0.5529358,0 c -0.4750735,0 -0.5819662,-0.02903 -0.7591036,-0.206169 -0.1928301,-0.192832 -0.2061716,-0.263489 -0.2061716,-1.091937 0,-1.260159 -0.055474,-1.221741 1.7638913,-1.221741 1.8260213,0 1.7638893,-0.04438 1.7638893,1.259922 0,1.180016 -0.05879,1.25992 -0.927096,1.25992 l -0.591113,0 0.02415,0.776952 0.02415,0.776952 3.632772,0.0219 3.632774,0.0219 0,0.249353 0,0.249353 -1.700893,0.02273 -1.700893,0.02275 0,0.839949 0,0.839946 0.587961,0.02289 c 0.820748,0.03195 0.881946,0.117137 0.881946,1.227649 0,1.280742 0.07681,1.227307 -1.76389,1.227307 -1.839194,0 -1.763889,0.052 -1.763889,-1.217925 0,-1.132435 0.05929,-1.217923 0.84471,-1.217923 l 0.5832,0 0,-0.881944 0,-0.881946 -3.5697772,0 -3.5697771,0 0,0.839948 0,0.839949 0.5272761,0 c 0.8556412,0 0.9006349,0.06253 0.9006349,1.251664 0,1.333875 0.089959,1.268177 -1.7364875,1.268177 -1.2779881,0 -1.4439914,-0.01627 -1.568287,-0.153604 z m 2.6383384,-0.269324 c 0.1405073,-0.0752 0.162467,-0.180781 0.162467,-0.781152 0,-0.427942 -0.038657,-0.732861 -0.1007937,-0.794995 -0.067292,-0.06729 -0.4386384,-0.10079 -1.1171293,-0.10079 -0.6784923,0 -1.0498429,0.0335 -1.1171308,0.10079 -0.061009,0.06102 -0.1007937,0.357043 -0.1007937,0.749952 0,0.893007 0.026182,0.913144 1.1874487,0.913144 0.5079044,0 0.9965749,-0.03913 1.0859311,-0.08695 z m 7.8203758,-0.05207 c 0.12199,-0.110397 0.153605,-0.264755 0.153605,-0.749953 0,-0.85625 -0.02667,-0.874926 -1.249123,-0.874926 -0.654225,0 -1.018996,0.03386 -1.085932,0.10079 -0.135442,0.135443 -0.135442,1.42686 0,1.562304 0.06668,0.06668 0.426904,0.10079 1.06432,0.10079 0.778699,0 0.992991,-0.02667 1.11713,-0.13901 z m -3.797104,-6.407053 c 0.04783,-0.08936 0.08695,-0.410637 0.08695,-0.713956 0,-0.818096 -0.09564,-0.887467 -1.2234453,-0.887467 -1.2108436,0 -1.2124018,0.0012 -1.2124018,0.912898 0,0.40645 0.025199,0.764198 0.055997,0.794996 0.030803,0.0308 0.5397364,0.056 1.1309734,0.056 0.9768327,0 1.0829147,-0.01483 1.1619267,-0.162467 z"
     id="path3368"
     inkscape:connector-curvature="0" />
  <g
     id="g73"
     transform="matrix(0.77430229,0,0,0.77430229,-1.1401741,-794.88025)">
    <path
       inkscape:connector-curvature="0"
       id="path63"
       style="fill:url(#a-3);fill-rule:evenodd;stroke:#3b3b3b;stroke-width:1.0266068;stroke-linecap:round;stroke-linejoin:round;stroke-dashoffset:0.3612"
       d="m 10.457382,1032.309 c -0.0557,-0.8562 0.634116,-0.2492 0.875491,0 1.024776,0.7434 2.030407,1.5156 3.067343,2.2407 0.725037,0.2552 1.421475,-0.3125 1.904389,-0.793 0.69153,-0.772 1.365424,-1.7692 1.239142,-2.855 -0.0999,-0.5511 -0.678194,-0.7556 -1.060023,-1.087 -0.948649,-0.7006 -1.905189,-1.3938 -2.848652,-2.099 0.0499,-0.5363 0.921102,-0.4312 1.352206,-0.4538 1.799481,0.032 3.760889,0.6193 4.847708,2.1483 0.893786,1.2432 1.095967,2.9098 0.645088,4.3593 0.248756,1.355 0.749129,2.6839 1.605411,3.7751 -1.055028,0.7755 -2.110005,1.5509 -3.165032,2.3264 -0.74403,-0.9699 -1.666431,-1.8128 -2.743678,-2.3982 -1.597268,0.2334 -3.230567,-0.5195 -4.193648,-1.7921 -0.762442,-0.9748 -1.327479,-2.1438 -1.525916,-3.3671 z" />
    <path
       inkscape:connector-curvature="0"
       style="opacity:0.23106001;fill:url(#b)"
       id="path65"
       d="m 20.569654,1038.9536 c -0.377958,0.2957 -0.449831,0.8327 -0.161152,1.2039 l 5.276506,7.7275 c 0.288677,0.3713 1.28112,0.076 1.659095,-0.2199 0.377957,-0.2957 0.905829,-1.1891 0.617119,-1.5603 l -6.181727,-7.0148 c -0.288677,-0.3712 -0.825389,-0.432 -1.203364,-0.1363 z" />
    <path
       style="fill:#f0f3f2;fill-rule:evenodd"
       inkscape:connector-curvature="0"
       id="path67"
       d="m 10.776308,1032.3503 c 0.0041,0.017 0.02652,0.01 0.02736,0 l 3.280939,2.4093 c 0.441955,0.3249 1.026164,0.2014 1.532663,-0.063 0.511499,-0.2667 1.030216,-0.7135 1.465827,-1.3248 0.436534,-0.6127 0.691989,-1.2801 0.782256,-1.8547 0.09008,-0.5733 -0.0071,-1.1337 -0.432392,-1.4464 l -3.308254,-2.4126 c -3.27e-4,-0.012 0.0053,-0.029 0.0034,-0.028 -0.02145,0.016 0.01356,0.01 0.02736,0 1.60773,-0.1726 3.391001,0.2382 4.500933,1.0542 1.518297,1.1161 2.06238,3.1241 1.496172,4.9767 -0.567334,1.8439 -2.398541,3.2549 -4.002325,3.466 -1.037771,0.1302 -2.105965,-0.1107 -2.984774,-0.7566 -1.106711,-0.8138 -2.046256,-2.4203 -2.389076,-4.0275 l -9.3e-5,0 z" />
    <path
       inkscape:connector-curvature="0"
       id="path69"
       style="fill:url(#c);stroke:#3b3b3b;stroke-width:0.86699998;stroke-linecap:round;stroke-linejoin:round;stroke-dashoffset:0.69999999"
       d="m 21.969626,1036.9102 9.581585,11.1009 c 0.570734,0.7337 -0.03271,2.1379 -1.34119,3.1605 -1.308483,1.0226 -2.814237,1.2668 -3.384954,0.5331 l -8.399386,-12.0247 3.546142,-2.7701 z m 6.345662,11.8213 c -0.650481,0.5084 -0.785855,1.4312 -0.461469,1.8482 0.324412,0.4169 1.282238,0.4855 1.932707,-0.023 0.650479,-0.5084 0.754739,-1.407 0.430357,-1.8239 -0.324413,-0.417 -1.251126,-0.5098 -1.901595,0 z" />
    <path
       style="fill:#ffffff;fill-opacity:0.57758622;stroke:#3b3b3b;stroke-width:1.28935945"
       inkscape:connector-curvature="0"
       id="path71"
       transform="matrix(0.82455744,-0.56577825,0.66205623,0.74945417,0,0)"
       d="m -679.10767,874.67072 3.57105,0 0,0.57711 -3.57105,0 z" />
  </g>
</svg>
