<?xml version="1.0" standalone="no"?>
<!DOCTYPE svg PUBLIC "-//W3C//DTD SVG 20010904//EN"
 "http://www.w3.org/TR/2001/REC-SVG-20010904/DTD/svg10.dtd">
<svg version="1.0" xmlns="http://www.w3.org/2000/svg"
 width="200.000000pt" height="200.000000pt" viewBox="0 0 200.000000 200.000000"
 preserveAspectRatio="xMidYMid meet">
<metadata>
Created by potrace 1.14, written by Peter Selinger 2001-2017
</metadata>
<g transform="translate(0.000000,200.000000) scale(0.100000,-0.100000)"
fill="#000000" stroke="none">
<path d="M357 1816 c-32 -41 -67 -82 -78 -92 -19 -17 -20 -16 -49 11 l-30 29
-33 -33 -32 -32 68 -65 c54 -51 71 -63 82 -54 7 6 57 65 111 131 l97 120 -29
30 c-15 16 -33 29 -39 29 -5 0 -36 -33 -68 -74z"/>
<path d="M621 1766 c-57 -31 -67 -107 -22 -158 l29 -33 549 -3 c527 -2 549 -1
579 17 46 28 61 80 37 128 -10 21 -29 43 -43 50 -38 19 -1095 18 -1129 -1z"/>
<path d="M202 1327 c-29 -31 -28 -37 13 -77 l35 -34 -36 -37 c-31 -31 -34 -40
-25 -57 23 -43 43 -44 83 -5 l37 36 42 -38 41 -37 31 31 31 31 -39 40 -39 40
39 40 39 40 -24 25 c-31 33 -40 32 -80 -10 l-34 -35 -36 35 c-42 41 -50 42
-78 12z"/>
<path d="M599 1271 c-23 -23 -29 -38 -29 -71 0 -33 6 -48 29 -71 l29 -29 556
0 556 0 31 28 c26 24 32 36 32 72 0 36 -6 48 -32 72 l-31 28 -556 0 -556 0
-29 -29z"/>
<path d="M217 849 c-9 -6 -22 -19 -28 -31 -9 -17 -6 -26 25 -57 l36 -37 -35
-34 c-41 -40 -43 -49 -12 -78 31 -29 37 -28 77 13 l34 35 36 -35 c43 -42 49
-42 79 -11 26 27 21 44 -23 85 l-26 25 37 38 37 38 -31 31 -31 31 -39 -36 -40
-36 -24 26 c-33 36 -52 44 -72 33z"/>
<path d="M643 823 c-37 -7 -73 -59 -73 -105 0 -30 7 -46 29 -69 l29 -29 555 0
c541 0 555 0 580 20 39 31 52 81 32 124 -32 67 -23 66 -607 65 -287 -1 -533
-4 -545 -6z"/>
<path d="M202 357 c-29 -31 -28 -37 13 -77 l35 -34 -35 -36 c-41 -42 -42 -50
-12 -78 31 -29 37 -28 77 13 l34 35 38 -37 38 -37 32 32 32 32 -37 38 -37 38
35 34 c41 40 43 49 12 78 -31 29 -37 28 -77 -13 l-34 -35 -36 35 c-42 41 -50
42 -78 12z"/>
<path d="M621 336 c-57 -31 -67 -107 -22 -158 l29 -33 549 -3 c527 -2 549 -1
579 17 46 28 61 80 37 128 -10 21 -29 43 -43 50 -38 19 -1095 18 -1129 -1z"/>
</g>
</svg>
