<?xml version="1.0" encoding="UTF-8" ?>
<!DOCTYPE svg PUBLIC "-//W3C//DTD SVG 1.1//EN" "http://www.w3.org/Graphics/SVG/1.1/DTD/svg11.dtd">
<svg width="1262pt" height="1262pt" viewBox="0 0 1262 1262" version="1.1" xmlns="http://www.w3.org/2000/svg">
<g id="#000000ff">
<path fill="#000000" opacity="1.00" d=" M 252.01 315.23 C 254.65 312.27 257.24 309.27 260.06 306.49 C 282.05 306.60 304.04 306.44 326.03 306.57 C 328.62 306.36 330.10 308.77 331.71 310.37 C 333.52 312.62 336.35 314.68 336.00 317.91 C 335.97 328.67 336.03 339.44 335.97 350.20 C 336.22 353.21 333.82 355.29 332.05 357.36 C 332.02 408.03 332.03 458.70 332.04 509.38 C 340.67 509.47 349.33 509.02 357.94 509.90 C 412.29 509.95 466.65 509.90 521.00 509.92 C 529.76 510.17 538.48 508.93 547.26 509.39 C 554.06 501.83 559.60 493.09 567.27 486.34 C 574.22 480.51 583.72 482.64 592.02 482.23 C 598.28 481.83 604.41 484.84 608.51 489.48 C 614.30 495.77 619.57 502.52 624.70 509.36 C 633.47 508.97 642.20 510.15 650.97 509.92 C 723.96 509.91 796.95 509.93 869.93 509.91 C 874.58 509.58 879.23 509.17 883.90 509.38 C 883.75 501.48 884.26 493.56 883.58 485.69 C 886.23 482.67 888.93 479.69 891.60 476.68 C 908.53 476.70 925.47 476.70 942.41 476.68 C 944.98 479.76 947.93 482.54 950.35 485.76 C 950.94 493.59 950.39 501.50 950.58 509.37 C 956.72 509.05 962.81 510.12 968.95 509.94 C 1015.30 509.89 1061.65 509.93 1108.00 509.92 C 1117.69 510.01 1127.42 509.47 1137.04 510.86 C 1157.90 512.35 1178.02 519.05 1196.65 528.28 C 1221.51 541.97 1242.05 563.88 1252.69 590.32 C 1264.47 618.92 1263.68 652.43 1250.50 680.42 C 1242.55 695.12 1233.23 709.47 1220.51 720.51 C 1206.52 732.98 1189.81 742.28 1172.00 748.02 C 1158.45 752.48 1144.22 754.41 1130.05 755.47 C 960.72 755.50 791.38 755.43 622.05 755.51 C 615.13 756.30 609.71 751.19 603.87 748.40 C 603.09 749.21 602.33 750.02 601.57 750.85 C 591.70 750.79 581.82 750.94 571.96 750.80 C 570.41 750.90 569.60 749.25 568.49 748.50 C 563.94 750.41 559.95 753.82 555.05 754.75 C 473.34 754.83 391.62 754.75 309.91 754.79 C 306.19 755.11 303.73 751.23 300.06 751.42 C 282.69 751.42 265.32 751.46 247.96 751.40 C 244.45 750.98 241.94 753.81 239.21 755.49 C 228.12 755.42 217.01 755.54 205.92 755.45 C 198.67 754.68 191.37 754.74 184.15 753.73 C 156.34 750.32 129.27 741.86 103.98 729.97 C 78.22 717.98 54.00 702.30 33.41 682.65 C 26.73 675.60 20.49 668.15 13.96 660.97 C 6.72 652.44 0.34 641.88 1.25 630.28 C 2.47 616.25 12.56 605.48 21.39 595.40 C 38.47 575.10 60.18 559.26 82.96 545.94 C 89.05 542.85 94.62 538.75 101.08 536.41 C 101.61 530.99 104.99 526.64 108.74 522.97 C 108.72 521.12 108.70 519.28 108.68 517.45 C 110.55 515.34 112.43 513.23 114.30 511.12 C 120.42 511.12 126.55 511.14 132.68 511.10 C 133.09 511.52 133.92 512.35 134.33 512.76 C 148.89 512.64 163.45 512.86 178.00 512.65 C 179.41 511.13 181.30 510.49 183.30 510.20 C 186.26 508.61 189.67 508.21 192.99 508.25 C 213.98 508.30 234.97 508.26 255.97 508.27 C 255.94 458.16 255.97 408.05 255.96 357.93 C 254.33 355.88 251.77 354.00 252.00 351.10 C 251.99 339.14 251.99 327.19 252.01 315.23 M 885.89 540.36 C 885.88 601.87 885.88 663.38 885.89 724.89 C 961.24 724.84 1036.59 724.89 1111.94 724.87 C 1122.97 724.76 1134.14 725.47 1145.01 723.13 C 1175.56 717.45 1203.88 697.52 1217.06 669.04 C 1226.80 648.36 1227.67 623.72 1219.49 602.39 C 1214.29 589.13 1205.97 577.12 1195.46 567.52 C 1181.65 554.87 1164.22 546.36 1145.88 542.72 C 1134.77 540.45 1123.37 540.29 1112.07 540.37 C 1036.67 540.36 961.28 540.40 885.89 540.36 M 191.04 543.04 C 167.40 546.35 144.54 553.96 122.77 563.61 C 98.10 574.57 74.82 588.96 54.44 606.73 C 50.51 610.01 47.50 614.23 43.44 617.36 C 39.30 622.07 35.39 627.06 32.58 632.70 C 39.66 645.36 50.51 655.29 61.57 664.42 C 83.56 682.06 108.30 696.22 134.46 706.70 C 160.63 716.77 188.27 723.93 216.42 724.53 C 220.06 724.69 224.31 725.85 227.41 723.37 C 229.01 722.17 230.72 720.84 232.86 721.11 C 259.91 721.12 286.96 721.13 314.02 721.10 C 317.10 720.73 319.50 722.97 322.04 724.33 C 395.38 724.34 468.72 724.38 542.06 724.31 C 544.65 722.83 547.46 721.78 550.01 720.21 C 562.54 713.34 577.07 709.92 591.36 711.34 C 603.54 711.63 615.31 716.04 625.72 722.17 C 629.72 724.57 634.48 724.66 639.01 724.84 C 715.20 724.82 791.39 724.83 867.59 724.83 C 867.56 663.50 867.62 602.17 867.56 540.84 C 789.78 540.85 712.00 540.84 634.22 540.85 C 628.33 544.83 623.04 549.86 616.36 552.52 C 605.24 557.28 592.97 559.76 580.88 558.38 C 572.42 558.20 564.19 555.86 556.46 552.56 C 549.80 549.21 544.05 544.26 537.38 540.95 C 422.62 540.69 307.84 540.96 193.07 540.81 C 192.40 541.55 191.72 542.29 191.04 543.04 Z" />
<path fill="#000000" opacity="1.00" d=" M 146.90 575.81 C 152.54 574.74 158.20 572.93 164.01 573.76 C 166.21 575.19 168.37 577.26 169.14 579.82 C 169.45 585.33 169.03 590.86 169.09 596.38 C 172.58 595.16 176.20 594.09 179.92 594.13 C 215.31 594.14 250.69 594.16 286.07 594.13 C 290.50 593.89 294.69 596.19 297.79 599.19 C 302.01 603.69 306.57 608.21 308.62 614.19 C 311.81 621.75 310.55 630.04 310.81 638.00 C 311.19 646.97 307.67 656.01 301.27 662.32 C 297.76 666.68 293.10 670.81 287.25 671.18 C 251.84 671.23 216.43 671.17 181.02 671.21 C 176.92 671.31 172.95 670.18 169.10 668.92 C 168.98 674.59 169.56 680.29 169.06 685.95 C 168.04 688.06 166.34 689.86 164.47 691.27 C 162.19 691.97 159.68 691.61 157.32 691.50 C 143.53 689.00 129.80 686.19 116.12 683.16 C 116.13 649.37 116.13 615.58 116.12 581.79 C 126.36 579.68 136.63 577.77 146.90 575.81 M 133.32 598.79 C 133.32 621.35 133.34 643.91 133.31 666.47 C 139.45 667.61 145.58 668.80 151.73 669.93 C 151.73 645.05 151.70 620.17 151.74 595.29 C 145.61 596.51 139.47 597.66 133.32 598.79 M 169.11 619.83 C 169.33 628.41 168.82 637.04 169.36 645.60 C 172.93 648.17 177.00 650.02 181.24 651.19 C 186.36 652.81 191.76 652.16 197.04 652.28 C 224.06 652.29 251.08 652.26 278.10 652.29 C 280.40 652.40 282.62 651.63 284.64 650.60 C 291.00 647.68 292.53 639.94 293.80 633.75 C 293.80 627.94 291.68 622.10 288.45 617.28 C 285.35 614.50 281.22 612.74 277.01 612.91 C 248.02 612.93 219.02 612.94 190.03 612.91 C 182.53 612.87 175.20 615.54 169.11 619.83 Z" />
</g>
<g id="#dea305ff">
<path fill="#dea305" opacity="1.00" d=" M 885.89 540.36 C 961.28 540.40 1036.67 540.36 1112.07 540.37 C 1123.37 540.29 1134.77 540.45 1145.88 542.72 C 1164.22 546.36 1181.65 554.87 1195.46 567.52 C 1205.97 577.12 1214.29 589.13 1219.49 602.39 C 1227.67 623.72 1226.80 648.36 1217.06 669.04 C 1203.88 697.52 1175.56 717.45 1145.01 723.13 C 1134.14 725.47 1122.97 724.76 1111.94 724.87 C 1036.59 724.89 961.24 724.84 885.89 724.89 C 885.88 663.38 885.88 601.87 885.89 540.36 Z" />
</g>
<g id="#ffffffff">
<path fill="#ffffff" opacity="1.00" d=" M 191.04 543.04 C 191.72 542.29 192.40 541.55 193.07 540.81 C 307.84 540.96 422.62 540.69 537.38 540.95 C 544.05 544.26 549.80 549.21 556.46 552.56 C 564.19 555.86 572.42 558.20 580.88 558.38 C 592.97 559.76 605.24 557.28 616.36 552.52 C 623.04 549.86 628.33 544.83 634.22 540.85 C 712.00 540.84 789.78 540.85 867.56 540.84 C 867.62 602.17 867.56 663.50 867.59 724.83 C 791.39 724.83 715.20 724.82 639.01 724.84 C 634.48 724.66 629.72 724.57 625.72 722.17 C 615.31 716.04 603.54 711.63 591.36 711.34 C 577.07 709.92 562.54 713.34 550.01 720.21 C 547.46 721.78 544.65 722.83 542.06 724.31 C 468.72 724.38 395.38 724.34 322.04 724.33 C 319.50 722.97 317.10 720.73 314.02 721.10 C 286.96 721.13 259.91 721.12 232.86 721.11 C 230.72 720.84 229.01 722.17 227.41 723.37 C 224.31 725.85 220.06 724.69 216.42 724.53 C 188.27 723.93 160.63 716.77 134.46 706.70 C 108.30 696.22 83.56 682.06 61.57 664.42 C 50.51 655.29 39.66 645.36 32.58 632.70 C 35.39 627.06 39.30 622.07 43.44 617.36 C 47.50 614.23 50.51 610.01 54.44 606.73 C 74.82 588.96 98.10 574.57 122.77 563.61 C 144.54 553.96 167.40 546.35 191.04 543.04 M 146.90 575.81 C 136.63 577.77 126.36 579.68 116.12 581.79 C 116.13 615.58 116.13 649.37 116.12 683.16 C 129.80 686.19 143.53 689.00 157.32 691.50 C 159.68 691.61 162.19 691.97 164.47 691.27 C 166.34 689.86 168.04 688.06 169.06 685.95 C 169.56 680.29 168.98 674.59 169.10 668.92 C 172.95 670.18 176.92 671.31 181.02 671.21 C 216.43 671.17 251.84 671.23 287.25 671.18 C 293.10 670.81 297.76 666.68 301.27 662.32 C 307.67 656.01 311.19 646.97 310.81 638.00 C 310.55 630.04 311.81 621.75 308.62 614.19 C 306.57 608.21 302.01 603.69 297.79 599.19 C 294.69 596.19 290.50 593.89 286.07 594.13 C 250.69 594.16 215.31 594.14 179.92 594.13 C 176.20 594.09 172.58 595.16 169.09 596.38 C 169.03 590.86 169.45 585.33 169.14 579.82 C 168.37 577.26 166.21 575.19 164.01 573.76 C 158.20 572.93 152.54 574.74 146.90 575.81 Z" />
<path fill="#ffffff" opacity="1.00" d=" M 133.32 598.79 C 139.47 597.66 145.61 596.51 151.74 595.29 C 151.70 620.17 151.73 645.05 151.73 669.93 C 145.58 668.80 139.45 667.61 133.31 666.47 C 133.34 643.91 133.32 621.35 133.32 598.79 Z" />
<path fill="#ffffff" opacity="1.00" d=" M 169.11 619.83 C 175.20 615.54 182.53 612.87 190.03 612.91 C 219.02 612.94 248.02 612.93 277.01 612.91 C 281.22 612.74 285.35 614.50 288.45 617.28 C 291.68 622.10 293.80 627.94 293.80 633.75 C 292.53 639.94 291.00 647.68 284.64 650.60 C 282.62 651.63 280.40 652.40 278.10 652.29 C 251.08 652.26 224.06 652.29 197.04 652.28 C 191.76 652.16 186.36 652.81 181.24 651.19 C 177.00 650.02 172.93 648.17 169.36 645.60 C 168.82 637.04 169.33 628.41 169.11 619.83 Z" />
</g>
</svg>
