<?xml version="1.0" standalone="no"?>
<!DOCTYPE svg PUBLIC "-//W3C//DTD SVG 20010904//EN"
 "http://www.w3.org/TR/2001/REC-SVG-20010904/DTD/svg10.dtd">
<svg version="1.0" xmlns="http://www.w3.org/2000/svg"
 width="256.000000pt" height="256.000000pt" viewBox="0 0 256.000000 256.000000"
 preserveAspectRatio="xMidYMid meet">
<metadata>
Created by potrace 1.14, written by Peter Selinger 2001-2017
</metadata>
<g transform="translate(0.000000,256.000000) scale(0.100000,-0.100000)"
fill="#000000" stroke="none">
<path d="M522 2414 c-177 -60 -306 -195 -359 -375 -13 -44 -17 -127 -20 -456
l-5 -403 201 0 201 0 66 139 c64 136 84 162 108 142 6 -5 76 -138 156 -295 80
-157 147 -286 150 -286 3 0 41 134 84 298 271 1022 251 954 279 950 26 -4 35
-38 138 -520 35 -164 66 -298 70 -298 3 0 23 75 44 168 43 190 48 204 77 200
17 -3 33 -41 100 -238 44 -129 83 -238 87 -242 3 -4 122 -8 264 -10 l259 -3
-5 400 c-4 432 -6 447 -62 562 -33 67 -123 166 -192 209 -28 19 -85 45 -126
59 l-76 25 -683 0 -683 -1 -73 -25z"/>
<path d="M1368 1933 c-11 -64 -309 -1158 -319 -1168 -6 -6 -15 -6 -26 1 -9 6
-85 142 -167 302 -83 160 -153 292 -156 292 -3 0 -31 -52 -63 -115 -42 -86
-62 -116 -79 -120 -13 -3 -112 -5 -222 -3 l-198 3 4 -250 c5 -219 8 -258 26
-316 42 -128 149 -258 261 -318 129 -68 104 -66 851 -66 747 0 722 -2 851 66
112 60 219 190 261 318 18 58 21 97 26 319 l4 252 -270 0 c-149 0 -277 3 -286
6 -9 3 -41 84 -82 207 -37 111 -70 195 -72 187 -3 -8 -26 -100 -51 -205 -45
-183 -47 -190 -71 -190 -29 0 -28 -7 -135 495 -38 173 -71 319 -75 323 -4 5
-10 -4 -12 -20z"/>
</g>
</svg>
