<?xml version="1.0" encoding="UTF-8" standalone="no"?>
<svg
   xmlns:dc="http://purl.org/dc/elements/1.1/"
   xmlns:cc="http://creativecommons.org/ns#"
   xmlns:rdf="http://www.w3.org/1999/02/22-rdf-syntax-ns#"
   xmlns:svg="http://www.w3.org/2000/svg"
   xmlns="http://www.w3.org/2000/svg"
   xmlns:sodipodi="http://sodipodi.sourceforge.net/DTD/sodipodi-0.dtd"
   xmlns:inkscape="http://www.inkscape.org/namespaces/inkscape"
   version="1.0"
   width="512.000000pt"
   height="512.000000pt"
   viewBox="0 0 512.000000 512.000000"
   preserveAspectRatio="xMidYMid meet"
   id="svg3452"
   inkscape:version="0.91 r13725"
   sodipodi:docname="stopGoto.svg">
  <defs
     id="defs3484" />
  <sodipodi:namedview
     pagecolor="#ffffff"
     bordercolor="#666666"
     borderopacity="1"
     objecttolerance="10"
     gridtolerance="10"
     guidetolerance="10"
     inkscape:pageopacity="0"
     inkscape:pageshadow="2"
     inkscape:window-width="1375"
     inkscape:window-height="876"
     id="namedview3482"
     showgrid="false"
     inkscape:zoom="0.55234375"
     inkscape:cx="116.62012"
     inkscape:cy="210.9361"
     inkscape:window-x="65"
     inkscape:window-y="24"
     inkscape:window-maximized="1"
     inkscape:current-layer="svg3452" />
  <metadata
     id="metadata3454">
Created by potrace 1.14, written by Peter Selinger 2001-2017
<rdf:RDF>
  <cc:Work
     rdf:about="">
    <dc:format>image/svg+xml</dc:format>
    <dc:type
       rdf:resource="http://purl.org/dc/dcmitype/StillImage" />
    <dc:title></dc:title>
  </cc:Work>
</rdf:RDF>
</metadata>
  <g
     transform="translate(0.000000,512.000000) scale(0.100000,-0.100000)"
     fill="#000000"
     stroke="none"
     id="g3456">
    <path
       d="M1403 5106 c-503 -96 -897 -566 -920 -1096 -9 -211 33 -372 167 -645 209 -425 632 -939 857 -1042 43 -20 58 -22 87 -15 57 16 144 81 260 192 369 355 701 893 782 1267 22 103 22 282 0 396 -87 450 -421 820 -839 928 -105 27 -293 34 -394 15z m341 -381 c235 -62 429 -256 493 -496 26 -98 24 -264 -6 -359 -38 -125 -87 -206 -176 -295 -139 -138 -262 -193 -451 -202 -137 -7 -231 12 -342 67 -146 74 -248 178 -318 324 -50 104 -67 196 -61 329 8 189 64 314 202 452 105 105 225 168 373 195 64 12 214 4 286 -15z"
       id="path3458" />
    <path
       d="M488 3094 c-18 -9 -31 -27 -37 -52 -13 -49 -433 -2906 -434 -2955 -1 -31 4 -44 26 -63 l28 -24 2489 0 2489 0 28 24 c24 20 28 31 26 68 -3 57 -429 2948 -438 2971 -19 48 10 47 -1139 47 l-1075 0 -51 -75 c-28 -41 -53 -82 -56 -90 -5 -13 120 -15 1082 -15 l1089 0 199 -1355 c109 -746 201 -1367 204 -1380 l4 -25 -2362 0 -2362 0 4 23 c2 12 94 633 204 1379 l199 1358 98 0 c54 0 97 3 95 8 -2 4 -27 44 -57 90 l-53 82 -87 0 c-56 -1 -95 -6 -113 -16z"
       id="path3460" />
    <path
       d="M1530 2125 c-19 -23 -7 -149 21 -220 21 -51 28 -60 52 -63 56 -7 70 30 42 108 -8 24 -18 68 -21 99 -4 31 -14 64 -22 74 -19 21 -55 22 -72 2z"
       id="path3462" />
    <path
       d="M3323 1903 c-32 -4 -63 -34 -63 -60 0 -6 7 -19 16 -27 12 -13 37 -15 139 -12 132 4 155 11 155 51 0 43 -28 55 -126 53 -49 0 -104 -3 -121 -5z"
       id="path3464" />
    <path
       d="M3703 1859 c-27 -10 -40 -53 -23 -74 7 -8 36 -26 66 -39 29 -14 74 -39 100 -57 39 -26 51 -30 73 -23 19 7 27 17 29 40 3 26 -3 37 -35 61 -36 29 -118 74 -166 92 -12 5 -32 5 -44 0z"
       id="path3466" />
    <path
       d="M3085 1853 c-11 -3 -62 -18 -112 -34 -96 -31 -120 -51 -108 -89 13 -42 38 -43 156 -5 62 19 118 40 125 46 19 15 18 54 -2 73 -16 16 -24 17 -59 9z"
       id="path3468" />
    <path
       d="M1713 1769 c-29 -11 -38 -45 -20 -73 18 -27 109 -89 173 -117 42 -19 47 -19 70 -5 47 31 26 79 -48 110 -19 8 -55 30 -79 49 -55 41 -68 46 -96 36z"
       id="path3470" />
    <path
       d="M2605 1695 c-55 -18 -108 -38 -117 -44 -24 -15 -23 -54 2 -76 20 -18 23 -18 128 14 126 38 152 53 152 86 0 23 -33 56 -55 54 -5 0 -55 -16 -110 -34z"
       id="path3472" />
    <path
       d="M2192 1621 c-85 -5 -115 -10 -122 -21 -14 -21 -12 -43 4 -65 13 -18 27 -20 130 -19 128 1 166 14 166 59 0 23 -34 57 -55 53 -5 -1 -61 -4 -123 -7z"
       id="path3474" />
    <path
       d="M4006 1594 c-23 -22 -21 -34 23 -116 21 -40 42 -84 46 -98 17 -58 58 -76 90 -40 23 25 16 68 -24 153 -54 112 -94 142 -135 101z"
       id="path3476" />
    <path
       d="M4116 1198 c-9 -12 -16 -39 -16 -58 0 -20 -8 -68 -19 -108 -16 -62 -17 -74 -4 -92 9 -12 25 -20 44 -20 25 0 33 6 46 38 8 20 22 76 31 124 14 80 14 88 -2 112 -21 33 -59 34 -80 4z"
       id="path3478" />
    <path
       d="M3810 771 c-50 -14 -35 -42 50 -100 44 -30 78 -57 75 -60 -3 -3 -47 -32 -98 -66 -95 -62 -114 -88 -81 -112 32 -23 61 -14 167 56 l105 69 102 -69 c65 -44 112 -69 129 -69 32 0 64 30 56 52 -3 9 -51 44 -105 78 -113 72 -114 57 8 139 66 44 71 51 48 70 -30 25 -73 15 -155 -38 -44 -28 -82 -51 -84 -51 -3 0 -44 25 -92 55 -49 30 -91 55 -94 54 -3 -1 -17 -4 -31 -8z"
       id="path3480" />
  </g>
  <g
     style="display:inline"
     id="g4410"
     transform="matrix(22.235906,0,0,22.815254,-27.800487,-221.33011)">
    <rect
       style="display:inline;fill:#d26464;fill-opacity:1;stroke:#555753;stroke-width:0;stroke-linejoin:round;stroke-miterlimit:4;stroke-dasharray:none;stroke-opacity:1"
       id="rect2758"
       y="22"
       x="14.000001"
       ry="2.0114901"
       rx="2.0114901"
       height="10.000001"
       width="9.999999" />
    <path
       inkscape:connector-curvature="0"
       style="display:inline;opacity:0.3;fill:#fcffff;fill-rule:evenodd;stroke:none;enable-background:new"
       id="path6994"
       d="M 15.000001,27 23,27 c 0,0 0,0 0,-2 0,-2 -0.5,-2 -4,-2 -3.499999,0 -3.999999,0 -3.999999,2 0,2 0,2 0,2 z" />
    <path
       inkscape:connector-curvature="0"
       style="display:inline;overflow:visible;visibility:visible;fill:#ffffff;fill-opacity:1;fill-rule:evenodd;stroke:#ffffff;stroke-width:2;stroke-linecap:round;stroke-linejoin:round;stroke-miterlimit:4;stroke-dasharray:none;stroke-dashoffset:0;stroke-opacity:1;marker:none;enable-background:accumulate"
       id="path4073"
       d="m 16.87868,29.12132 4.24264,-4.24264" />
    <path
       inkscape:connector-curvature="0"
       style="display:inline;overflow:visible;visibility:visible;fill:#ffffff;fill-opacity:1;fill-rule:evenodd;stroke:#ffffff;stroke-width:2;stroke-linecap:round;stroke-linejoin:round;stroke-miterlimit:4;stroke-dasharray:none;stroke-dashoffset:0;stroke-opacity:1;marker:none;enable-background:accumulate"
       id="path4073-5"
       d="m 16.87868,24.87868 4.24264,4.24264" />
  </g>
</svg>
