<?xml version="1.0" encoding="UTF-8" standalone="no"?>
<svg
   xmlns:dc="http://purl.org/dc/elements/1.1/"
   xmlns:cc="http://creativecommons.org/ns#"
   xmlns:rdf="http://www.w3.org/1999/02/22-rdf-syntax-ns#"
   xmlns:svg="http://www.w3.org/2000/svg"
   xmlns="http://www.w3.org/2000/svg"
   xmlns:sodipodi="http://sodipodi.sourceforge.net/DTD/sodipodi-0.dtd"
   xmlns:inkscape="http://www.inkscape.org/namespaces/inkscape"
   height="351.92435"
   width="171.4012"
   id="svg3432"
   version="1.1"
   inkscape:version="0.91 r13725"
   sodipodi:docname="vessel.svg">
  <metadata
     id="metadata3444">
    <rdf:RDF>
      <cc:Work
         rdf:about="">
        <dc:format>image/svg+xml</dc:format>
        <dc:type
           rdf:resource="http://purl.org/dc/dcmitype/StillImage" />
        <dc:title></dc:title>
      </cc:Work>
    </rdf:RDF>
  </metadata>
  <defs
     id="defs3442" />
  <sodipodi:namedview
     pagecolor="#ffffff"
     bordercolor="#666666"
     borderopacity="1"
     objecttolerance="10"
     gridtolerance="10"
     guidetolerance="10"
     inkscape:pageopacity="0"
     inkscape:pageshadow="2"
     inkscape:window-width="1855"
     inkscape:window-height="1056"
     id="namedview3440"
     showgrid="false"
     inkscape:zoom="1.8673308"
     inkscape:cx="77.06196"
     inkscape:cy="173.31933"
     inkscape:window-x="65"
     inkscape:window-y="24"
     inkscape:window-maximized="1"
     inkscape:current-layer="svg3432"
     fit-margin-top="0"
     fit-margin-left="0"
     fit-margin-right="0"
     fit-margin-bottom="0" />
  <path
     sodipodi:nodetypes="ssssssscccs"
     inkscape:connector-curvature="0"
     id="path3463"
     d="M 3.0761174,251.77267 C 3.4490874,157.23004 3.2148343,162.65878 4.4232073,151.11396 8.4457002,112.68298 35.425148,60.61572 73.808968,15.5009 79.807918,8.44995 85.121758,2.681 85.617488,2.681 c 1.21576,0 22.137662,23.03445 30.839742,33.953743 28.27909,35.484358 46.91322,78.306257 51.05596,117.328427 0.73593,6.93203 1.20701,47.25829 1.20701,103.32475 l 0,91.95542 -83.014302,0 -83.0143006,0 z"
     style="fill:none;fill-opacity:1;stroke:#000000;stroke-width:5.36199999;stroke-miterlimit:4;stroke-dasharray:none;stroke-opacity:1" />
  <path
     style="fill:none"
     d="M 3.1618231,260.49085 C 3.1725312,210.64029 3.3991364,165.99769 3.6653904,161.28508 4.3449249,149.25754 7.5836646,134.25798 13.031545,117.90765 20.879231,94.354965 34.47067,68.759489 51.860603,44.784548 60.779855,32.487859 84.484455,3.8410936 85.740456,3.8410936 c 1.4711,0 25.512914,27.1285864 34.283394,38.6851014 26.51072,34.932123 43.70961,74.595225 47.54906,109.654975 0.61862,5.64886 1.4773,95.65082 1.54429,161.86206 l 0.0375,37.08502 -83.006184,0 -83.0061819,0 0.019469,-90.6374 z"
     id="path3339"
     inkscape:connector-curvature="0" />
  <path
     sodipodi:nodetypes="ssssssscccs"
     inkscape:connector-curvature="0"
     id="path3463-3"
     d="m 10.928452,250.06348 c 0.33945,-89.70363 0.20288,-84.5595 1.226013,-95.50668 C 15.334037,120.53646 40.369796,68.690555 75.303486,25.884861 80.76322,19.1948 85.599432,13.721123 86.050599,13.721123 c 1.106487,0 20.147821,21.85547 28.067701,32.21588 25.73723,33.668153 42.69643,74.298287 46.46681,111.323187 0.66978,6.57721 1.09851,44.83945 1.09851,98.03624 l 0,87.24884 -75.552556,0 -75.552565,0 z"
     style="fill:none;fill-opacity:1;stroke:#000000;stroke-width:1.07935643;stroke-opacity:1" />
</svg>
