<?xml version="1.0" encoding="UTF-8" standalone="no"?>
<svg
   xmlns:dc="http://purl.org/dc/elements/1.1/"
   xmlns:cc="http://creativecommons.org/ns#"
   xmlns:rdf="http://www.w3.org/1999/02/22-rdf-syntax-ns#"
   xmlns:svg="http://www.w3.org/2000/svg"
   xmlns="http://www.w3.org/2000/svg"
   xmlns:sodipodi="http://sodipodi.sourceforge.net/DTD/sodipodi-0.dtd"
   xmlns:inkscape="http://www.inkscape.org/namespaces/inkscape"
   width="1262pt"
   height="1262pt"
   viewBox="0 0 1262 1262"
   version="1.1"
   id="svg2"
   inkscape:version="0.91 r13725"
   sodipodi:docname="mActionAUVPose_g500.svg">
  <metadata
     id="metadata29">
    <rdf:RDF>
      <cc:Work
         rdf:about="">
        <dc:format>image/svg+xml</dc:format>
        <dc:type
           rdf:resource="http://purl.org/dc/dcmitype/StillImage" />
        <dc:title></dc:title>
      </cc:Work>
    </rdf:RDF>
  </metadata>
  <defs
     id="defs27" />
  <sodipodi:namedview
     pagecolor="#ffffff"
     bordercolor="#666666"
     borderopacity="1"
     objecttolerance="10"
     gridtolerance="10"
     guidetolerance="10"
     inkscape:pageopacity="0"
     inkscape:pageshadow="2"
     inkscape:window-width="1855"
     inkscape:window-height="1056"
     id="namedview25"
     showgrid="false"
     inkscape:zoom="0.21157173"
     inkscape:cx="845.10159"
     inkscape:cy="650.06865"
     inkscape:window-x="1985"
     inkscape:window-y="24"
     inkscape:window-maximized="1"
     inkscape:current-layer="svg2" />
  <g
     id="g4157"
     transform="matrix(1.3129126,0,0,1.3129126,-394.89578,-494.677)">
    <g
       id="#000000ff">
      <path
         id="path13"
         d="m 507.4,465.38 c 2.81,-0.68 5.75,-0.35 8.62,-0.4 17.73,0.08 35.46,0.03 53.19,0.02 3.21,3.16 6.38,6.36 9.6,9.52 0.16,11.34 0.05,22.69 0.03,34.04 -1.04,1.1 -2.07,2.2 -3.1,3.32 0.03,34.22 0.02,68.45 0.01,102.68 64.28,-0.39 128.57,-0.35 192.85,-0.31 0.01,-6.07 0.01,-12.13 0.01,-18.2 3.44,-3.46 6.89,-6.91 10.37,-10.34 15.71,0.01 31.42,0.01 47.13,0 3.5,3.44 6.99,6.9 10.42,10.41 -0.04,6.04 -0.03,12.08 -0.02,18.13 78.16,-0.01 156.32,-0.02 234.49,0 23.67,-0.08 47.34,0.51 71.02,0.31 10.41,0.21 20.91,-0.68 31.23,1.14 19.22,2.97 37.53,11.93 51.46,25.54 7.07,6.94 14.4,13.76 20.05,21.97 10.36,14.51 16.06,32.08 17.24,49.81 l 0,28.06 c -1.38,16.87 -6.63,33.59 -16.28,47.59 -6.09,9.34 -14.46,16.8 -22.25,24.67 -13.43,12.48 -30.56,20.88 -48.62,24.03 -8.86,1.51 -17.88,1.39 -26.84,1.55 -33.01,0.02 -66.03,0.02 -99.05,0.01 -8.91,0.39 -17.91,-0.76 -26.75,0.76 -0.04,65.84 0,131.67 -0.02,197.51 41.27,-0.22 82.53,0.42 123.8,0.39 9.19,-0.01 18.43,-0.32 27.53,1.19 17.66,2.93 34.5,10.92 47.96,22.72 11.17,10.59 22.78,21.38 29.64,35.42 6.43,12.04 9.89,25.51 10.88,39.09 l 0,28.52 c -1.69,21.04 -9.71,41.9 -24.22,57.43 -10.58,11.47 -21.81,22.94 -36.06,29.77 -11.63,6.03 -24.57,9.2 -37.57,10.27 l -667.29,0 c -34.82,-2.26 -69.02,-13.07 -98.76,-31.3 -3.99,-3.02 -7.37,-6.78 -10.33,-10.79 -25.27,-0.12 -50.55,-0.01 -75.82,-0.04 -4.32,0.29 -6.6,-4.11 -9.46,-6.59 0.05,-17.09 0.04,-34.18 0.01,-51.28 0.06,-4.16 -0.46,-8.47 1,-12.45 2.38,-6.66 6.46,-12.63 11.44,-17.61 6.52,-6.51 12.78,-13.78 21.52,-17.35 4.59,-1.75 7.46,-5.9 11.12,-8.93 20.81,-17.84 43.11,-34.31 68,-46.04 27.22,-13.2 57.12,-21.37 87.45,-22.04 26.62,0.02 53.23,-0.01 79.85,0.01 -0.01,-31.28 0.02,-62.56 -0.01,-93.84 -2.37,0.02 -4.74,0.04 -7.09,0.08 -0.04,8 -0.02,16.01 -0.02,24.01 -3.13,3.18 -6.3,6.33 -9.53,9.42 -21.77,0.47 -43.47,-1.42 -65.22,-2.07 -2.47,-0.3 -5.35,0.08 -7.36,-1.65 -3.03,-2.62 -5.68,-5.64 -8.52,-8.45 0.02,-17.59 0,-35.19 0.01,-52.78 -4.71,-0.02 -9.42,-0.03 -14.13,0.03 -2.1,-2.4 -5.3,-4.64 -4.87,-8.24 0.01,-7.07 -0.06,-14.14 0.02,-21.2 -0.16,-3.32 2.99,-5.27 4.9,-7.52 4.7,0.06 9.39,0.04 14.09,0.03 -0.01,-12.61 -0.02,-25.22 0,-37.82 -24.35,-2.76 -48.06,-10.11 -70.09,-20.75 -30.65,-15.39 -58.3,-36.26 -82.8,-60.17 -4.69,-4.91 -10.71,-9.25 -12.66,-16.08 -1.34,-5.41 -0.61,-11.04 -0.8,-16.55 -0.33,-6.66 0.16,-14.06 5.17,-19.05 20.39,-21.24 43.28,-40.11 68.2,-55.82 32.58,-20.41 70.18,-33.25 108.73,-34.7 -0.1,-34.22 0.12,-68.45 -0.11,-102.67 -1.26,-1.76 -3.08,-3.41 -3.05,-5.74 -0.41,-6.02 -0.04,-12.07 -0.15,-18.1 0.07,-4.33 -0.37,-8.7 0.38,-12.98 2.46,-3.74 5.87,-6.91 9.43,-9.6 m 3.95,178.01 c -41.05,2.15 -80.67,17.51 -114.37,40.66 -15.33,10.4 -29.88,21.94 -43.42,34.58 -2.36,2.2 -4.69,4.94 -5.06,8.26 1.2,5.32 6.08,8.28 9.63,11.94 14.84,13.41 30.79,25.62 47.8,36.16 34.2,21.81 74.28,35.15 115.03,35.09 97.32,0.55 194.67,0.16 292.01,0.28 106.02,-0.01 212.04,0.01 318.06,-0.01 10.37,-0.24 20.82,0.03 31.06,-1.93 13.2,-2.58 25.92,-7.82 36.93,-15.57 4.36,-3.23 8.93,-6.35 12.21,-10.75 12.95,-15.36 20.74,-34.98 21.92,-55.03 -0.87,-19.96 -8.54,-39.52 -21.15,-54.99 -6.35,-7.88 -15.09,-13.27 -23.76,-18.22 -8.63,-4.28 -17.8,-7.57 -27.32,-9.14 -11.82,-2.41 -23.92,-1.21 -35.88,-1.49 -23.36,0.24 -46.71,-0.51 -70.07,-0.39 -147.33,-0.01 -294.65,0 -441.98,0 -33.88,0.16 -67.78,-0.44 -101.64,0.55 m 100.28,191.03 c -0.02,10.67 0.04,21.34 -0.03,32.02 5.73,1.99 11.09,5.37 14.66,10.36 6.82,8.99 7.33,22.14 1.21,31.62 -3.6,5.85 -9.47,10.04 -15.97,12.12 0.31,42.51 0.03,85.03 0.14,127.54 16.57,0.01 33.14,0.01 49.71,0 0.02,-42.21 0.01,-84.43 0.01,-126.64 2.71,-2.65 6.36,-5.25 5.49,-9.59 2.12,-2.44 5.04,-4.35 6.57,-7.2 0.37,-6.23 0.01,-12.48 0.16,-18.71 0.47,-4.5 -4.4,-6.7 -6.87,-9.74 0,-1.63 0,-3.24 0.01,-4.84 -1.91,-2.29 -5.48,-4 -5.37,-7.35 -0.03,-9.86 0.05,-19.72 0,-29.58 -16.57,-0.02 -33.15,0 -49.72,-0.01 m 332.1,-0.6 c 0.01,71.42 0,142.84 0.01,214.27 16.58,0 33.16,0 49.74,0 0.01,-71.42 0.03,-142.84 0,-214.26 -16.59,-0.01 -33.17,0 -49.75,-0.01 m -367.98,4.88 c 0,1.63 0,3.26 0,4.91 2.37,0.07 4.74,0.12 7.12,0.17 0.01,-1.01 0.03,-3.04 0.04,-4.05 -2.37,-0.46 -4.77,-0.77 -7.16,-1.03 m 114.37,0.17 c -0.03,1.76 -0.04,3.53 -0.05,5.32 4.06,4.18 9.31,7.69 11.97,12.95 0.4,16.27 0.04,32.59 0.16,48.88 -0.16,8.27 0.31,16.58 -0.19,24.85 -2.95,4.99 -7.89,8.53 -11.93,12.65 -0.01,31.29 0.01,62.58 -0.01,93.88 75.01,-0.31 150.01,-0.18 225.02,-0.21 0,-66.04 -0.02,-132.08 0.01,-198.12 -74.99,-0.38 -149.99,0.06 -224.98,-0.2 m -204.18,230.67 c -39.71,7.52 -76.58,26.53 -108.01,51.64 -8.23,5.76 -14.99,13.21 -22.32,20 2.67,2.73 5.44,5.38 8.01,8.22 11.27,13.2 21.78,27.06 30.96,41.8 4.34,-0.02 8.67,-0.01 13,-0.02 2.77,2.69 5.75,5.28 7.59,8.75 1.59,2.27 2.54,5.25 5.06,6.71 31.63,17.34 67.6,27.42 103.8,26.66 201.02,0 402.03,0 603.05,0 13.03,-0.13 26.26,0.87 39.02,-2.44 18.95,-4.67 37.52,-14.54 49.16,-30.6 10.57,-14.54 16.9,-32.18 17.91,-50.12 -0.72,-15.97 -5.89,-31.59 -14.21,-45.18 -4.18,-6.31 -8.64,-12.63 -14.7,-17.28 -16.93,-13.59 -38.47,-21.55 -60.24,-21.48 -39.63,0.23 -79.25,-0.53 -118.88,-0.34 -1.73,1.66 -3.26,3.59 -5.28,4.92 -2.18,0.9 -4.58,0.77 -6.87,0.81 -30.68,-0.11 -61.36,0.07 -92.04,-0.09 -4.85,0.57 -6.31,-6.15 -10.97,-5.66 -72.39,0.1 -144.79,-0.16 -217.17,0.25 -2.48,2.37 -4.82,5.78 -8.69,5.46 -24.37,0.04 -48.75,-0.01 -73.12,0 -7.86,0.03 -15.76,0.91 -23.59,0.02 -3.31,-0.36 -5.26,-3.27 -7.49,-5.37 -18.61,0.03 -37.23,0.01 -55.84,0.01 -12.78,-0.23 -25.57,1.03 -38.14,3.33 z"
         inkscape:connector-curvature="0"
         style="opacity:1;fill:#000000" />
    </g>
    <g
       id="#dea305ff">
      <path
         id="path16"
         d="m 511.35,643.39 c 33.86,-0.99 67.76,-0.39 101.64,-0.55 147.33,0 294.65,-0.01 441.98,0 23.36,-0.12 46.71,0.63 70.07,0.39 11.96,0.28 24.06,-0.92 35.88,1.49 9.52,1.57 18.69,4.86 27.32,9.14 8.67,4.95 17.41,10.34 23.76,18.22 12.61,15.47 20.28,35.03 21.15,54.99 -1.18,20.05 -8.97,39.67 -21.92,55.03 -3.28,4.4 -7.85,7.52 -12.21,10.75 -11.01,7.75 -23.73,12.99 -36.93,15.57 -10.24,1.96 -20.69,1.69 -31.06,1.93 -106.02,0.02 -212.04,0 -318.06,0.01 -97.34,-0.12 -194.69,0.27 -292.01,-0.28 -40.75,0.06 -80.83,-13.28 -115.03,-35.09 -17.01,-10.54 -32.96,-22.75 -47.8,-36.16 -3.55,-3.66 -8.43,-6.62 -9.63,-11.94 0.37,-3.32 2.7,-6.06 5.06,-8.26 13.54,-12.64 28.09,-24.18 43.42,-34.58 33.7,-23.15 73.32,-38.51 114.37,-40.66 z"
         inkscape:connector-curvature="0"
         style="opacity:1;fill:#dea305" />
      <path
         id="path18"
         d="m 485.94,1069.54 c 12.57,-2.3 25.36,-3.56 38.14,-3.33 18.61,0 37.23,0.02 55.84,-0.01 2.23,2.1 4.18,5.01 7.49,5.37 7.83,0.89 15.73,0.01 23.59,-0.02 24.37,-0.01 48.75,0.04 73.12,0 3.87,0.32 6.21,-3.09 8.69,-5.46 72.38,-0.41 144.78,-0.15 217.17,-0.25 4.66,-0.49 6.12,6.23 10.97,5.66 30.68,0.16 61.36,-0.02 92.04,0.09 2.29,-0.04 4.69,0.09 6.87,-0.81 2.02,-1.33 3.55,-3.26 5.28,-4.92 39.63,-0.19 79.25,0.57 118.88,0.34 21.77,-0.07 43.31,7.89 60.24,21.48 6.06,4.65 10.52,10.97 14.7,17.28 8.32,13.59 13.49,29.21 14.21,45.18 -1.01,17.94 -7.34,35.58 -17.91,50.12 -11.64,16.06 -30.21,25.93 -49.16,30.6 -12.76,3.31 -25.99,2.31 -39.02,2.44 -201.02,0 -402.03,0 -603.05,0 -36.2,0.76 -72.17,-9.32 -103.8,-26.66 -2.52,-1.46 -3.47,-4.44 -5.06,-6.71 -1.84,-3.47 -4.82,-6.06 -7.59,-8.75 -4.33,0.01 -8.66,0 -13,0.02 -9.18,-14.74 -19.69,-28.6 -30.96,-41.8 -2.57,-2.84 -5.34,-5.49 -8.01,-8.22 7.33,-6.79 14.09,-14.24 22.32,-20 31.43,-25.11 68.3,-44.12 108.01,-51.64 z"
         inkscape:connector-curvature="0"
         style="opacity:1;fill:#dea305" />
    </g>
    <g
       id="#888888ff">
      <path
         id="path21"
         d="m 611.63,834.42 c 16.57,0.01 33.15,-0.01 49.72,0.01 0.05,9.86 -0.03,19.72 0,29.58 -0.11,3.35 3.46,5.06 5.37,7.35 -0.01,1.6 -0.01,3.21 -0.01,4.84 2.47,3.04 7.34,5.24 6.87,9.74 -0.15,6.23 0.21,12.48 -0.16,18.71 -1.53,2.85 -4.45,4.76 -6.57,7.2 0.87,4.34 -2.78,6.94 -5.49,9.59 0,42.21 0.01,84.43 -0.01,126.64 -16.57,0.01 -33.14,0.01 -49.71,0 -0.11,-42.51 0.17,-85.03 -0.14,-127.54 6.5,-2.08 12.37,-6.27 15.97,-12.12 6.12,-9.48 5.61,-22.63 -1.21,-31.62 -3.57,-4.99 -8.93,-8.37 -14.66,-10.36 0.07,-10.68 0.01,-21.35 0.03,-32.02 z"
         inkscape:connector-curvature="0"
         style="opacity:1;fill:#888888" />
      <path
         id="path23"
         d="m 943.73,833.82 c 16.58,0.01 33.16,0 49.75,0.01 0.03,71.42 0.01,142.84 0,214.26 -16.58,0 -33.16,0 -49.74,0 -0.01,-71.43 0,-142.85 -0.01,-214.27 z"
         inkscape:connector-curvature="0"
         style="opacity:1;fill:#888888" />
    </g>
  </g>
</svg>
