<?xml version="1.0" encoding="UTF-8" ?>
<!DOCTYPE svg PUBLIC "-//W3C//DTD SVG 1.1//EN" "http://www.w3.org/Graphics/SVG/1.1/DTD/svg11.dtd">
<svg width="1262pt" height="1262pt" viewBox="0 0 1262 1262" version="1.1" xmlns="http://www.w3.org/2000/svg">
<g id="#d26464ff">
<path fill="#d26464" opacity="1.00" d=" M 968.37 0.00 L 968.63 0.00 C 1063.45 97.30 1158.60 194.29 1253.55 291.47 C 1256.39 294.08 1258.68 297.45 1262.00 299.43 L 1262.00 299.72 C 1254.36 300.49 1246.66 299.93 1239.00 300.10 C 1196.03 300.10 1153.06 300.10 1110.09 300.10 C 1110.08 410.40 1110.10 520.70 1110.09 630.99 C 1015.69 631.00 921.30 631.00 826.91 630.99 C 826.90 520.70 826.92 410.40 826.91 300.10 C 776.29 300.09 725.67 300.12 675.05 300.09 C 772.78 200.02 870.75 100.17 968.37 0.00 Z" />
<path fill="#d26464" opacity="1.00" d=" M 56.00 714.87 C 72.35 705.40 91.15 700.57 109.98 699.99 C 217.31 700.01 324.63 700.00 431.96 699.99 C 453.94 699.75 476.14 705.34 494.85 717.01 C 510.16 726.71 523.27 740.02 532.20 755.84 C 541.37 771.63 546.28 789.76 546.99 807.98 C 547.01 920.64 547.00 1033.30 547.00 1145.96 C 547.74 1175.15 537.27 1204.79 517.14 1226.14 C 502.95 1241.85 483.88 1252.90 463.47 1258.30 C 455.32 1260.51 446.87 1261.05 438.52 1262.00 L 107.77 1262.00 C 99.87 1261.06 91.86 1260.60 84.14 1258.53 C 65.94 1253.89 48.89 1244.66 35.19 1231.79 C 20.29 1218.17 9.62 1200.14 4.17 1180.75 C 1.78 1172.56 0.86 1164.05 0.00 1155.60 L 0.00 804.52 C 0.60 800.65 0.99 796.75 1.64 792.89 C 6.77 760.48 27.29 730.83 56.00 714.87 M 141.87 759.39 C 133.17 759.73 124.54 760.93 116.05 762.84 C 106.50 765.01 96.68 767.06 88.18 772.14 C 83.03 775.15 77.71 778.20 73.76 782.77 C 69.10 788.34 64.88 794.43 62.44 801.32 C 56.43 817.85 54.91 835.56 54.63 853.01 C 54.74 895.02 54.53 937.03 54.70 979.04 C 54.85 979.43 55.15 980.21 55.31 980.60 C 102.15 980.75 149.01 980.48 195.86 980.75 C 191.41 985.97 186.29 990.59 181.58 995.59 C 162.12 1015.77 142.41 1035.71 122.93 1055.87 C 114.28 1064.15 107.30 1074.45 103.95 1086.03 C 102.12 1092.52 102.43 1099.32 102.58 1106.00 C 103.59 1118.91 110.45 1130.57 118.83 1140.13 C 135.10 1157.13 163.17 1161.32 183.49 1149.26 C 192.77 1144.76 199.02 1136.38 206.18 1129.28 C 228.56 1106.35 250.96 1083.42 273.25 1060.41 C 286.92 1073.86 300.01 1087.90 313.51 1101.53 C 325.93 1114.08 338.11 1126.89 350.48 1139.50 C 356.02 1145.75 363.57 1149.77 371.13 1153.06 C 383.48 1157.32 397.33 1157.20 409.52 1152.42 C 416.24 1149.21 423.08 1145.64 428.09 1139.98 C 435.00 1132.05 440.74 1122.81 443.23 1112.50 C 444.90 1104.13 444.83 1095.39 443.08 1087.05 C 439.90 1074.89 432.52 1064.17 423.55 1055.52 C 408.13 1039.89 393.01 1023.97 377.55 1008.39 C 368.72 999.54 360.39 990.19 351.27 981.64 C 352.39 980.86 353.63 980.52 354.99 980.61 C 400.57 980.65 446.15 980.68 491.72 980.60 C 493.01 979.17 492.09 976.77 492.38 974.98 C 492.30 935.33 492.40 895.67 492.32 856.02 C 491.83 837.70 490.80 819.03 484.46 801.65 C 482.34 795.32 478.53 789.74 474.46 784.52 C 469.73 778.37 462.87 774.43 456.15 770.83 C 445.77 765.64 434.22 763.58 422.95 761.29 C 397.77 757.73 372.30 756.77 346.90 756.59 C 330.94 755.93 314.96 756.45 299.00 756.26 C 269.34 756.29 239.69 756.30 210.04 756.28 C 187.31 756.96 164.48 756.63 141.87 759.39 Z" />
</g>
<g id="#000000ff">
<path fill="#000000" opacity="1.00" d=" M 44.97 4.94 C 54.51 -1.13 67.45 -1.11 76.97 4.99 C 85.51 10.26 90.91 20.01 91.07 30.03 C 91.14 45.53 85.03 61.04 74.17 72.15 C 64.66 82.12 51.58 88.53 37.91 90.12 C 29.71 91.18 20.90 89.95 14.00 85.14 C 4.62 78.90 -0.61 67.03 1.22 55.91 C 2.97 41.52 16.39 30.19 30.77 30.14 C 30.91 20.05 36.34 10.22 44.97 4.94 Z" />
<path fill="#000000" opacity="1.00" d=" M 232.50 1.60 C 245.05 -2.16 259.56 3.52 266.24 14.78 C 269.88 20.48 270.83 27.37 270.99 34.00 C 270.47 70.12 261.68 106.09 245.41 138.34 C 228.28 172.49 202.84 202.42 171.89 224.80 C 131.83 253.97 82.54 270.20 32.99 270.49 C 27.17 269.71 21.11 269.11 15.99 265.94 C 8.15 261.40 2.42 253.19 1.30 244.14 C 0.01 235.45 2.78 226.24 8.74 219.78 C 14.97 212.78 24.66 209.03 33.98 210.07 C 39.27 210.68 44.58 209.98 49.86 209.52 C 86.10 205.76 121.07 190.64 148.61 166.76 C 186.65 134.20 210.10 85.07 210.83 34.95 C 210.25 28.58 211.09 21.96 214.23 16.31 C 217.99 9.20 224.75 3.76 232.50 1.60 Z" />
<path fill="#000000" opacity="1.00" d=" M 412.41 1.65 C 424.77 -2.27 439.19 2.94 446.21 13.83 C 449.00 18.06 450.70 22.99 451.11 28.04 C 451.09 60.97 447.56 93.95 440.01 126.02 C 425.70 187.44 397.33 245.54 357.62 294.54 C 325.81 333.95 286.77 367.51 243.04 393.06 C 179.66 430.21 106.41 450.28 32.94 450.50 C 28.96 449.62 24.80 449.57 20.96 448.10 C 10.96 444.68 3.15 435.53 1.44 425.08 C 0.66 419.38 0.99 413.36 3.39 408.06 C 7.36 398.46 16.69 391.38 27.00 390.12 C 30.97 389.37 34.94 390.31 38.92 390.40 C 110.00 389.02 180.44 365.78 238.47 324.71 C 297.16 283.49 342.94 224.25 368.03 157.06 C 382.43 118.74 390.24 77.94 390.94 37.01 C 390.95 31.34 390.76 25.46 392.87 20.09 C 395.99 11.31 403.49 4.30 412.41 1.65 Z" />
<path fill="#000000" opacity="1.00" d=" M 594.12 1.23 C 606.79 -1.87 621.01 4.44 627.09 16.00 C 631.11 22.96 631.17 31.26 630.94 39.06 C 629.77 127.42 608.67 215.44 569.68 294.75 C 540.03 355.28 500.05 410.74 452.00 458.02 C 398.47 510.80 334.89 553.34 265.69 582.71 C 192.06 614.05 112.10 630.42 32.08 630.50 C 23.73 630.54 15.32 627.41 9.49 621.35 C 0.87 612.74 -1.40 598.71 3.76 587.73 C 7.64 579.19 15.79 572.76 25.01 570.97 C 28.95 570.09 33.02 570.45 37.03 570.46 C 121.68 569.64 206.03 548.40 281.03 509.13 C 343.70 476.46 399.80 431.29 445.13 377.06 C 493.26 319.64 529.19 252.05 549.89 180.04 C 563.44 132.95 570.66 84.00 570.94 34.98 C 570.51 28.86 571.13 22.52 574.02 17.01 C 577.92 9.10 585.52 3.16 594.12 1.23 Z" />
<path fill="#000000" opacity="1.00" d=" M 759.83 712.93 C 763.67 708.83 767.53 704.45 771.96 701.06 C 788.64 700.96 805.34 700.96 822.03 701.06 C 826.33 704.66 830.05 708.97 834.10 712.88 C 834.23 723.25 834.13 733.62 834.15 743.99 C 834.57 746.02 831.86 746.95 832.09 748.90 C 832.09 763.61 832.07 778.33 832.10 793.04 C 863.69 792.59 895.29 792.86 926.89 792.82 C 926.88 791.19 926.87 789.56 926.86 787.95 C 930.90 783.61 935.26 779.57 939.37 775.28 C 953.13 775.17 966.89 775.20 980.66 775.27 C 984.47 779.16 988.37 782.96 992.20 786.84 C 993.92 788.34 992.83 790.86 993.14 792.81 C 1056.11 792.79 1119.08 792.70 1182.05 793.05 C 1194.43 792.43 1207.09 795.50 1217.49 802.33 C 1225.28 807.03 1231.06 814.22 1237.60 820.41 C 1247.78 830.20 1254.48 843.72 1255.47 857.86 C 1255.56 867.24 1255.46 876.63 1255.51 886.02 C 1255.93 896.35 1252.76 906.60 1247.64 915.50 C 1242.76 924.04 1235.14 930.42 1228.38 937.40 C 1221.26 944.88 1212.09 950.34 1202.18 953.23 C 1194.36 955.71 1186.07 955.61 1177.95 955.67 C 1154.53 955.67 1131.11 955.68 1107.68 955.67 C 1107.67 988.37 1107.77 1021.08 1107.63 1053.78 C 1133.74 1053.81 1159.84 1054.14 1185.95 1054.05 C 1196.92 1054.04 1207.75 1057.42 1217.02 1063.22 C 1224.96 1067.97 1230.91 1075.20 1237.53 1081.53 C 1245.53 1089.21 1251.36 1099.11 1254.03 1109.89 C 1256.39 1118.41 1255.23 1127.30 1255.50 1136.01 C 1255.25 1144.02 1256.28 1152.19 1254.28 1160.07 C 1251.97 1169.61 1247.55 1178.77 1240.78 1185.96 C 1236.09 1191.05 1231.15 1195.90 1226.19 1200.72 C 1215.24 1211.09 1200.10 1217.28 1184.94 1216.50 C 1047.28 1216.50 909.62 1216.50 771.95 1216.50 C 748.95 1217.24 726.24 1210.01 706.40 1198.69 C 702.66 1196.85 700.32 1193.27 697.17 1190.68 C 681.24 1190.66 665.27 1190.99 649.37 1190.55 C 645.97 1187.36 642.46 1184.17 639.54 1180.56 C 639.47 1164.01 639.47 1147.46 639.54 1130.91 C 640.75 1125.01 644.94 1120.23 649.16 1116.15 C 653.27 1112.22 657.01 1107.86 661.51 1104.36 C 664.30 1102.09 668.16 1101.45 670.49 1098.60 C 692.59 1078.39 719.21 1062.06 748.91 1056.28 C 757.82 1054.50 766.92 1053.83 776.00 1054.06 C 788.11 1054.06 800.23 1054.07 812.34 1054.06 C 812.36 1049.73 812.34 1045.41 812.35 1041.09 C 797.54 1041.44 782.76 1040.36 767.97 1039.75 C 766.19 1039.52 764.02 1039.88 762.80 1038.27 C 759.25 1034.50 755.13 1031.18 752.01 1027.08 C 751.84 1018.42 751.98 1009.76 751.96 1001.11 C 751.28 1001.04 749.92 1000.89 749.24 1000.81 C 746.65 998.06 743.83 995.51 741.29 992.72 C 739.90 991.53 740.28 989.59 740.23 988.01 C 740.39 979.80 739.98 971.56 740.40 963.36 C 743.14 959.89 746.68 957.15 749.54 953.78 C 739.39 951.38 729.25 948.67 719.76 944.28 C 693.63 932.58 671.44 913.74 651.98 893.04 C 647.61 887.66 649.78 880.36 649.27 874.05 C 649.73 867.78 647.63 860.39 652.28 855.23 C 666.43 840.24 681.87 826.32 699.34 815.28 C 718.08 803.37 739.50 795.14 761.75 793.46 C 761.74 778.20 761.80 762.95 761.72 747.69 C 760.85 746.54 759.51 745.47 759.70 743.89 C 759.70 733.57 759.42 723.23 759.83 712.93 M 761.03 825.51 C 734.14 831.05 710.08 845.72 689.48 863.45 C 685.93 866.72 681.63 869.50 679.51 874.00 C 680.51 877.77 683.92 879.90 686.50 882.54 C 696.99 891.93 708.41 900.31 720.60 907.38 C 739.52 918.35 761.07 925.23 783.02 925.69 C 793.36 925.73 803.70 925.74 814.05 925.91 C 929.69 925.90 1045.33 925.90 1160.97 925.91 C 1170.66 925.77 1180.62 926.07 1189.86 922.68 C 1199.56 919.17 1209.17 913.73 1215.04 904.99 C 1220.30 897.75 1223.70 889.24 1225.21 880.44 C 1226.77 871.94 1224.67 863.24 1221.54 855.35 C 1217.86 846.52 1212.24 838.11 1204.01 832.97 C 1194.92 826.69 1183.97 823.31 1172.98 822.80 C 1047.32 822.45 921.66 822.71 796.00 822.62 C 784.30 822.72 772.49 822.83 761.03 825.51 M 1047.37 940.52 C 1047.38 984.54 1047.44 1028.55 1047.34 1072.56 C 1057.46 1072.48 1067.59 1072.45 1077.71 1072.58 C 1077.64 1028.56 1077.69 984.54 1077.69 940.52 C 1067.58 940.62 1057.47 940.62 1047.37 940.52 M 842.30 941.21 C 842.45 947.63 842.42 954.04 842.32 960.46 C 848.79 962.38 853.94 968.30 854.60 975.05 C 855.89 983.31 850.26 991.75 842.30 994.03 C 842.48 1020.20 842.39 1046.39 842.34 1072.57 C 852.45 1072.48 862.57 1072.44 872.68 1072.59 C 872.58 1047.05 872.70 1021.51 872.62 995.98 C 872.18 993.84 874.47 992.88 875.67 991.60 C 875.69 990.92 875.72 989.55 875.74 988.86 C 877.24 987.26 878.77 985.67 880.32 984.11 C 880.24 979.73 880.32 975.35 880.26 970.98 C 878.64 969.46 877.11 967.86 875.67 966.19 C 875.69 965.48 875.72 964.06 875.73 963.35 C 874.65 962.34 873.60 961.32 872.57 960.30 C 872.77 953.93 872.49 947.56 872.73 941.20 C 862.59 941.31 852.44 941.29 842.30 941.21 M 910.19 955.70 C 910.20 972.48 910.30 989.27 910.15 1006.05 C 908.56 1009.66 904.36 1011.41 902.67 1014.88 C 902.58 1027.89 902.66 1040.92 902.64 1053.94 C 940.91 1053.71 979.18 1053.91 1017.46 1053.81 C 1017.38 1021.09 1017.45 988.38 1017.42 955.67 C 981.68 955.70 945.94 955.63 910.19 955.70 M 684.12 1130.09 C 693.37 1139.29 701.10 1149.92 708.13 1160.89 C 710.78 1160.89 713.44 1160.90 716.10 1160.90 C 718.69 1163.03 720.70 1165.71 722.28 1168.67 C 723.03 1170.33 724.86 1170.90 726.36 1171.72 C 743.77 1180.90 763.23 1186.47 782.96 1186.90 C 912.00 1186.92 1041.04 1186.88 1170.09 1186.91 C 1184.39 1187.26 1198.79 1182.10 1209.51 1172.60 C 1219.30 1163.05 1224.94 1149.57 1225.80 1136.00 C 1225.47 1124.42 1221.23 1113.05 1214.33 1103.79 C 1209.21 1096.68 1201.47 1091.98 1193.58 1088.53 C 1185.87 1085.09 1177.38 1083.73 1168.99 1083.81 C 1145.28 1083.95 1121.58 1083.54 1097.88 1083.69 C 1095.76 1084.54 1094.71 1087.45 1092.06 1087.16 C 1072.72 1087.25 1053.37 1087.17 1034.03 1087.21 C 1031.34 1087.57 1029.53 1085.45 1027.93 1083.69 C 982.65 1083.66 937.36 1083.55 892.08 1083.85 C 890.70 1085.28 889.34 1087.33 887.08 1087.18 C 867.72 1087.25 848.35 1087.09 829.00 1087.36 C 826.02 1087.84 824.35 1085.24 822.20 1083.86 C 811.12 1083.78 800.05 1083.85 788.97 1083.83 C 749.39 1083.19 711.78 1102.73 684.12 1130.09 Z" />
</g>
<g id="#d69193ff">
<path fill="#d69193" opacity="1.00" d=" M 141.87 759.39 C 164.48 756.63 187.31 756.96 210.04 756.28 C 239.69 756.30 269.34 756.29 299.00 756.26 C 314.96 756.45 330.94 755.93 346.90 756.59 C 372.30 756.77 397.77 757.73 422.95 761.29 C 434.22 763.58 445.77 765.64 456.15 770.83 C 462.87 774.43 469.73 778.37 474.46 784.52 C 478.53 789.74 482.34 795.32 484.46 801.65 C 490.80 819.03 491.83 837.70 492.32 856.02 C 492.40 895.67 492.30 935.33 492.38 974.98 C 492.09 976.77 493.01 979.17 491.72 980.60 C 446.15 980.68 400.57 980.65 354.99 980.61 C 353.63 980.52 352.39 980.86 351.27 981.64 C 350.88 980.68 351.73 979.94 352.32 979.34 C 377.19 953.86 402.01 928.33 426.89 902.86 C 435.57 893.46 442.60 881.83 444.12 868.92 C 444.69 860.68 444.73 852.13 441.77 844.30 C 438.47 835.10 432.93 826.78 426.16 819.77 C 416.28 810.97 403.28 805.49 389.95 805.55 C 376.34 805.31 362.92 810.75 352.88 819.84 C 327.03 846.36 301.16 872.85 275.38 899.43 C 274.63 900.01 273.47 901.75 272.52 900.46 C 246.14 873.53 219.90 846.46 193.56 819.49 C 184.50 811.64 173.01 806.33 160.94 805.67 C 146.07 804.48 131.13 810.18 120.19 820.16 C 112.56 828.37 106.26 838.16 103.56 849.14 C 102.27 854.31 102.45 859.68 102.48 864.97 C 102.49 876.50 107.71 887.36 114.49 896.43 C 118.22 901.66 123.03 905.94 127.44 910.57 C 150.25 933.96 173.00 957.41 195.86 980.75 C 149.01 980.48 102.15 980.75 55.31 980.60 C 55.15 980.21 54.85 979.43 54.70 979.04 C 54.53 937.03 54.74 895.02 54.63 853.01 C 54.91 835.56 56.43 817.85 62.44 801.32 C 64.88 794.43 69.10 788.34 73.76 782.77 C 77.71 778.20 83.03 775.15 88.18 772.14 C 96.68 767.06 106.50 765.01 116.05 762.84 C 124.54 760.93 133.17 759.73 141.87 759.39 Z" />
<path fill="#d69193" opacity="1.00" d=" M 1047.37 940.52 C 1057.47 940.62 1067.58 940.62 1077.69 940.52 C 1077.69 984.54 1077.64 1028.56 1077.71 1072.58 C 1067.59 1072.45 1057.46 1072.48 1047.34 1072.56 C 1047.44 1028.55 1047.38 984.54 1047.37 940.52 Z" />
<path fill="#d69193" opacity="1.00" d=" M 842.30 941.21 C 852.44 941.29 862.59 941.31 872.73 941.20 C 872.49 947.56 872.77 953.93 872.57 960.30 C 873.60 961.32 874.65 962.34 875.73 963.35 C 875.72 964.06 875.69 965.48 875.67 966.19 C 877.11 967.86 878.64 969.46 880.26 970.98 C 880.32 975.35 880.24 979.73 880.32 984.11 C 878.77 985.67 877.24 987.26 875.74 988.86 C 875.72 989.55 875.69 990.92 875.67 991.60 C 874.47 992.88 872.18 993.84 872.62 995.98 C 872.70 1021.51 872.58 1047.05 872.68 1072.59 C 862.57 1072.44 852.45 1072.48 842.34 1072.57 C 842.39 1046.39 842.48 1020.20 842.30 994.03 C 850.26 991.75 855.89 983.31 854.60 975.05 C 853.94 968.30 848.79 962.38 842.32 960.46 C 842.42 954.04 842.45 947.63 842.30 941.21 Z" />
</g>
<g id="#ffffffff">
<path fill="#ffffff" opacity="1.00" d=" M 120.19 820.16 C 131.13 810.18 146.07 804.48 160.94 805.67 C 173.01 806.33 184.50 811.64 193.56 819.49 C 219.90 846.46 246.14 873.53 272.52 900.46 C 273.47 901.75 274.63 900.01 275.38 899.43 C 301.16 872.85 327.03 846.36 352.88 819.84 C 362.92 810.75 376.34 805.31 389.95 805.55 C 403.28 805.49 416.28 810.97 426.16 819.77 C 432.93 826.78 438.47 835.10 441.77 844.30 C 444.73 852.13 444.69 860.68 444.12 868.92 C 442.60 881.83 435.57 893.46 426.89 902.86 C 402.01 928.33 377.19 953.86 352.32 979.34 C 351.73 979.94 350.88 980.68 351.27 981.64 C 360.39 990.19 368.72 999.54 377.55 1008.39 C 393.01 1023.97 408.13 1039.89 423.55 1055.52 C 432.52 1064.17 439.90 1074.89 443.08 1087.05 C 444.83 1095.39 444.90 1104.13 443.23 1112.50 C 440.74 1122.81 435.00 1132.05 428.09 1139.98 C 423.08 1145.64 416.24 1149.21 409.52 1152.42 C 397.33 1157.20 383.48 1157.32 371.13 1153.06 C 363.57 1149.77 356.02 1145.75 350.48 1139.50 C 338.11 1126.89 325.93 1114.08 313.51 1101.53 C 300.01 1087.90 286.92 1073.86 273.25 1060.41 C 250.96 1083.42 228.56 1106.35 206.18 1129.28 C 199.02 1136.38 192.77 1144.76 183.49 1149.26 C 163.17 1161.32 135.10 1157.13 118.83 1140.13 C 110.45 1130.57 103.59 1118.91 102.58 1106.00 C 102.43 1099.32 102.12 1092.52 103.95 1086.03 C 107.30 1074.45 114.28 1064.15 122.93 1055.87 C 142.41 1035.71 162.12 1015.77 181.58 995.59 C 186.29 990.59 191.41 985.97 195.86 980.75 C 173.00 957.41 150.25 933.96 127.44 910.57 C 123.03 905.94 118.22 901.66 114.49 896.43 C 107.71 887.36 102.49 876.50 102.48 864.97 C 102.45 859.68 102.27 854.31 103.56 849.14 C 106.26 838.16 112.56 828.37 120.19 820.16 Z" />
</g>
<g id="#dea305ff">
<path fill="#dea305" opacity="1.00" d=" M 761.03 825.51 C 772.49 822.83 784.30 822.72 796.00 822.62 C 921.66 822.71 1047.32 822.45 1172.98 822.80 C 1183.97 823.31 1194.92 826.69 1204.01 832.97 C 1212.24 838.11 1217.86 846.52 1221.54 855.35 C 1224.67 863.24 1226.77 871.94 1225.21 880.44 C 1223.70 889.24 1220.30 897.75 1215.04 904.99 C 1209.17 913.73 1199.56 919.17 1189.86 922.68 C 1180.62 926.07 1170.66 925.77 1160.97 925.91 C 1045.33 925.90 929.69 925.90 814.05 925.91 C 803.70 925.74 793.36 925.73 783.02 925.69 C 761.07 925.23 739.52 918.35 720.60 907.38 C 708.41 900.31 696.99 891.93 686.50 882.54 C 683.92 879.90 680.51 877.77 679.51 874.00 C 681.63 869.50 685.93 866.72 689.48 863.45 C 710.08 845.72 734.14 831.05 761.03 825.51 Z" />
<path fill="#dea305" opacity="1.00" d=" M 684.12 1130.09 C 711.78 1102.73 749.39 1083.19 788.97 1083.83 C 800.05 1083.85 811.12 1083.78 822.20 1083.86 C 824.35 1085.24 826.02 1087.84 829.00 1087.36 C 848.35 1087.09 867.72 1087.25 887.08 1087.18 C 889.34 1087.33 890.70 1085.28 892.08 1083.85 C 937.36 1083.55 982.65 1083.66 1027.93 1083.69 C 1029.53 1085.45 1031.34 1087.57 1034.03 1087.21 C 1053.37 1087.17 1072.72 1087.25 1092.06 1087.16 C 1094.71 1087.45 1095.76 1084.54 1097.88 1083.69 C 1121.58 1083.54 1145.28 1083.95 1168.99 1083.81 C 1177.38 1083.73 1185.87 1085.09 1193.58 1088.53 C 1201.47 1091.98 1209.21 1096.68 1214.33 1103.79 C 1221.23 1113.05 1225.47 1124.42 1225.80 1136.00 C 1224.94 1149.57 1219.30 1163.05 1209.51 1172.60 C 1198.79 1182.10 1184.39 1187.26 1170.09 1186.91 C 1041.04 1186.88 912.00 1186.92 782.96 1186.90 C 763.23 1186.47 743.77 1180.90 726.36 1171.72 C 724.86 1170.90 723.03 1170.33 722.28 1168.67 C 720.70 1165.71 718.69 1163.03 716.10 1160.90 C 713.44 1160.90 710.78 1160.89 708.13 1160.89 C 701.10 1149.92 693.37 1139.29 684.12 1130.09 Z" />
</g>
</svg>
