<?xml version="1.0" encoding="UTF-8" ?>
<!DOCTYPE svg PUBLIC "-//W3C//DTD SVG 1.1//EN" "http://www.w3.org/Graphics/SVG/1.1/DTD/svg11.dtd">
<svg width="1262pt" height="1262pt" viewBox="0 0 1262 1262" version="1.1" xmlns="http://www.w3.org/2000/svg">
<g id="#000000ff">
<path fill="#000000" opacity="1.00" d=" M 42.44 6.70 C 52.11 -1.01 66.59 -1.70 76.98 5.00 C 85.51 10.27 90.91 20.00 91.07 30.00 C 91.16 45.52 85.03 61.05 74.15 72.17 C 63.06 83.74 47.11 90.66 31.05 90.43 C 21.64 90.35 12.31 85.85 6.76 78.18 C -0.52 68.56 -1.08 54.53 5.43 44.37 C 10.73 35.70 20.58 30.42 30.67 30.15 C 31.07 21.12 35.16 12.21 42.44 6.70 Z" />
<path fill="#000000" opacity="1.00" d=" M 232.43 1.62 C 244.04 -1.85 257.45 2.63 264.61 12.40 C 269.63 18.78 271.05 27.13 270.96 35.06 C 270.31 70.33 261.76 105.44 246.06 137.04 C 230.07 169.39 206.66 198.04 178.12 220.13 C 137.26 251.96 85.85 269.99 34.05 270.46 C 25.29 270.14 16.06 267.77 9.85 261.20 C -0.14 251.73 -1.83 235.12 5.73 223.69 C 11.11 215.21 20.97 209.77 31.03 209.94 C 45.12 211.04 59.22 208.63 72.92 205.56 C 110.02 196.75 144.10 175.76 168.60 146.54 C 193.97 116.62 209.06 78.19 210.79 39.00 C 211.01 34.04 210.20 29.00 211.36 24.10 C 213.55 13.49 221.98 4.50 232.43 1.62 Z" />
<path fill="#000000" opacity="1.00" d=" M 412.42 1.65 C 425.74 -2.62 441.37 3.89 447.70 16.36 C 451.45 22.93 451.47 30.68 450.95 38.00 C 449.83 103.71 432.97 169.07 402.14 227.11 C 375.18 278.13 337.50 323.44 292.31 359.33 C 219.58 417.38 127.08 450.14 34.00 450.46 C 25.30 449.95 16.11 447.70 9.90 441.16 C -0.13 431.72 -1.85 415.09 5.71 403.64 C 11.07 395.14 20.96 389.72 31.02 389.88 C 33.99 389.95 36.95 390.40 39.93 390.37 C 109.51 388.82 178.44 366.34 235.64 326.69 C 286.67 291.53 328.30 242.91 355.17 187.07 C 377.31 141.32 389.58 90.83 390.87 40.02 C 391.02 34.98 390.73 29.89 391.55 24.89 C 393.44 14.04 401.85 4.73 412.42 1.65 Z" />
<path fill="#000000" opacity="1.00" d=" M 594.26 1.19 C 606.89 -1.83 621.02 4.48 627.08 15.99 C 631.45 23.54 631.10 32.56 630.91 40.98 C 629.46 128.68 608.40 215.99 569.70 294.71 C 541.49 352.30 503.95 405.29 459.00 451.02 C 410.75 500.17 353.94 540.89 291.90 570.82 C 211.19 609.86 121.64 630.46 31.98 630.49 C 22.53 630.56 13.02 626.38 7.27 618.79 C -0.21 609.37 -1.06 595.36 5.15 585.07 C 10.05 576.69 19.25 570.98 28.97 570.46 C 109.86 570.92 190.77 552.69 263.73 517.78 C 326.09 488.05 382.62 446.17 429.25 395.20 C 474.65 345.68 510.65 287.59 534.81 224.90 C 557.66 165.71 569.99 102.46 570.93 39.01 C 571.01 33.31 570.32 27.46 572.07 21.93 C 575.00 11.67 583.84 3.44 594.26 1.19 Z" />
<path fill="#000000" opacity="1.00" d=" M 507.40 465.38 C 510.21 464.70 513.15 465.03 516.02 464.98 C 533.75 465.06 551.48 465.01 569.21 465.00 C 572.42 468.16 575.59 471.36 578.81 474.52 C 578.97 485.86 578.86 497.21 578.84 508.56 C 577.80 509.66 576.77 510.76 575.74 511.88 C 575.77 546.10 575.76 580.33 575.75 614.56 C 640.03 614.17 704.32 614.21 768.60 614.25 C 768.61 608.18 768.61 602.12 768.61 596.05 C 772.05 592.59 775.50 589.14 778.98 585.71 C 794.69 585.72 810.40 585.72 826.11 585.71 C 829.61 589.15 833.10 592.61 836.53 596.12 C 836.49 602.16 836.50 608.20 836.51 614.25 C 914.67 614.24 992.83 614.23 1071.00 614.25 C 1094.67 614.17 1118.34 614.76 1142.02 614.56 C 1152.43 614.77 1162.93 613.88 1173.25 615.70 C 1192.47 618.67 1210.78 627.63 1224.71 641.24 C 1231.78 648.18 1239.11 655.00 1244.76 663.21 C 1255.12 677.72 1260.82 695.29 1262.00 713.02 L 1262.00 741.08 C 1260.62 757.95 1255.37 774.67 1245.72 788.67 C 1239.63 798.01 1231.26 805.47 1223.47 813.34 C 1210.04 825.82 1192.91 834.22 1174.85 837.37 C 1165.99 838.88 1156.97 838.76 1148.01 838.92 C 1115.00 838.94 1081.98 838.94 1048.96 838.93 C 1040.05 839.32 1031.05 838.17 1022.21 839.69 C 1022.17 905.53 1022.21 971.36 1022.19 1037.20 C 1063.46 1036.98 1104.72 1037.62 1145.99 1037.59 C 1155.18 1037.58 1164.42 1037.27 1173.52 1038.78 C 1191.18 1041.71 1208.02 1049.70 1221.48 1061.50 C 1232.65 1072.09 1244.26 1082.88 1251.12 1096.92 C 1257.55 1108.96 1261.01 1122.43 1262.00 1136.01 L 1262.00 1164.53 C 1260.31 1185.57 1252.29 1206.43 1237.78 1221.96 C 1227.20 1233.43 1215.97 1244.90 1201.72 1251.73 C 1190.09 1257.76 1177.15 1260.93 1164.15 1262.00 L 496.86 1262.00 C 462.04 1259.74 427.84 1248.93 398.10 1230.70 C 394.11 1227.68 390.73 1223.92 387.77 1219.91 C 362.50 1219.79 337.22 1219.90 311.95 1219.87 C 307.63 1220.16 305.35 1215.76 302.49 1213.28 C 302.54 1196.19 302.53 1179.10 302.50 1162.00 C 302.56 1157.84 302.04 1153.53 303.50 1149.55 C 305.88 1142.89 309.96 1136.92 314.94 1131.94 C 321.46 1125.43 327.72 1118.16 336.46 1114.59 C 341.05 1112.84 343.92 1108.69 347.58 1105.66 C 368.39 1087.82 390.69 1071.35 415.58 1059.62 C 442.80 1046.42 472.70 1038.25 503.03 1037.58 C 529.65 1037.60 556.26 1037.57 582.88 1037.59 C 582.87 1006.31 582.90 975.03 582.87 943.75 C 580.50 943.77 578.13 943.79 575.78 943.83 C 575.74 951.83 575.76 959.84 575.76 967.84 C 572.63 971.02 569.46 974.17 566.23 977.26 C 544.46 977.73 522.76 975.84 501.01 975.19 C 498.54 974.89 495.66 975.27 493.65 973.54 C 490.62 970.92 487.97 967.90 485.13 965.09 C 485.15 947.50 485.13 929.90 485.14 912.31 C 480.43 912.29 475.72 912.28 471.01 912.34 C 468.91 909.94 465.71 907.70 466.14 904.10 C 466.15 897.03 466.08 889.96 466.16 882.90 C 466.00 879.58 469.15 877.63 471.06 875.38 C 475.76 875.44 480.45 875.42 485.15 875.41 C 485.14 862.80 485.13 850.19 485.15 837.59 C 460.80 834.83 437.09 827.48 415.06 816.84 C 384.41 801.45 356.76 780.58 332.26 756.67 C 327.57 751.76 321.55 747.42 319.60 740.59 C 318.26 735.18 318.99 729.55 318.80 724.04 C 318.47 717.38 318.96 709.98 323.97 704.99 C 344.36 683.75 367.25 664.88 392.17 649.17 C 424.75 628.76 462.35 615.92 500.90 614.47 C 500.80 580.25 501.02 546.02 500.79 511.80 C 499.53 510.04 497.71 508.39 497.74 506.06 C 497.33 500.04 497.70 493.99 497.59 487.96 C 497.66 483.63 497.22 479.26 497.97 474.98 C 500.43 471.24 503.84 468.07 507.40 465.38 M 511.35 643.39 C 470.30 645.54 430.68 660.90 396.98 684.05 C 381.65 694.45 367.10 705.99 353.56 718.63 C 351.20 720.83 348.87 723.57 348.50 726.89 C 349.70 732.21 354.58 735.17 358.13 738.83 C 372.97 752.24 388.92 764.45 405.93 774.99 C 440.13 796.80 480.21 810.14 520.96 810.08 C 618.28 810.63 715.63 810.24 812.97 810.36 C 918.99 810.35 1025.01 810.37 1131.03 810.35 C 1141.40 810.11 1151.85 810.38 1162.09 808.42 C 1175.29 805.84 1188.01 800.60 1199.02 792.85 C 1203.38 789.62 1207.95 786.50 1211.23 782.10 C 1224.18 766.74 1231.97 747.12 1233.15 727.07 C 1232.28 707.11 1224.61 687.55 1212.00 672.08 C 1205.65 664.20 1196.91 658.81 1188.24 653.86 C 1179.61 649.58 1170.44 646.29 1160.92 644.72 C 1149.10 642.31 1137.00 643.51 1125.04 643.23 C 1101.68 643.47 1078.33 642.72 1054.97 642.84 C 907.64 642.83 760.32 642.84 612.99 642.84 C 579.11 643.00 545.21 642.40 511.35 643.39 M 611.63 834.42 C 611.61 845.09 611.67 855.76 611.60 866.44 C 617.33 868.43 622.69 871.81 626.26 876.80 C 633.08 885.79 633.59 898.94 627.47 908.42 C 623.87 914.27 618.00 918.46 611.50 920.54 C 611.81 963.05 611.53 1005.57 611.64 1048.08 C 628.21 1048.09 644.78 1048.09 661.35 1048.08 C 661.37 1005.87 661.36 963.65 661.36 921.44 C 664.07 918.79 667.72 916.19 666.85 911.85 C 668.97 909.41 671.89 907.50 673.42 904.65 C 673.79 898.42 673.43 892.17 673.58 885.94 C 674.05 881.44 669.18 879.24 666.71 876.20 C 666.71 874.57 666.71 872.96 666.72 871.36 C 664.81 869.07 661.24 867.36 661.35 864.01 C 661.32 854.15 661.40 844.29 661.35 834.43 C 644.78 834.41 628.20 834.43 611.63 834.42 M 943.73 833.82 C 943.74 905.24 943.73 976.66 943.74 1048.09 C 960.32 1048.09 976.90 1048.09 993.48 1048.09 C 993.49 976.67 993.51 905.25 993.48 833.83 C 976.89 833.82 960.31 833.83 943.73 833.82 M 575.75 838.70 C 575.75 840.33 575.75 841.96 575.75 843.61 C 578.12 843.68 580.49 843.73 582.87 843.78 C 582.88 842.77 582.90 840.74 582.91 839.73 C 580.54 839.27 578.14 838.96 575.75 838.70 M 690.12 838.87 C 690.09 840.63 690.08 842.40 690.07 844.19 C 694.13 848.37 699.38 851.88 702.04 857.14 C 702.44 873.41 702.08 889.73 702.20 906.02 C 702.04 914.29 702.51 922.60 702.01 930.87 C 699.06 935.86 694.12 939.40 690.08 943.52 C 690.07 974.81 690.09 1006.10 690.07 1037.40 C 765.08 1037.09 840.08 1037.22 915.09 1037.19 C 915.09 971.15 915.07 905.11 915.10 839.07 C 840.11 838.69 765.11 839.13 690.12 838.87 M 485.94 1069.54 C 446.23 1077.06 409.36 1096.07 377.93 1121.18 C 369.70 1126.94 362.94 1134.39 355.61 1141.18 C 358.28 1143.91 361.05 1146.56 363.62 1149.40 C 374.89 1162.60 385.40 1176.46 394.58 1191.20 C 398.92 1191.18 403.25 1191.19 407.58 1191.18 C 410.35 1193.87 413.33 1196.46 415.17 1199.93 C 416.76 1202.20 417.71 1205.18 420.23 1206.64 C 451.86 1223.98 487.83 1234.06 524.03 1233.30 C 725.05 1233.30 926.06 1233.30 1127.08 1233.30 C 1140.11 1233.17 1153.34 1234.17 1166.10 1230.86 C 1185.05 1226.19 1203.62 1216.32 1215.26 1200.26 C 1225.83 1185.72 1232.16 1168.08 1233.17 1150.14 C 1232.45 1134.17 1227.28 1118.55 1218.96 1104.96 C 1214.78 1098.65 1210.32 1092.33 1204.26 1087.68 C 1187.33 1074.09 1165.79 1066.13 1144.02 1066.20 C 1104.39 1066.43 1064.77 1065.67 1025.14 1065.86 C 1023.41 1067.52 1021.88 1069.45 1019.86 1070.78 C 1017.68 1071.68 1015.28 1071.55 1012.99 1071.59 C 982.31 1071.48 951.63 1071.66 920.95 1071.50 C 916.10 1072.07 914.64 1065.35 909.98 1065.84 C 837.59 1065.94 765.19 1065.68 692.81 1066.09 C 690.33 1068.46 687.99 1071.87 684.12 1071.55 C 659.75 1071.59 635.37 1071.54 611.00 1071.55 C 603.14 1071.58 595.24 1072.46 587.41 1071.57 C 584.10 1071.21 582.15 1068.30 579.92 1066.20 C 561.31 1066.23 542.69 1066.21 524.08 1066.21 C 511.30 1065.98 498.51 1067.24 485.94 1069.54 Z" />
</g>
<g id="#dea305ff">
<path fill="#dea305" opacity="1.00" d=" M 511.35 643.39 C 545.21 642.40 579.11 643.00 612.99 642.84 C 760.32 642.84 907.64 642.83 1054.97 642.84 C 1078.33 642.72 1101.68 643.47 1125.04 643.23 C 1137.00 643.51 1149.10 642.31 1160.92 644.72 C 1170.44 646.29 1179.61 649.58 1188.24 653.86 C 1196.91 658.81 1205.65 664.20 1212.00 672.08 C 1224.61 687.55 1232.28 707.11 1233.15 727.07 C 1231.97 747.12 1224.18 766.74 1211.23 782.10 C 1207.95 786.50 1203.38 789.62 1199.02 792.85 C 1188.01 800.60 1175.29 805.84 1162.09 808.42 C 1151.85 810.38 1141.40 810.11 1131.03 810.35 C 1025.01 810.37 918.99 810.35 812.97 810.36 C 715.63 810.24 618.28 810.63 520.96 810.08 C 480.21 810.14 440.13 796.80 405.93 774.99 C 388.92 764.45 372.97 752.24 358.13 738.83 C 354.58 735.17 349.70 732.21 348.50 726.89 C 348.87 723.57 351.20 720.83 353.56 718.63 C 367.10 705.99 381.65 694.45 396.98 684.05 C 430.68 660.90 470.30 645.54 511.35 643.39 Z" />
<path fill="#dea305" opacity="1.00" d=" M 485.94 1069.54 C 498.51 1067.24 511.30 1065.98 524.08 1066.21 C 542.69 1066.21 561.31 1066.23 579.92 1066.20 C 582.15 1068.30 584.10 1071.21 587.41 1071.57 C 595.24 1072.46 603.14 1071.58 611.00 1071.55 C 635.37 1071.54 659.75 1071.59 684.12 1071.55 C 687.99 1071.87 690.33 1068.46 692.81 1066.09 C 765.19 1065.68 837.59 1065.94 909.98 1065.84 C 914.64 1065.35 916.10 1072.07 920.95 1071.50 C 951.63 1071.66 982.31 1071.48 1012.99 1071.59 C 1015.28 1071.55 1017.68 1071.68 1019.86 1070.78 C 1021.88 1069.45 1023.41 1067.52 1025.14 1065.86 C 1064.77 1065.67 1104.39 1066.43 1144.02 1066.20 C 1165.79 1066.13 1187.33 1074.09 1204.26 1087.68 C 1210.32 1092.33 1214.78 1098.65 1218.96 1104.96 C 1227.28 1118.55 1232.45 1134.17 1233.17 1150.14 C 1232.16 1168.08 1225.83 1185.72 1215.26 1200.26 C 1203.62 1216.32 1185.05 1226.19 1166.10 1230.86 C 1153.34 1234.17 1140.11 1233.17 1127.08 1233.30 C 926.06 1233.30 725.05 1233.30 524.03 1233.30 C 487.83 1234.06 451.86 1223.98 420.23 1206.64 C 417.71 1205.18 416.76 1202.20 415.17 1199.93 C 413.33 1196.46 410.35 1193.87 407.58 1191.18 C 403.25 1191.19 398.92 1191.18 394.58 1191.20 C 385.40 1176.46 374.89 1162.60 363.62 1149.40 C 361.05 1146.56 358.28 1143.91 355.61 1141.18 C 362.94 1134.39 369.70 1126.94 377.93 1121.18 C 409.36 1096.07 446.23 1077.06 485.94 1069.54 Z" />
</g>
<g id="#888888ff">
<path fill="#888888" opacity="1.00" d=" M 611.63 834.42 C 628.20 834.43 644.78 834.41 661.35 834.43 C 661.40 844.29 661.32 854.15 661.35 864.01 C 661.24 867.36 664.81 869.07 666.72 871.36 C 666.71 872.96 666.71 874.57 666.71 876.20 C 669.18 879.24 674.05 881.44 673.58 885.94 C 673.43 892.17 673.79 898.42 673.42 904.65 C 671.89 907.50 668.97 909.41 666.85 911.85 C 667.72 916.19 664.07 918.79 661.36 921.44 C 661.36 963.65 661.37 1005.87 661.35 1048.08 C 644.78 1048.09 628.21 1048.09 611.64 1048.08 C 611.53 1005.57 611.81 963.05 611.50 920.54 C 618.00 918.46 623.87 914.27 627.47 908.42 C 633.59 898.94 633.08 885.79 626.26 876.80 C 622.69 871.81 617.33 868.43 611.60 866.44 C 611.67 855.76 611.61 845.09 611.63 834.42 Z" />
<path fill="#888888" opacity="1.00" d=" M 943.73 833.82 C 960.31 833.83 976.89 833.82 993.48 833.83 C 993.51 905.25 993.49 976.67 993.48 1048.09 C 976.90 1048.09 960.32 1048.09 943.74 1048.09 C 943.73 976.66 943.74 905.24 943.73 833.82 Z" />
</g>
</svg>
