<?xml version="1.0" encoding="UTF-8" ?>
<!DOCTYPE svg PUBLIC "-//W3C//DTD SVG 1.1//EN" "http://www.w3.org/Graphics/SVG/1.1/DTD/svg11.dtd">
<svg width="1262pt" height="1262pt" viewBox="0 0 1262 1262" version="1.1" xmlns="http://www.w3.org/2000/svg">
<g id="#d26464ff">
<path fill="#d26464" opacity="1.00" d=" M 968.31 0.00 L 968.69 0.00 C 1005.42 38.03 1042.61 75.65 1079.52 113.53 C 1136.05 171.34 1192.59 229.15 1249.13 286.96 C 1253.48 291.06 1257.15 295.93 1262.00 299.45 L 1262.00 299.78 C 1243.33 300.51 1224.63 299.90 1205.95 300.10 C 1174.00 300.10 1142.04 300.10 1110.09 300.10 C 1110.09 410.40 1110.09 520.70 1110.09 631.00 C 1015.70 631.00 921.30 631.00 826.91 631.00 C 826.90 520.70 826.91 410.40 826.91 300.10 C 776.29 300.09 725.66 300.11 675.04 300.09 C 749.52 223.89 824.04 147.73 898.53 71.55 C 921.76 47.67 945.26 24.04 968.31 0.00 Z" />
<path fill="#d26464" opacity="1.00" d=" M 263.83 703.19 C 280.49 698.94 298.15 698.89 314.83 703.10 C 346.69 710.53 374.03 733.18 389.16 761.94 C 446.31 866.07 503.45 970.20 560.60 1074.34 C 570.89 1091.79 576.72 1111.79 578.15 1131.98 C 579.54 1155.64 574.44 1179.83 562.70 1200.51 C 554.11 1215.88 542.34 1229.69 527.63 1239.51 C 510.36 1251.66 489.65 1259.28 468.43 1259.69 C 476.99 1261.07 485.71 1259.69 494.33 1260.48 C 493.60 1260.86 492.13 1261.62 491.39 1262.00 L 447.77 1262.00 C 447.17 1260.84 446.28 1260.26 445.09 1260.26 C 341.72 1260.17 238.35 1260.32 134.98 1260.22 C 133.38 1259.99 131.99 1260.55 131.18 1262.00 L 87.63 1262.00 C 86.56 1261.46 85.50 1260.91 84.45 1260.36 C 93.11 1259.80 101.89 1261.14 110.45 1259.47 C 97.17 1259.85 84.03 1256.44 71.85 1251.35 C 53.86 1243.70 38.02 1231.34 25.93 1216.03 C 12.75 1198.82 3.97 1178.19 1.35 1156.64 C -0.03 1149.83 0.83 1142.89 0.67 1136.01 C 1.45 1114.20 7.61 1092.52 18.74 1073.73 C 75.66 970.00 132.58 866.27 189.51 762.55 C 204.55 733.61 231.87 710.74 263.83 703.19 M 243.32 779.30 C 233.06 794.30 231.41 813.27 231.81 830.94 C 233.27 851.47 239.80 871.16 245.24 890.88 C 254.15 922.74 265.18 954.23 269.49 987.17 C 273.60 1015.50 276.77 1043.95 280.58 1072.32 C 287.19 1072.16 293.81 1072.28 300.42 1072.24 C 303.17 1048.14 305.82 1024.02 308.97 999.97 C 311.91 974.56 318.45 949.77 325.32 925.19 C 331.18 903.69 337.06 882.18 342.37 860.53 C 345.54 846.95 348.84 833.14 348.07 819.10 C 347.48 805.28 344.83 790.89 336.64 779.43 C 325.56 764.93 307.24 756.28 289.00 756.85 C 271.43 756.77 253.84 765.17 243.32 779.30 M 279.08 1109.21 C 262.45 1111.94 247.85 1122.96 239.31 1137.30 C 231.92 1149.69 230.19 1164.90 232.88 1178.94 C 236.07 1195.47 247.45 1209.79 262.00 1217.95 C 274.01 1224.64 288.43 1226.15 301.84 1223.72 C 318.85 1220.58 333.60 1208.79 341.75 1193.72 C 348.01 1181.99 349.44 1168.08 347.17 1155.10 C 344.22 1138.20 332.68 1123.48 317.87 1115.18 C 306.17 1108.65 292.18 1107.07 279.08 1109.21 Z" />
</g>
<g id="#000000ff">
<path fill="#000000" opacity="1.00" d=" M 45.55 4.59 C 55.88 -1.70 69.96 -0.82 79.42 6.71 C 86.56 12.17 90.86 20.95 91.07 29.91 C 91.18 45.46 85.05 61.03 74.16 72.16 C 63.29 83.53 47.74 90.34 32.00 90.46 C 22.53 90.58 13.00 86.38 7.23 78.79 C -0.47 69.18 -1.23 54.78 5.41 44.41 C 10.72 35.72 20.61 30.37 30.74 30.15 C 30.95 19.83 36.58 9.78 45.55 4.59 Z" />
<path fill="#000000" opacity="1.00" d=" M 232.47 1.60 C 244.78 -2.08 259.01 3.27 265.84 14.15 C 269.76 19.97 270.86 27.12 270.98 34.00 C 270.44 75.04 259.08 115.87 238.38 151.32 C 219.12 184.45 191.78 212.83 159.37 233.29 C 125.18 254.99 85.40 267.78 44.97 270.10 C 36.88 270.71 28.57 270.77 20.79 268.16 C 12.96 265.37 6.44 259.14 3.27 251.46 C -0.27 243.01 0.35 232.93 4.94 225.01 C 9.61 216.73 18.42 210.96 27.89 210.07 C 31.61 209.54 35.33 210.41 39.05 210.31 C 73.90 208.85 108.20 196.85 136.44 176.39 C 181.41 144.26 210.07 90.36 210.83 35.03 C 210.27 28.60 211.08 21.94 214.26 16.24 C 218.03 9.18 224.76 3.77 232.47 1.60 Z" />
<path fill="#000000" opacity="1.00" d=" M 412.48 1.63 C 424.36 -2.08 438.16 2.55 445.40 12.67 C 448.65 17.11 450.65 22.46 451.09 27.95 C 451.27 83.47 440.61 139.06 419.38 190.40 C 399.57 238.57 370.70 282.99 334.70 320.62 C 297.12 360.02 251.77 391.97 202.03 414.10 C 149.33 437.66 91.72 450.12 34.00 450.50 C 28.38 449.84 22.56 449.27 17.46 446.62 C 7.32 441.60 0.46 430.45 1.08 419.07 C 0.97 405.12 12.19 392.35 25.92 390.29 C 30.24 389.33 34.61 390.25 38.96 390.39 C 110.05 389.02 180.49 365.75 238.51 324.68 C 294.66 285.22 339.01 229.29 364.68 165.65 C 381.08 125.17 390.06 81.69 390.92 38.02 C 391.00 32.01 390.64 25.77 392.88 20.07 C 396.01 11.27 403.54 4.26 412.48 1.63 Z" />
<path fill="#000000" opacity="1.00" d=" M 594.09 1.23 C 607.25 -2.03 622.04 4.96 627.75 17.28 C 631.32 24.26 631.09 32.33 630.93 39.96 C 629.60 129.51 607.82 218.67 567.70 298.74 C 534.68 364.92 489.26 424.88 434.49 474.57 C 377.43 526.50 310.21 567.21 237.78 593.76 C 172.03 617.92 102.02 630.43 31.98 630.50 C 22.49 630.57 12.94 626.34 7.20 618.69 C -0.21 609.28 -1.01 595.32 5.15 585.08 C 10.03 576.71 19.20 571.03 28.88 570.46 C 116.53 571.00 204.18 549.51 281.76 508.75 C 346.23 475.02 403.70 428.03 449.63 371.61 C 497.05 313.50 532.12 245.38 551.86 173.02 C 564.13 128.10 570.69 81.59 570.93 35.02 C 570.42 28.13 571.40 20.95 575.12 15.00 C 579.24 8.09 586.25 3.02 594.09 1.23 Z" />
<path fill="#000000" opacity="1.00" d=" M 768.76 703.71 C 770.00 702.64 771.04 700.79 772.94 701.01 C 789.36 700.96 805.78 701.04 822.20 700.98 C 826.21 704.93 830.21 708.90 834.13 712.94 C 834.17 723.30 834.17 733.67 834.14 744.04 C 834.37 745.97 832.01 747.01 832.11 748.92 C 832.05 763.62 832.10 778.34 832.10 793.04 C 863.70 792.58 895.31 792.87 926.91 792.81 C 926.88 791.17 926.87 789.54 926.86 787.92 C 930.94 783.62 935.25 779.55 939.36 775.29 C 953.13 775.17 966.90 775.20 980.67 775.27 C 984.79 779.51 989.07 783.60 993.16 787.88 C 993.14 789.52 993.12 791.14 993.13 792.81 C 1056.09 792.78 1119.05 792.71 1182.01 793.05 C 1194.43 792.43 1207.12 795.50 1217.55 802.36 C 1225.29 807.09 1231.08 814.22 1237.59 820.40 C 1245.63 828.13 1251.44 838.11 1254.09 848.95 C 1256.39 857.44 1255.22 866.30 1255.50 874.98 C 1255.25 883.01 1256.29 891.20 1254.21 899.07 C 1251.64 910.24 1245.64 920.50 1237.36 928.42 C 1231.25 934.25 1225.80 940.89 1218.67 945.55 C 1208.79 952.20 1196.89 955.70 1184.99 955.58 C 1159.22 955.79 1133.45 955.63 1107.68 955.67 C 1107.68 988.38 1107.73 1021.10 1107.66 1053.82 C 1133.77 1053.76 1159.87 1054.16 1185.98 1054.06 C 1196.94 1054.03 1207.76 1057.44 1217.03 1063.21 C 1224.94 1067.98 1230.90 1075.18 1237.50 1081.50 C 1247.84 1091.44 1254.69 1105.19 1255.48 1119.57 C 1255.52 1130.15 1255.51 1140.74 1255.49 1151.32 C 1254.94 1162.04 1250.90 1172.48 1244.73 1181.22 C 1239.58 1187.88 1233.33 1193.57 1227.43 1199.55 C 1216.59 1210.31 1201.41 1217.07 1186.02 1216.51 C 1045.35 1216.47 904.69 1216.54 764.02 1216.48 C 743.19 1215.40 722.92 1208.42 705.03 1197.88 C 702.04 1195.91 699.88 1192.97 697.19 1190.68 C 681.27 1190.66 665.31 1190.99 649.42 1190.55 C 645.97 1187.42 642.51 1184.19 639.56 1180.60 C 639.38 1165.06 639.58 1149.51 639.47 1133.97 C 639.07 1124.61 647.24 1118.29 653.13 1112.19 C 656.69 1108.75 659.96 1104.82 664.45 1102.56 C 666.48 1101.50 668.68 1100.63 670.23 1098.87 C 692.85 1078.05 720.32 1061.35 750.92 1055.90 C 763.80 1053.36 776.95 1054.18 789.99 1054.06 C 797.44 1054.06 804.89 1054.06 812.34 1054.06 C 812.35 1049.73 812.35 1045.41 812.35 1041.09 C 796.86 1041.41 781.40 1040.35 765.94 1039.60 C 763.34 1039.72 761.94 1037.21 760.22 1035.72 C 757.58 1032.74 754.17 1030.36 752.03 1027.01 C 751.79 1018.37 752.02 1009.72 751.95 1001.08 C 751.27 1001.01 749.93 1000.89 749.26 1000.82 C 746.40 997.68 743.00 995.00 740.46 991.59 C 740.07 982.22 740.13 972.76 740.41 963.39 C 743.24 959.83 746.76 956.87 749.93 953.62 C 714.61 947.33 684.20 925.68 659.42 900.64 C 655.70 896.51 650.24 893.11 649.40 887.17 C 649.06 881.13 649.37 875.08 649.26 869.04 C 649.34 865.17 648.72 860.99 650.72 857.48 C 652.34 854.61 654.93 852.50 657.19 850.15 C 674.88 832.08 694.90 815.77 717.98 805.12 C 731.79 798.85 746.60 794.57 761.76 793.42 C 761.71 778.19 761.85 762.95 761.69 747.72 C 760.61 746.34 759.38 744.94 759.66 743.08 C 759.77 733.02 759.34 722.93 759.87 712.90 C 762.54 709.57 765.87 706.84 768.76 703.71 M 758.98 825.97 C 730.27 832.37 705.06 849.08 683.58 868.66 C 681.82 870.12 680.57 872.05 679.45 874.03 C 680.72 877.92 684.20 880.25 687.00 882.99 C 709.53 902.91 736.41 919.29 766.49 924.17 C 781.22 926.68 796.20 925.31 811.04 925.90 C 925.04 925.90 1039.04 925.90 1153.04 925.90 C 1160.33 925.93 1167.63 925.90 1174.93 925.59 C 1186.65 924.96 1198.05 920.45 1207.32 913.28 C 1211.96 909.86 1215.21 904.98 1218.19 900.13 C 1222.68 892.19 1225.54 883.17 1225.78 874.02 C 1225.35 864.43 1222.22 855.02 1217.23 846.86 C 1208.22 831.60 1190.20 823.65 1173.01 822.81 C 1047.66 822.44 922.31 822.71 796.96 822.62 C 784.24 822.66 771.39 822.85 758.98 825.97 M 1047.24 940.44 C 1047.18 984.52 1047.22 1028.59 1047.22 1072.66 C 1057.43 1072.65 1067.64 1072.63 1077.85 1072.68 C 1077.87 1028.59 1077.94 984.51 1077.81 940.43 C 1067.62 940.49 1057.43 940.47 1047.24 940.44 M 842.20 940.79 C 842.24 947.39 842.18 953.99 842.23 960.59 C 849.61 962.84 855.07 970.21 854.61 977.99 C 854.40 985.29 849.09 991.84 842.17 993.97 C 842.27 1020.20 842.18 1046.43 842.22 1072.67 C 852.42 1072.65 862.62 1072.63 872.82 1072.67 C 872.83 1047.11 872.82 1021.55 872.82 995.99 C 872.69 993.80 874.94 992.60 876.16 991.09 C 876.20 990.42 876.29 989.08 876.33 988.41 C 877.73 987.05 879.11 985.67 880.45 984.25 C 880.31 979.79 880.36 975.34 880.40 970.89 C 879.04 969.49 877.68 968.13 876.34 966.74 C 876.80 963.83 874.59 961.92 872.80 960.04 C 872.84 953.60 872.82 947.16 872.81 940.73 C 862.60 940.73 852.40 940.63 842.20 940.79 M 910.19 955.71 C 910.26 971.80 910.18 987.90 910.23 1003.99 C 910.83 1009.86 901.98 1011.19 902.61 1016.98 C 902.66 1029.30 902.63 1041.62 902.63 1053.94 C 940.90 1053.73 979.17 1053.88 1017.44 1053.83 C 1017.41 1021.11 1017.44 988.39 1017.43 955.67 C 981.68 955.70 945.93 955.63 910.19 955.71 M 761.01 1086.63 C 731.83 1093.15 705.25 1109.16 684.12 1130.09 C 693.37 1139.28 701.10 1149.92 708.12 1160.88 C 710.78 1160.89 713.44 1160.90 716.12 1160.90 C 719.18 1163.28 721.03 1166.69 723.15 1169.86 C 738.38 1178.71 755.56 1184.27 773.06 1186.27 C 781.99 1187.27 791.00 1186.79 799.97 1186.90 C 923.96 1186.91 1047.95 1186.89 1171.94 1186.91 C 1182.81 1186.87 1193.61 1183.57 1202.75 1177.72 C 1216.88 1168.92 1224.71 1152.27 1225.79 1136.03 C 1225.09 1118.71 1216.43 1100.71 1200.84 1092.15 C 1191.82 1086.84 1181.46 1083.86 1170.98 1083.83 C 1146.99 1083.90 1123.00 1083.62 1099.01 1083.65 C 1096.06 1083.38 1095.08 1087.56 1092.03 1087.16 C 1072.69 1087.25 1053.34 1087.18 1034.01 1087.19 C 1031.33 1087.57 1029.55 1085.41 1027.92 1083.71 C 983.27 1083.59 938.61 1083.67 893.96 1083.76 C 890.99 1083.34 890.05 1087.54 887.05 1087.17 C 867.71 1087.26 848.35 1087.09 829.01 1087.35 C 825.17 1088.17 823.71 1083.02 819.99 1083.80 C 800.33 1084.35 780.37 1082.20 761.01 1086.63 Z" />
</g>
<g id="#ffffffff">
<path fill="#ffffff" opacity="1.00" d=" M 243.32 779.30 C 253.84 765.17 271.43 756.77 289.00 756.85 C 307.24 756.28 325.56 764.93 336.64 779.43 C 344.83 790.89 347.48 805.28 348.07 819.10 C 348.84 833.14 345.54 846.95 342.37 860.53 C 337.06 882.18 331.18 903.69 325.32 925.19 C 318.45 949.77 311.91 974.56 308.97 999.97 C 305.82 1024.02 303.17 1048.14 300.42 1072.24 C 293.81 1072.28 287.19 1072.16 280.58 1072.32 C 276.77 1043.95 273.60 1015.50 269.49 987.17 C 265.18 954.23 254.15 922.74 245.24 890.88 C 239.80 871.16 233.27 851.47 231.81 830.94 C 231.41 813.27 233.06 794.30 243.32 779.30 Z" />
<path fill="#ffffff" opacity="1.00" d=" M 279.08 1109.21 C 292.18 1107.07 306.17 1108.65 317.87 1115.18 C 332.68 1123.48 344.22 1138.20 347.17 1155.10 C 349.44 1168.08 348.01 1181.99 341.75 1193.72 C 333.60 1208.79 318.85 1220.58 301.84 1223.72 C 288.43 1226.15 274.01 1224.64 262.00 1217.95 C 247.45 1209.79 236.07 1195.47 232.88 1178.94 C 230.19 1164.90 231.92 1149.69 239.31 1137.30 C 247.85 1122.96 262.45 1111.94 279.08 1109.21 Z" />
</g>
<g id="#dea305ff">
<path fill="#dea305" opacity="1.00" d=" M 758.98 825.97 C 771.39 822.85 784.24 822.66 796.96 822.62 C 922.31 822.71 1047.66 822.44 1173.01 822.81 C 1190.20 823.65 1208.22 831.60 1217.23 846.86 C 1222.22 855.02 1225.35 864.43 1225.78 874.02 C 1225.54 883.17 1222.68 892.19 1218.19 900.13 C 1215.21 904.98 1211.96 909.86 1207.32 913.28 C 1198.05 920.45 1186.65 924.96 1174.93 925.59 C 1167.63 925.90 1160.33 925.93 1153.04 925.90 C 1039.04 925.90 925.04 925.90 811.04 925.90 C 796.20 925.31 781.22 926.68 766.49 924.17 C 736.41 919.29 709.53 902.91 687.00 882.99 C 684.20 880.25 680.72 877.92 679.45 874.03 C 680.57 872.05 681.82 870.12 683.58 868.66 C 705.06 849.08 730.27 832.37 758.98 825.97 Z" />
<path fill="#dea305" opacity="1.00" d=" M 761.01 1086.63 C 780.37 1082.20 800.33 1084.35 819.99 1083.80 C 823.71 1083.02 825.17 1088.17 829.01 1087.35 C 848.35 1087.09 867.71 1087.26 887.05 1087.17 C 890.05 1087.54 890.99 1083.34 893.96 1083.76 C 938.61 1083.67 983.27 1083.59 1027.92 1083.71 C 1029.55 1085.41 1031.33 1087.57 1034.01 1087.19 C 1053.34 1087.18 1072.69 1087.25 1092.03 1087.16 C 1095.08 1087.56 1096.06 1083.38 1099.01 1083.65 C 1123.00 1083.62 1146.99 1083.90 1170.98 1083.83 C 1181.46 1083.86 1191.82 1086.84 1200.84 1092.15 C 1216.43 1100.71 1225.09 1118.71 1225.79 1136.03 C 1224.71 1152.27 1216.88 1168.92 1202.75 1177.72 C 1193.61 1183.57 1182.81 1186.87 1171.94 1186.91 C 1047.95 1186.89 923.96 1186.91 799.97 1186.90 C 791.00 1186.79 781.99 1187.27 773.06 1186.27 C 755.56 1184.27 738.38 1178.71 723.15 1169.86 C 721.03 1166.69 719.18 1163.28 716.12 1160.90 C 713.44 1160.90 710.78 1160.89 708.12 1160.88 C 701.10 1149.92 693.37 1139.28 684.12 1130.09 C 705.25 1109.16 731.83 1093.15 761.01 1086.63 Z" />
</g>
<g id="#888888ff">
<path fill="#888888" opacity="1.00" d=" M 1047.24 940.44 C 1057.43 940.47 1067.62 940.49 1077.81 940.43 C 1077.94 984.51 1077.87 1028.59 1077.85 1072.68 C 1067.64 1072.63 1057.43 1072.65 1047.22 1072.66 C 1047.22 1028.59 1047.18 984.52 1047.24 940.44 Z" />
<path fill="#888888" opacity="1.00" d=" M 842.20 940.79 C 852.40 940.63 862.60 940.73 872.81 940.73 C 872.82 947.16 872.84 953.60 872.80 960.04 C 874.59 961.92 876.80 963.83 876.34 966.74 C 877.68 968.13 879.04 969.49 880.40 970.89 C 880.36 975.34 880.31 979.79 880.45 984.25 C 879.11 985.67 877.73 987.05 876.33 988.41 C 876.29 989.08 876.20 990.42 876.16 991.09 C 874.94 992.60 872.69 993.80 872.82 995.99 C 872.82 1021.55 872.83 1047.11 872.82 1072.67 C 862.62 1072.63 852.42 1072.65 842.22 1072.67 C 842.18 1046.43 842.27 1020.20 842.17 993.97 C 849.09 991.84 854.40 985.29 854.61 977.99 C 855.07 970.21 849.61 962.84 842.23 960.59 C 842.18 953.99 842.24 947.39 842.20 940.79 Z" />
</g>
</svg>
